<?xml version="1.0" encoding="utf-8"?>
<!-- Generator: Adobe Illustrator 18.1.0, SVG Export Plug-In . SVG Version: 6.00 Build 0)  -->
<svg version="1.1" xmlns="http://www.w3.org/2000/svg" xmlns:xlink="http://www.w3.org/1999/xlink" x="0px" y="0px"
	 viewBox="0 0 600 300" enable-background="new 0 0 600 300" xml:space="preserve">
<g id="tv_land_-_red" display="none">
	<g display="inline">
		<polygon fill="#DC4643" points="249.3,92 251.7,73.1 82.4,85.5 64.3,220.6 177.8,212.5 229,208.8 174.9,234.5 522.3,210.1 
			540,71.2 		"/>
		<polygon fill="#FFFFFF" points="177.8,212.5 174.9,234.5 229,208.8 		"/>
		<g>
			<g>
				<path fill="#FFFFFF" d="M247.7,206.5l13.6-97.2l22.5-1.6l-10.9,77.7l27.4-1.9l-2.7,19.4L247.7,206.5z"/>
				<path fill="#FFFFFF" d="M302.7,202.6l34.5-98.6l27.1-1.9l7.2,95.7l-22.7,1.6l-0.5-18.7l-17.6,1.2l-5.3,19.1L302.7,202.6z
					 M348.3,120.6l-0.3,0l-12.6,44l13-0.9L348.3,120.6z"/>
				<path fill="#FFFFFF" d="M403.3,141.6l-0.3,0.3l-5.5,54l-21.3,1.5l13.6-97.2l23.1-1.6l9.8,53.1l0.4,0l5.4-54.1l21.3-1.5
					l-13.6,97.2l-23,1.6L403.3,141.6z"/>
				<path fill="#FFFFFF" d="M443,192.7l13.6-97.2l24.4-1.7c8.2-0.6,18-1,24.6,2.8c8,4.6,8,13.9,6.7,23.3l-6,43.1
					c-1.5,9.7-5.4,17.1-12.5,21.7c-6.4,4.3-13.7,5.5-20.5,5.9L443,192.7z M467.9,173.6c14.9,0,15.9-6.3,17.3-19.2l4.4-31.7
					c1.5-11.4-2.1-11.8-13.1-11.3L467.9,173.6z"/>
			</g>
			<path fill="#FFFFFF" d="M98.2,103.3l58.2-4.1l-2.7,19.4l-18.1,1.3l-10.9,77.7l-22.5,1.6l10.9-77.7l-17.6,1.2L98.2,103.3z"/>
			<path fill="#FFFFFF" d="M168.4,194.5l-7.2-95.7l22.5-1.6l2,67.3l0.3,0l21-69l22.5-1.6l-34.5,98.6L168.4,194.5z"/>
		</g>
	</g>
</g>
<g id="tv_land_-_gold" display="none">
	<g display="inline">
		<polygon fill="#F6AF18" points="247.4,89.3 249.8,70.6 81.9,82.9 63.9,216.8 176.5,208.8 227.3,205.2 173.6,230.6 518.2,206.4 
			535.7,68.7 		"/>
		<g>
			<polygon fill="#FFFFFF" points="176.5,208.8 173.6,230.6 227.3,205.2 			"/>
			<g>
				<g>
					<path fill="#FFFFFF" d="M245.8,202.8l13.5-96.4l22.3-1.6L270.8,182l27.2-1.9l-2.7,19.3L245.8,202.8z"/>
					<path fill="#FFFFFF" d="M300.4,199l34.2-97.8l26.8-1.9l7.2,94.9l-22.5,1.6l-0.5-18.5l-17.5,1.2l-5.3,18.9L300.4,199z
						 M345.6,117.7l-0.3,0l-12.5,43.6l12.9-0.9L345.6,117.7z"/>
					<path fill="#FFFFFF" d="M400.1,138.5l-0.3,0.3l-5.5,53.6l-21.1,1.5l13.5-96.4l22.9-1.6l9.7,52.6l0.4,0l5.4-53.7l21.1-1.5
						l-13.5,96.4l-22.8,1.6L400.1,138.5z"/>
					<path fill="#FFFFFF" d="M439.5,189.1L453,92.8l24.2-1.7c8.1-0.6,17.8-1,24.4,2.7c7.9,4.5,8,13.8,6.7,23.1l-6,42.8
						c-1.5,9.6-5.4,16.9-12.4,21.5c-6.4,4.3-13.5,5.4-20.4,5.9L439.5,189.1z M464.2,170.2c14.8,0,15.8-6.2,17.2-19l4.4-31.5
						c1.5-11.3-2.1-11.7-13-11.2L464.2,170.2z"/>
				</g>
				<path fill="#FFFFFF" d="M97.6,100.5l57.7-4.1l-2.7,19.3l-18,1.3L123.8,194l-22.3,1.6l10.8-77.1l-17.5,1.2L97.6,100.5z"/>
				<path fill="#FFFFFF" d="M167.2,191l-7.2-94.9l22.3-1.6l1.9,66.8l0.3,0l20.8-68.4l22.3-1.6l-34.2,97.8L167.2,191z"/>
			</g>
		</g>
	</g>
</g>
<g id="tvland_-_seagreen" display="none">
	<g display="inline">
		<polygon fill="#67B9B1" points="249,88.6 251.3,69.9 83.4,82.3 65.4,216.3 178,208.2 228.8,204.6 175.1,230 519.8,205.8 
			537.3,68.1 		"/>
		<polygon fill="#FFFFFF" points="178,208.2 175.1,230 228.8,204.6 		"/>
		<g>
			<g>
				<path fill="#FFFFFF" d="M247.4,202.2l13.5-96.4l22.3-1.6l-10.8,77.1l27.2-1.9l-2.7,19.3L247.4,202.2z"/>
				<path fill="#FFFFFF" d="M302,198.4l34.2-97.9l26.8-1.9l7.2,94.9l-22.5,1.6l-0.5-18.5l-17.5,1.2l-5.3,19L302,198.4z M347.2,117.1
					l-0.3,0l-12.5,43.6l12.9-0.9L347.2,117.1z"/>
				<path fill="#FFFFFF" d="M401.7,137.9l-0.3,0.3l-5.5,53.6l-21.1,1.5l13.5-96.4l22.9-1.6l9.7,52.6l0.4,0l5.4-53.7l21.1-1.5
					L434.3,189l-22.8,1.6L401.7,137.9z"/>
				<path fill="#FFFFFF" d="M441.1,188.6l13.5-96.4l24.2-1.7c8.1-0.6,17.8-1,24.4,2.7c7.9,4.5,8,13.8,6.7,23.1l-6,42.8
					c-1.5,9.6-5.4,16.9-12.4,21.5c-6.4,4.3-13.5,5.4-20.4,5.9L441.1,188.6z M465.8,169.6c14.8,0,15.8-6.2,17.2-19l4.4-31.5
					c1.5-11.3-2.1-11.7-13-11.2L465.8,169.6z"/>
			</g>
			<path fill="#FFFFFF" d="M99.1,99.9l57.7-4.1l-2.7,19.3l-18,1.3l-10.8,77.1L103,195l10.8-77.1l-17.5,1.2L99.1,99.9z"/>
			<path fill="#FFFFFF" d="M168.8,190.4l-7.2-94.9l22.3-1.6l1.9,66.8l0.3,0l20.9-68.4l22.3-1.6L195,188.5L168.8,190.4z"/>
		</g>
	</g>
</g>
<g id="spike_-_white" display="none">
	<g display="inline">
		<polygon fill="#FFFFFF" points="520,102.8 522.9,102.8 522.9,111 525.1,111 525.1,102.8 528,102.8 528,100.8 520,100.9 		"/>
		<polygon fill="#FFFFFF" points="540.8,100.8 537.5,100.8 535.1,107.4 535.1,107.4 532.8,100.8 529.4,100.8 529.4,111 531.6,111 
			531.6,103.2 531.6,103.2 534.2,111 535.9,111 538.6,103.2 538.6,103.2 538.6,111 540.8,111 		"/>
		<path fill="#FFFFFF" d="M247.7,98.4c-10.8,0-18,3.6-21.5,6.4c-1.1,0.7-1.8,1.5-3.7,3.7v-7.5h-36.9v46.4
			c-3.5-20.1-20.2-26.2-27.4-28.5c-12.8-4.3-25-6-29.5-6.8c-3.5-0.6-11.2-2.1-14.5-4.1c-1.8-1.3-3.3-3.6-3.3-6
			c0-4.5,4.4-6.6,5.1-6.9c3.9-1.7,8.8-1.7,9.7-1.7c9.7,0,22.8,2.1,30.3,9.2c1.1,0.9,2,2.1,3.7,4.3l24.3-23.5
			c-2.7-2.8-4.9-5.1-8.4-7.6c-18.5-13.9-41.8-14.3-48.4-14.3c-5,0-39.3-0.4-52.5,24.4c-4.6,8.4-4.8,16.5-4.8,20.1
			c-0.2,14.4,7.2,23.3,11.2,26.8c6.2,5.6,15.8,10.1,33.6,13.7c11.6,2.4,19.8,3.6,24.4,5.2c3.8,1.3,5.3,3,6.2,4.9
			c0.2,0.6,0.9,1.7,0.9,3.2c0,6.6-8.1,10.1-19.6,10.1c-9,0-22.6-2.8-29.9-9.4c-1.8-1.5-3.5-3.6-6.2-8.1l-26.9,26
			c2.7,3.1,5.5,5.8,9.3,8.7c15.4,11.8,33.4,15,52.3,15c5.5,0,27.3,0.4,44-12.2c4.9-3.7,13.9-12.1,16.4-26.9V247l37.1-38.1v-18.9
			c1.1,2.1,3,4.1,4.3,5c2,1.4,3.8,2.6,5.9,3.4l55.7-58C286,117.4,273.7,98.4,247.7,98.4z M244.2,170.5c-3.1,1.8-5.7,2-7.3,2
			c-1.3,0-3.7,0-6.6-1.6c-7.3-4-7.9-13.5-7.9-20.7c0-7.4,0.4-16.8,8.1-20.9c2.9-1.6,5.9-1.8,7.3-1.8c1.8,0,6.8,0.7,10.1,5
			c3.7,4.9,4,12.3,4,18C251.9,157.4,251,166.4,244.2,170.5z"/>
		<polygon fill="#FFFFFF" points="326.5,100.3 288.7,139.9 288.7,198.2 326.5,198.2 		"/>
		<path fill="#FFFFFF" d="M307.6,100c10.4,0,18.9-8.6,18.9-19.3c0-10.7-8.5-19.3-18.9-19.3c-10.4,0-18.9,8.6-18.9,19.3
			C288.7,91.4,297.2,100,307.6,100z"/>
		<polygon fill="#FFFFFF" points="372.6,171 382.5,161.2 403,198.2 446.1,198.2 435,179.9 433.6,177.5 408.3,136.1 444.5,101.1 
			398.4,101.1 372.6,128.8 372.6,52.7 334.8,92 334.8,198.2 372.6,198.2 		"/>
		<path fill="#FFFFFF" d="M524.1,131.3c-1.9-6.3-5.3-12.4-9.7-17.3c-13.2-14.6-31.9-15.5-38-15.5c-5.1,0-23.2,0.9-36.3,13.7
			c-5.3,5.2-13.9,17.1-13.9,36.4c0,9.8,2.4,19.3,6.9,27.3l1.4,2.3c4.8,7.5,11.7,13.6,20.6,17.3c6.9,2.9,14.1,4,21.7,4
			c7.6,0,14.8-1.1,21.7-4C512,189.9,521,178.5,525,165h-32.7c-1.7,3.7-5.5,8.5-13.7,8.4l-0.1-0.1c-9.7,0.2-14.2-6.7-15.4-10.3
			c-0.9-2.9-0.9-7.2-0.9-7.2h64.6C526.8,147.4,526.6,139.5,524.1,131.3z M462.6,136.2c0.3-2,1.2-9.5,7.9-12.6
			c1.1-0.5,3.8-1.3,6.6-1.4c2.8,0,9.5,1.1,12,8.8c0.7,2.3,0.7,4.1,0.9,5.2H462.6z"/>
	</g>
</g>
<g id="vh1_-_blue" display="none">
	<g display="inline">
		<path fill="#39A7C2" d="M403,122.5c-1.9,0-3.4-1.6-3.4-3.4V61c0-1.9-1.6-3.4-3.4-3.4h-48.4c-1.9,0-3.5,1.5-3.5,3.4v58.1
			c0,1.9-1.5,3.4-3.4,3.4H294c-1.9,0-3.4,1.6-3.4,3.4v48.4c0,1.9,1.6,3.5,3.4,3.5h46.9c1.9,0,3.4,1.5,3.4,3.5v58.1
			c0,1.9,1.6,3.4,3.5,3.4h48.3c1.9,0,3.5-1.6,3.5-3.4v-58.1c0-1.9,1.5-3.5,3.4-3.5h46.9c1.9,0,3.4-1.5,3.4-3.5v-51.8H403z"/>
		<path fill="#62E6F3" d="M536.3,57.5h-44c-2.6,0-4.7,0.9-6.3,2l-29.9,22.4c-1.5,1.1-2.8,3-2.8,5.4v19.5v15.7H481
			c1.9,0,3.4,1.6,3.4,3.4v113.4c0,1.9,1.6,3.4,3.5,3.4h48.4c1.9,0,3.4-1.6,3.4-3.4V61C539.7,59.1,538.2,57.5,536.3,57.5"/>
		<path fill="#62E6F3" d="M292.8,57.5H187.2c-1.9,0-3.9,1.5-4.4,3.3L154,154.1c-0.2,0.5-0.6,0.8-1.2,0.8c-0.5,0-1-0.4-1.2-0.8
			l-28.8-93.3c-0.6-1.8-2.6-3.3-4.5-3.3H67.1c-1.9,0-2.9,1.4-2.2,3.2l64,178.7c0.6,1.8,2.7,3.3,4.6,3.3h38.7c1.9,0,4-1.5,4.6-3.3
			l61.8-172.6c0.2-0.5,0.7-0.9,1.2-0.9c0.6,0,1.2,0.6,1.2,1.2v172.2c0,1.9,1.5,3.4,3.5,3.4h48.3c1.9,0,3.4-1.6,3.4-3.4V61
			C296.2,59.1,294.7,57.5,292.8,57.5"/>
	</g>
</g>
<g id="vh1_-_purple" display="none">
	<g display="inline">
		<path fill="#68009C" d="M402.6,121.9c-1.9,0-3.4-1.6-3.4-3.5V60.1c0-1.9-1.6-3.4-3.5-3.4h-48.6c-1.9,0-3.5,1.5-3.5,3.4v58.3
			c0,1.9-1.5,3.5-3.4,3.5h-47.1c-1.9,0-3.5,1.6-3.5,3.4v48.6c0,1.9,1.6,3.5,3.5,3.5h47.1c1.9,0,3.4,1.5,3.4,3.5v58.3
			c0,1.9,1.6,3.5,3.5,3.5h48.5c1.9,0,3.5-1.6,3.5-3.5v-58.3c0-1.9,1.5-3.5,3.5-3.5h47.1c1.9,0,3.4-1.5,3.4-3.5v-52H402.6z"/>
		<path fill="#8B00C3" d="M536.4,56.7h-44.2c-2.6,0-4.7,0.9-6.3,2l-30,22.5c-1.5,1.1-2.8,3-2.8,5.4v19.6v15.7h27.8
			c1.9,0,3.5,1.6,3.5,3.4v113.8c0,1.9,1.6,3.5,3.5,3.5h48.6c1.9,0,3.4-1.6,3.4-3.5V60.1C539.9,58.2,538.3,56.7,536.4,56.7"/>
		<path fill="#8B00C3" d="M292,56.7H186c-1.9,0-3.9,1.5-4.5,3.3l-28.9,93.7c-0.2,0.5-0.6,0.8-1.2,0.8c-0.5,0-1-0.4-1.2-0.8
			l-28.9-93.7c-0.6-1.8-2.6-3.3-4.5-3.3H65.4c-1.9,0-2.9,1.5-2.3,3.2l64.2,179.5c0.6,1.8,2.7,3.3,4.6,3.3h38.8c1.9,0,4-1.5,4.6-3.3
			l62-173.3c0.2-0.5,0.7-0.9,1.2-0.9c0.6,0,1.3,0.6,1.3,1.2v172.8c0,1.9,1.5,3.5,3.5,3.5H292c1.9,0,3.5-1.6,3.5-3.5V60.1
			C295.4,58.2,293.9,56.7,292,56.7"/>
	</g>
</g>
<g id="vh1_-_green" display="none">
	<g display="inline">
		<path fill="#30B317" d="M398.5,122.7c-1.8,0-3.3-1.5-3.3-3.3V63.1c0-1.8-1.5-3.3-3.3-3.3H345c-1.8,0-3.3,1.5-3.3,3.3v56.3
			c0,1.8-1.5,3.3-3.3,3.3h-45.5c-1.8,0-3.3,1.5-3.3,3.3v46.9c0,1.9,1.5,3.3,3.3,3.3h45.5c1.9,0,3.3,1.5,3.3,3.4V236
			c0,1.8,1.5,3.3,3.3,3.3h46.8c1.9,0,3.4-1.5,3.4-3.3v-56.3c0-1.9,1.5-3.4,3.3-3.4H444c1.8,0,3.3-1.5,3.3-3.3v-50.2H398.5z"/>
		<path fill="#2AE130" d="M527.7,59.7h-42.6c-2.6,0-4.6,0.8-6.1,1.9l-29,21.7c-1.5,1-2.7,2.9-2.7,5.2v18.9v15.2h26.8
			c1.8,0,3.3,1.5,3.3,3.3V236c0,1.8,1.5,3.3,3.4,3.3h46.9c1.8,0,3.3-1.5,3.3-3.3V63.1C531,61.2,529.5,59.7,527.7,59.7"/>
		<path fill="#2AE130" d="M291.6,59.7H189.3c-1.8,0-3.8,1.4-4.3,3.2L157,153.3c-0.2,0.5-0.6,0.8-1.2,0.8c-0.5,0-1-0.3-1.2-0.8
			l-27.9-90.4c-0.5-1.7-2.5-3.2-4.3-3.2H72.9c-1.8,0-2.8,1.4-2.2,3.1l62,173.3c0.6,1.7,2.6,3.2,4.5,3.2h37.5c1.8,0,3.9-1.4,4.4-3.2
			L239,68.8c0.2-0.5,0.6-0.9,1.2-0.9c0.6,0,1.2,0.6,1.2,1.1V236c0,1.8,1.5,3.3,3.4,3.3h46.9c1.9,0,3.3-1.5,3.3-3.3V63.1
			C295,61.2,293.5,59.7,291.6,59.7"/>
	</g>
</g>
<g id="comedy_-_pink" display="none">
	<path display="inline" fill="#F95C52" d="M296.6,228.7c-36.7,0-70.3-20-87.8-52.3l18-9.8c13.9,25.6,40.6,41.6,69.8,41.6
		c43.7,0,79.3-35.6,79.3-79.3c0-43.7-35.6-79.3-79.3-79.3c-28.8,0-55.3,15.6-69.3,40.8l-17.9-10c17.6-31.7,51.1-51.4,87.3-51.4
		c55,0,99.8,44.8,99.8,99.8C396.4,183.9,351.6,228.7,296.6,228.7"/>
	<path display="inline" fill="#F95C52" d="M296.4,178.2c-27.2,0-49.3-22.1-49.3-49.4c0-27.2,22.1-49.4,49.3-49.4
		c17.9,0,34.4,9.7,43.1,25.3l-17.9,10c-5.1-9.1-14.8-14.8-25.2-14.8c-15.9,0-28.8,12.9-28.8,28.9c0,15.9,12.9,28.9,28.8,28.9
		c10.7,0,20.4-5.8,25.4-15.2l18.1,9.7C331.3,168.3,314.6,178.2,296.4,178.2"/>
	<path display="inline" fill="#FFFFFF" d="M172.6,251.2c2.7,0,4.6,0.8,6.4,2.5c0.2,0.2,0.2,0.5,0,0.7l-2.1,2.2
		c-0.2,0.2-0.5,0.2-0.7,0c-1-0.9-2.3-1.4-3.6-1.4c-3,0-5.2,2.5-5.2,5.5c0,2.9,2.2,5.4,5.2,5.4c1.2,0,2.6-0.5,3.6-1.3
		c0.2-0.2,0.5-0.2,0.7,0l2.1,2.2c0.2,0.2,0.2,0.5,0,0.7c-1.8,1.8-4.1,2.6-6.5,2.6c-5.3,0-9.6-4.2-9.6-9.6
		C163,255.5,167.3,251.2,172.6,251.2"/>
	<path display="inline" fill="#FFFFFF" d="M193.8,251.2c5.3,0,9.6,4.3,9.6,9.6c0,5.3-4.3,9.6-9.6,9.6c-5.3,0-9.5-4.2-9.5-9.6
		C184.3,255.5,188.5,251.2,193.8,251.2 M193.8,266.1c2.9,0,5.3-2.4,5.3-5.3c0-2.9-2.4-5.3-5.3-5.3c-2.9,0-5.3,2.4-5.3,5.3
		C188.5,263.7,190.9,266.1,193.8,266.1"/>
	<path display="inline" fill="#FFFFFF" d="M211.9,251.6c0-0.2,0.3-0.4,0.5-0.4h0.4c0.1,0,0.4,0.1,0.4,0.3l6.2,11.5h0.1l6.2-11.5
		c0.1-0.2,0.3-0.3,0.4-0.3h0.4c0.2,0,0.5,0.2,0.5,0.4l3,17.9c0.1,0.4-0.2,0.6-0.5,0.6h-3.1c-0.2,0-0.5-0.2-0.5-0.4l-1.2-8.2h0
		l-4.5,8.6c-0.1,0.2-0.3,0.3-0.5,0.3h-0.5c-0.2,0-0.4-0.1-0.5-0.3l-4.5-8.6h0l-1.2,8.2c0,0.2-0.2,0.4-0.5,0.4h-3.1
		c-0.3,0-0.6-0.2-0.5-0.6L211.9,251.6z"/>
	<path display="inline" fill="#FFFFFF" d="M236.9,252c0-0.3,0.2-0.5,0.5-0.5h11c0.3,0,0.5,0.2,0.5,0.5v2.9c0,0.3-0.2,0.5-0.5,0.5
		H241v3.3h6.1c0.3,0,0.5,0.2,0.5,0.5v2.9c0,0.3-0.2,0.5-0.5,0.5H241v3.6h7.4c0.3,0,0.5,0.2,0.5,0.5v2.9c0,0.3-0.2,0.5-0.5,0.5h-11
		c-0.3,0-0.5-0.2-0.5-0.5V252z"/>
	<path display="inline" fill="#FFFFFF" d="M255.9,252c0-0.3,0.2-0.5,0.5-0.5h6.5c5.1,0,9.3,4.2,9.3,9.3c0,5.2-4.2,9.3-9.3,9.3h-6.5
		c-0.3,0-0.5-0.2-0.5-0.5V252z M262.6,266.1c3,0,5.2-2.4,5.2-5.4c0-3-2.2-5.4-5.2-5.4h-2.5v10.8H262.6z"/>
	<path display="inline" fill="#FFFFFF" d="M282,261.1l-5.9-8.9c-0.2-0.4,0-0.8,0.4-0.8h3.5c0.2,0,0.3,0.1,0.4,0.2l3.7,5.5l3.7-5.5
		c0.1-0.1,0.2-0.2,0.4-0.2h3.5c0.4,0,0.6,0.4,0.4,0.8l-6,8.9v8.5c0,0.3-0.2,0.5-0.5,0.5h-3.2c-0.3,0-0.5-0.2-0.5-0.5V261.1z"/>
	<path display="inline" fill="#FFFFFF" d="M426.7,270.3c-2.7,0-4.6-0.8-6.4-2.5c-0.2-0.2-0.2-0.5,0-0.7l2.1-2.2
		c0.2-0.2,0.5-0.2,0.7,0c1,0.9,2.3,1.4,3.6,1.4c3,0,5.2-2.5,5.2-5.5c0-3-2.2-5.4-5.2-5.4c-1.3,0-2.6,0.4-3.6,1.3
		c-0.2,0.2-0.5,0.2-0.7,0l-2.1-2.2c-0.2-0.2-0.2-0.5,0-0.7c1.8-1.7,4.1-2.6,6.5-2.6c5.3,0,9.6,4.2,9.6,9.6
		C436.3,266.1,432,270.3,426.7,270.3"/>
	<path display="inline" fill="#FFFFFF" d="M413.6,269.6c0,0.3-0.2,0.5-0.5,0.5h-11c-0.3,0-0.5-0.2-0.5-0.5v-2.9
		c0-0.3,0.2-0.5,0.5-0.5h7.4v-3.3h-6.1c-0.3,0-0.5-0.2-0.5-0.5v-2.9c0-0.3,0.2-0.5,0.5-0.5h6.1v-3.6h-7.4c-0.3,0-0.5-0.2-0.5-0.5
		V252c0-0.3,0.2-0.5,0.5-0.5h11c0.3,0,0.5,0.2,0.5,0.5V269.6z"/>
	<path display="inline" fill="#FFFFFF" d="M394.6,269.9c0,0.3-0.2,0.5-0.5,0.5h-0.7l-10.6-10.2h0v9.4c0,0.3-0.2,0.5-0.5,0.5h-3.2
		c-0.3,0-0.5-0.2-0.5-0.5v-17.9c0-0.3,0.2-0.5,0.5-0.5h0.4c0.1,0,0.3,0.1,0.3,0.1l10.5,10.6h0v-9.9c0-0.3,0.2-0.5,0.5-0.5h3.2
		c0.3,0,0.5,0.2,0.5,0.5L394.6,269.9z"/>
	<path display="inline" fill="#FFFFFF" d="M368.1,266.2h3.8c0.3,0,0.5,0.2,0.5,0.5v2.9c0,0.3-0.2,0.5-0.5,0.5h-11.8
		c-0.3,0-0.5-0.2-0.5-0.5v-2.9c0-0.3,0.2-0.5,0.5-0.5h3.8V252c0-0.3,0.2-0.5,0.5-0.5h3.2c0.3,0,0.5,0.2,0.5,0.5V266.2z"/>
	<path display="inline" fill="#FFFFFF" d="M353.5,269.6c0,0.3-0.2,0.5-0.5,0.5h-8c-3.2,0-5.8-2.6-5.8-5.7c0-2.4,1.6-4.4,3.9-5.3
		l-3.6-6.7c-0.2-0.4,0-0.8,0.5-0.8h3.5c0.2,0,0.4,0.1,0.4,0.2l3.5,7.1h1.8V252c0-0.3,0.2-0.5,0.5-0.5h3.2c0.3,0,0.5,0.2,0.5,0.5
		V269.6z M345.4,262.1c-1.1,0-2,1-2,2.1c0,1.1,0.9,2,2,2h3.9v-4.2H345.4z"/>
	<path display="inline" fill="#FFFFFF" d="M334.6,252.1l-8.3,17.9c-0.1,0.2-0.3,0.3-0.5,0.3h-0.3c-0.2,0-0.4-0.1-0.5-0.3l-8.3-17.9
		c-0.2-0.4,0.1-0.7,0.5-0.7h2.9c0.5,0,0.7,0.2,0.9,0.7l1,2.1h7.2l1-2.1c0.1-0.3,0.4-0.6,1-0.6h2.9
		C334.6,251.5,334.8,251.8,334.6,252.1 M323.7,257.8l2,4.4h0l2-4.4H323.7z"/>
	<path display="inline" fill="#FFFFFF" d="M311.2,269.6c0,0.3-0.2,0.5-0.5,0.5h-3.2c-0.3,0-0.5-0.2-0.5-0.5v-14.2h-6.3
		c-0.3,0-0.5-0.2-0.5-0.5V252c0-0.3,0.2-0.5,0.5-0.5h10c0.3,0,0.5,0.2,0.5,0.5V269.6z"/>
	<path display="inline" fill="#F95C52" d="M381.6,198.5c0,0.1,0.1,0.1,0.1,0.1h0.2c0.1,0,0.1-0.1,0.1-0.1v-3.7h1
		c0.1,0,0.1-0.1,0.1-0.1v-0.2c0-0.1,0-0.1-0.1-0.1h-2.5c-0.1,0-0.1,0.1-0.1,0.1v0.2c0,0.1,0,0.1,0.1,0.1h1V198.5z M383.4,198.5
		c0,0.1,0,0.1,0.1,0.1h0.2c0,0,0.1,0,0.1-0.1l0.5-3.1h0l1.1,3.1c0,0,0.1,0.1,0.1,0.1h0.1c0,0,0.1,0,0.1-0.1l1.1-3.1h0l0.5,3.1
		c0,0,0.1,0.1,0.1,0.1h0.2c0.1,0,0.1-0.1,0.1-0.1l-0.8-4c0-0.1-0.1-0.1-0.1-0.1H387c0,0-0.1,0-0.1,0.1l-1.2,3.3h0l-1.2-3.3
		c0,0-0.1-0.1-0.1-0.1h-0.1c0,0-0.1,0-0.1,0.1L383.4,198.5z"/>
</g>
<g id="comedy_-_yellow" display="none">
	<path display="inline" fill="#B6BD00" d="M297.8,229.3c-36.6,0-70.2-20-87.6-52.2l18-9.8c13.9,25.6,40.6,41.5,69.6,41.5
		c43.6,0,79.1-35.5,79.1-79.1c0-43.6-35.5-79.1-79.1-79.1c-28.7,0-55.2,15.6-69.2,40.7l-17.9-9.9c17.6-31.6,51-51.3,87.1-51.3
		c54.9,0,99.6,44.7,99.6,99.6C397.4,184.6,352.8,229.3,297.8,229.3"/>
	<path display="inline" fill="#B6BD00" d="M297.7,179c-27.2,0-49.3-22.1-49.3-49.3c0-27.2,22.1-49.3,49.3-49.3
		c17.8,0,34.3,9.7,43,25.2l-17.9,10c-5.1-9.1-14.7-14.8-25.2-14.8c-15.9,0-28.8,12.9-28.8,28.8c0,15.9,12.9,28.8,28.8,28.8
		c10.6,0,20.4-5.8,25.4-15.2l18,9.7C332.5,169,315.9,179,297.7,179"/>
	<path display="inline" fill="#FFFFFF" d="M174.1,251.8c2.6,0,4.6,0.8,6.4,2.5c0.2,0.2,0.2,0.5,0,0.7l-2.1,2.2
		c-0.2,0.2-0.5,0.2-0.7,0c-1-0.9-2.3-1.4-3.6-1.4c-3,0-5.2,2.5-5.2,5.5c0,2.9,2.2,5.4,5.2,5.4c1.2,0,2.6-0.5,3.6-1.3
		c0.2-0.2,0.5-0.2,0.7,0l2.1,2.2c0.2,0.2,0.2,0.5,0,0.7c-1.8,1.8-4.1,2.6-6.4,2.6c-5.3,0-9.6-4.2-9.6-9.5
		C164.5,256.1,168.8,251.8,174.1,251.8"/>
	<path display="inline" fill="#FFFFFF" d="M195.2,251.8c5.3,0,9.6,4.3,9.6,9.6c0,5.3-4.2,9.5-9.6,9.5c-5.3,0-9.5-4.2-9.5-9.5
		C185.7,256.1,189.9,251.8,195.2,251.8 M195.2,266.7c2.9,0,5.3-2.4,5.3-5.3c0-2.9-2.4-5.3-5.3-5.3c-2.9,0-5.3,2.4-5.3,5.3
		C190,264.3,192.4,266.7,195.2,266.7"/>
	<path display="inline" fill="#FFFFFF" d="M213.3,252.2c0-0.2,0.3-0.4,0.5-0.4h0.4c0.1,0,0.4,0.1,0.4,0.3l6.2,11.5h0.1l6.2-11.5
		c0.1-0.2,0.3-0.3,0.4-0.3h0.4c0.2,0,0.4,0.2,0.5,0.4l3,17.8c0.1,0.4-0.2,0.6-0.5,0.6h-3.1c-0.2,0-0.5-0.2-0.5-0.4L226,262h0
		l-4.5,8.6c-0.1,0.2-0.3,0.3-0.5,0.3h-0.5c-0.2,0-0.4-0.1-0.5-0.3l-4.5-8.6h0l-1.2,8.2c0,0.2-0.2,0.4-0.5,0.4h-3.1
		c-0.3,0-0.6-0.2-0.5-0.6L213.3,252.2z"/>
	<path display="inline" fill="#FFFFFF" d="M238.2,252.6c0-0.3,0.2-0.5,0.5-0.5h11c0.3,0,0.5,0.2,0.5,0.5v2.9c0,0.3-0.2,0.5-0.5,0.5
		h-7.4v3.3h6.1c0.3,0,0.5,0.2,0.5,0.5v2.9c0,0.3-0.2,0.5-0.5,0.5h-6.1v3.6h7.4c0.3,0,0.5,0.2,0.5,0.5v2.9c0,0.3-0.2,0.5-0.5,0.5h-11
		c-0.3,0-0.5-0.2-0.5-0.5V252.6z"/>
	<path display="inline" fill="#FFFFFF" d="M257.3,252.6c0-0.3,0.2-0.5,0.5-0.5h6.5c5.1,0,9.3,4.2,9.3,9.3c0,5.1-4.2,9.3-9.3,9.3
		h-6.5c-0.3,0-0.5-0.2-0.5-0.5V252.6z M264,266.7c3,0,5.2-2.4,5.2-5.4c0-3-2.2-5.4-5.2-5.4h-2.5v10.8H264z"/>
	<path display="inline" fill="#FFFFFF" d="M283.3,261.7l-5.9-8.9c-0.2-0.4,0-0.8,0.4-0.8h3.5c0.2,0,0.3,0.1,0.4,0.2l3.7,5.4l3.7-5.4
		c0.1-0.1,0.2-0.2,0.4-0.2h3.5c0.4,0,0.6,0.4,0.4,0.8l-5.9,8.8v8.5c0,0.3-0.2,0.5-0.5,0.5h-3.2c-0.3,0-0.5-0.2-0.5-0.5V261.7z"/>
	<path display="inline" fill="#FFFFFF" d="M427.8,270.9c-2.7,0-4.6-0.8-6.4-2.5c-0.2-0.2-0.2-0.5,0-0.7l2.1-2.2
		c0.2-0.2,0.5-0.2,0.7,0c1,0.9,2.3,1.4,3.6,1.4c3,0,5.2-2.5,5.2-5.5c0-2.9-2.2-5.4-5.2-5.4c-1.2,0-2.6,0.4-3.6,1.3
		c-0.2,0.2-0.5,0.2-0.7,0l-2.1-2.2c-0.2-0.2-0.2-0.5,0-0.7c1.8-1.7,4.1-2.6,6.4-2.6c5.3,0,9.6,4.2,9.6,9.5
		C437.3,266.7,433.1,270.9,427.8,270.9"/>
	<path display="inline" fill="#FFFFFF" d="M414.7,270.2c0,0.3-0.2,0.5-0.5,0.5h-11c-0.3,0-0.5-0.2-0.5-0.5v-2.9
		c0-0.3,0.2-0.5,0.5-0.5h7.4v-3.3h-6.1c-0.3,0-0.5-0.2-0.5-0.5v-2.9c0-0.3,0.2-0.5,0.5-0.5h6.1V256h-7.4c-0.3,0-0.5-0.2-0.5-0.5
		v-2.9c0-0.3,0.2-0.5,0.5-0.5h11c0.3,0,0.5,0.2,0.5,0.5V270.2z"/>
	<path display="inline" fill="#FFFFFF" d="M395.7,270.4c0,0.3-0.2,0.5-0.5,0.5h-0.7l-10.6-10.2h0v9.4c0,0.3-0.2,0.5-0.5,0.5h-3.2
		c-0.3,0-0.5-0.2-0.5-0.5v-17.9c0-0.3,0.2-0.5,0.5-0.5h0.4c0.1,0,0.3,0.1,0.3,0.1l10.5,10.5h0v-9.9c0-0.3,0.2-0.5,0.5-0.5h3.2
		c0.3,0,0.5,0.2,0.5,0.5L395.7,270.4z"/>
	<path display="inline" fill="#FFFFFF" d="M369.3,266.8h3.8c0.3,0,0.5,0.2,0.5,0.5v2.9c0,0.3-0.2,0.5-0.5,0.5h-11.8
		c-0.3,0-0.5-0.2-0.5-0.5v-2.9c0-0.3,0.2-0.5,0.5-0.5h3.8v-14.2c0-0.3,0.2-0.5,0.5-0.5h3.2c0.3,0,0.5,0.2,0.5,0.5V266.8z"/>
	<path display="inline" fill="#FFFFFF" d="M354.7,270.2c0,0.3-0.2,0.5-0.5,0.5h-7.9c-3.2,0-5.8-2.6-5.8-5.7c0-2.4,1.6-4.4,3.9-5.3
		l-3.6-6.7c-0.2-0.4,0-0.8,0.5-0.8h3.5c0.2,0,0.4,0.1,0.4,0.2l3.5,7h1.8v-6.8c0-0.3,0.2-0.5,0.5-0.5h3.2c0.3,0,0.5,0.2,0.5,0.5
		V270.2z M346.6,262.7c-1.1,0-2,1-2,2.1c0,1.1,0.9,2,2,2h3.9v-4.1H346.6z"/>
	<path display="inline" fill="#FFFFFF" d="M335.8,252.8l-8.3,17.9c-0.1,0.2-0.3,0.3-0.5,0.3h-0.3c-0.2,0-0.4-0.1-0.5-0.3l-8.3-17.9
		c-0.2-0.4,0.1-0.7,0.4-0.7h2.9c0.5,0,0.7,0.2,0.9,0.7l1,2.1h7.2l1-2.1c0.1-0.3,0.4-0.6,1-0.6h2.9
		C335.8,252.1,336,252.4,335.8,252.8 M324.9,258.4l2,4.4h0l2-4.4H324.9z"/>
	<path display="inline" fill="#FFFFFF" d="M312.4,270.2c0,0.3-0.2,0.5-0.5,0.5h-3.2c-0.3,0-0.5-0.2-0.5-0.5V256h-6.3
		c-0.3,0-0.5-0.2-0.5-0.5v-2.9c0-0.3,0.2-0.5,0.5-0.5h10c0.3,0,0.5,0.2,0.5,0.5V270.2z"/>
	<path display="inline" fill="#B6BD00" d="M382.7,199.2c0,0.1,0.1,0.1,0.1,0.1h0.2c0.1,0,0.1-0.1,0.1-0.1v-3.7h1
		c0.1,0,0.1-0.1,0.1-0.1v-0.2c0-0.1,0-0.1-0.1-0.1h-2.5c-0.1,0-0.1,0.1-0.1,0.1v0.2c0,0.1,0,0.1,0.1,0.1h1V199.2z M384.5,199.2
		c0,0.1,0,0.1,0.1,0.1h0.2c0,0,0.1,0,0.1-0.1l0.5-3.1h0l1.1,3.1c0,0,0.1,0.1,0.1,0.1h0.1c0,0,0.1,0,0.1-0.1l1.1-3.1h0l0.5,3.1
		c0,0,0.1,0.1,0.1,0.1h0.2c0.1,0,0.1-0.1,0.1-0.1l-0.8-4c0-0.1-0.1-0.1-0.1-0.1h-0.1c0,0-0.1,0-0.1,0.1l-1.2,3.3h0l-1.2-3.3
		c0,0-0.1-0.1-0.1-0.1h-0.1c0,0-0.1,0-0.1,0.1L384.5,199.2z"/>
</g>
<g id="bet_-_white">
	<path fill="#FFFFFF" d="M541.9,124h-60.5l-18.6-58.6L444.2,124h-60.6l49.1,35.1l-18.8,57.1l48.9-35.4l48.9,35.4l-18.8-57.1
		L541.9,124z M440.3,65.3H258.8c-16.5,0-26.5,2.3-34.7,7.2C217.4,76.8,211,82.7,206,90c-3.4,4.8-6.2,9.8-8.3,15.1c0-0.1,0-0.1,0-0.2
		c0-19.7-12.7-35.6-30.6-38.3c-4.8-0.7-12.7-1.4-18.6-1.4H63.2v151.1h83.6c21.7,0,31.3-2.5,39.4-10c7.5-6.8,11.3-17.4,11.3-29.9
		c0-0.3,0-0.7,0-1c6.2,17.7,17.3,30.5,31.7,35.7c10.2,3.6,23.3,5.2,42.1,5.2H306v-38.8h-25.1c-30.2-0.1-40.1,2.7-45.3-19.3H306
		v-34.1l-70.5,0c0,0,3.5-20,24.4-20c6.2,0,10.3,0,21.2,0h48.2v112.3h43.8V104.1h55.1L440.3,65.3z M100.2,104.2h47.3
		c11.7,0,11.1,9.8,11.1,9.8c0,10.3-11.2,9.8-11.2,9.8h-47.3V104.2z M158.8,167.8c0,10.3-11.2,9.8-11.2,9.8h-47.3V158h47.3
		C159.4,158,158.8,167.8,158.8,167.8z M175.7,140.9c7-2.9,13-8.8,16.9-16.2c-0.6,4.6-0.9,9.5-0.9,14.8c0,5.9,0.4,11.5,1.2,16.9
		C189.3,149.8,183.6,144.5,175.7,140.9z"/>
</g>
</svg>
