<?xml version="1.0" encoding="utf-8"?>
<!-- Generator: Adobe Illustrator 18.1.0, SVG Export Plug-In . SVG Version: 6.00 Build 0)  -->
<svg version="1.1" id="Layer_2" xmlns="http://www.w3.org/2000/svg" xmlns:xlink="http://www.w3.org/1999/xlink" x="0px" y="0px"
	 viewBox="5429 -3870 11088 7776" enable-background="new 5429 -3870 11088 7776" xml:space="preserve">
<path fill="#FFFFFF" d="M15343.6-1962.2l-1136.8,1.7l-351-1099.4l-347.4,1100.5l-1137.1,1.8l922.6,657.6l-352.2,1072.4l917.4-666.4
	l919.7,663.6l-355.5-1071.3L15343.6-1962.2z M13433.5-3060.8l-3407.4,5.3c-310.6,0.5-497.6,43.3-650.5,137.2
	c-127.6,81-246.5,191.7-339.9,328.1c-64.5,91-115.8,184.5-156,283.8c0-1,0-2.1,0-2.9c-0.6-370-239.3-667.5-575.4-718
	c-89.3-12.6-238.1-25.1-348.7-25l-1603.6,2.5l4.4,2837.1l1569.5-2.4c408.4-0.7,587-47.7,739.9-188.3
	c140.1-127.9,212-328,211.7-561.9c0-6.3-0.3-12.6-0.4-18.9c117.5,332.4,325.7,573,596,669c191.4,67.7,438.3,97.1,791.2,96.6l652.5-1
	l-1.1-729l-470.9,0.8c-566.5-0.3-752,51.1-851.5-361.6l1321.8-2l-1-640.5l-1323.3,1c0,0,65.7-374.9,458.1-375.6
	c115.9-0.1,193.3-0.3,397.4-0.6l905.3-1.4l3.3,2108.1l822.4-1.3l-3.3-2108.1l1033.8-1.6L13433.5-3060.8z M7049.3-2319.7l889-1.4
	c219.8-0.3,209.2,184.2,209.2,184.2c0.3,192.8-209.6,185.3-209.6,185.3l-888,1.4L7049.3-2319.7z M8150.8-1127.1
	c0.3,192.7-209.5,185.3-209.5,185.3l-888.3,1.4l-0.6-369.6l889.1-1.4C8161.5-1311.7,8150.8-1127.1,8150.8-1127.1z M8468.2-1632.4
	c131.4-54.3,243.5-165.8,317.2-304.1c-11.2,87.2-16.4,179.3-16.2,278.1c0.2,110.3,7.7,216.1,22.2,317.1
	C8723.5-1467.3,8616-1565.7,8468.2-1632.4z"/>
<path fill="#FFFFFF" d="M7557.4,983c455.3-0.7,817.7,372.3,818.4,815.9c0.7,451.4-364.5,837.1-815.9,837.8l-1077.9,1.7l-0.9-572
	l1015.6-1.6c151.8-0.2,276.1-109.4,275.9-261.1c-0.2-151.7-125-260.4-276.7-260.2l-350.2,0.5c-447.4,0.7-802.1-380.1-802.8-823.7
	c-0.7-439.6,352.9-806,800.3-806.7l906.6-1.4l0.9,556.4l-863.8,1.3c-144,0.2-256.6,113.3-256.4,257.2s113.3,256.7,257.2,256.5
	L7557.4,983z"/>
<path fill="#FFFFFF" d="M12173.2-93.8l2.8,1821c0.3,210.1,175.7,384.9,389.7,384.6c214-0.3,388.9-175.7,388.5-385.8L12951.5-95
	l579.8-0.9l2.8,1821.1c0.8,533.1-430.4,954-971.3,954.8c-540.9,0.8-965.6-418.7-966.4-951.8l-2.8-1821L12173.2-93.8z"/>
<path fill="#FFFFFF" d="M13654.5-96.2l583.6-0.9l3.4,2179l1027.2-1.6l0.8,544.8l-1610.9,2.5L13654.5-96.2z"/>
<path fill="#231F20" stroke="#231F20" stroke-width="8" stroke-miterlimit="10" d="M10038.2,2162.1c-470,0.8-853.2-370.2-854-840.2
	c-0.7-470,381.4-842.1,851.4-842.8c470-0.7,853.2,370.2,853.9,840.2C10890.3,1789.2,10508.2,2161.4,10038.2,2162.1z M10035.7,523.9
	c-445.3,0.7-807.4,352.6-806.7,798c0.7,445.4,363.8,796.1,809.1,795.4c445.4-0.7,807.3-352.6,806.7-797.9
	C10844.2,874,10481,523.2,10035.7,523.9z"/>
<path opacity="0.8" fill="#6D6E70" stroke="#6D6E70" stroke-width="11" stroke-miterlimit="10" d="M9986.2,2715.8
	c-764.9,1.2-1388.8-602.6-1390-1367.6C8595,583.3,9217-22.3,9982-23.5c764.9-1.2,1388.8,602.5,1390,1367.5
	C11373.1,2108.9,10751.2,2714.6,9986.2,2715.8z M9982.1,49.3c-724.9,1.1-1314.1,574-1313,1298.9
	c1.1,724.9,592.1,1295.9,1317.1,1294.7c724.9-1.1,1314.1-573.9,1313-1298.8C11298,619.2,10706.9,48.2,9982.1,49.3z"/>
<path opacity="0.8" fill="#58595B" stroke="#58595B" stroke-width="7" stroke-miterlimit="10" d="M9930.8,2721.4
	c-766.8,1.2-1392.2-604.1-1393.4-1371c-1.2-766.9,622.3-1374,1389.1-1375.2c766.9-1.2,1392.2,604,1393.4,1370.9
	C11321.1,2113,10697.7,2720.1,9930.8,2721.4z M9926.7,48.3c-726.7,1.1-1317.4,575.4-1316.3,1302
	c1.1,726.7,593.6,1299.1,1320.3,1297.9c726.7-1.1,1317.4-575.3,1316.2-1302C11245.9,619.5,10653.3,47.1,9926.7,48.3z"/>
<path opacity="0.9" fill="#652D90" stroke="#58595B" stroke-width="12" stroke-miterlimit="10" d="M9931.5,2510.3
	c-658.9,1-1196.3-519-1197.3-1177.9c-1-658.9,534.7-1180.6,1193.7-1181.6c659-1,1196.3,519,1197.3,1177.9
	C11126.2,1987.6,10590.5,2509.3,9931.5,2510.3z M9927.9,213.5c-624.4,1-1131.9,494.4-1131,1118.8c1,624.4,510,1116.2,1134.4,1115.2
	c624.4-1,1132-494.4,1131-1118.8C11061.5,704.4,10552.4,212.5,9927.9,213.5z"/>
<path opacity="0.8" fill="#2B388F" stroke="#BBBDBF" stroke-width="7" stroke-miterlimit="10" d="M9852.8,2628.2
	c-746.2,1.1-1354.8-587.8-1356-1334.1C8495.7,547.8,9102.5-43,9848.7-44.1c746.3-1.2,1354.8,587.8,1356,1334
	C11205.8,2036.1,10599.1,2627,9852.8,2628.2z M9848.8,26.9C9141.7,28,8566.8,586.8,8567.9,1294
	c1.1,707.2,577.7,1264.2,1284.8,1263.1c707.2-1.1,1282-559.9,1280.9-1267C11132.5,582.8,10555.9,25.8,9848.8,26.9z"/>
<path fill="#D6DE23" stroke="#929497" stroke-width="8" stroke-miterlimit="10" d="M9979.5,2277.2
	c-535.6,0.9-972.4-421.9-973.3-957.5c-0.8-535.6,434.7-959.7,970.3-960.5c535.6-0.9,972.4,421.9,973.2,957.5
	C10950.5,1852.3,10515.1,2276.4,9979.5,2277.2z M9976.6,410.2c-507.5,0.8-920.1,401.9-919.3,909.5
	c0.8,507.6,414.6,907.3,922.1,906.5c507.6-0.8,920.1-401.9,919.3-909.4C10897.9,809.2,10484.2,409.4,9976.6,410.2z"/>
<path fill="#231F20" stroke="#FFFFFF" stroke-width="4" stroke-miterlimit="10" d="M9986.2,2696.6
	c-766.8,1.2-1392.2-604-1393.4-1370.9C8591.6,558.9,9215.1-48.2,9982-49.4c766.9-1.2,1392.2,604,1393.4,1370.8
	C11376.6,2088.3,10753.1,2695.4,9986.2,2696.6z M9982.1,23.6c-726.7,1.1-1317.4,575.3-1316.3,1302
	c1.1,726.7,593.6,1299,1320.3,1297.9c726.7-1.1,1317.4-575.3,1316.3-1302C11301.2,594.9,10708.8,22.4,9982.1,23.6z"/>
</svg>
