<?xml version="1.0" encoding="utf-8"?>
<!-- Generator: Adobe Illustrator 18.1.0, SVG Export Plug-In . SVG Version: 6.00 Build 0)  -->
<svg version="1.1" id="Layer_2_1_" xmlns="http://www.w3.org/2000/svg" xmlns:xlink="http://www.w3.org/1999/xlink" x="0px" y="0px"
	 viewBox="5429 -3870 11088 7776" enable-background="new 5429 -3870 11088 7776" xml:space="preserve">
<g id="CMT_MUSIC_3_">
	<path id="MUSIC_3_" fill="#FFFFFF" d="M10394.6-814h161.6l348.5,977.2l131.3,368.7h10.1l128.8-368.7l345.9-977.2h164.1V850h-113.6
		V-243.3c0-136.4,7.6-310.6,15.1-449.5h-10.1l-128.8,366.1L11089,668.2h-101l-358.6-994.9l-131.3-366.1h-10.1
		c5,138.9,12.6,313.1,12.6,449.5V850h-106.1V-814z M11998-814h116.1V198.5c0,441.9,209.6,575.7,444.4,575.7
		c239.9,0,452-133.8,452-575.7V-814h111.1V211.2c0,520.2-277.8,669.1-563.1,669.1c-287.9,0-560.6-149-560.6-669.1V-814z
		 M13411.9,549.5c121.2,136.4,295.4,224.7,489.9,224.7c252.5,0,414.1-136.3,414.1-333.3c0-207.1-136.4-275.3-300.5-348.5
		l-252.5-113.6c-143.9-63.1-335.8-166.6-335.8-414.1c0-239.9,207.1-409.1,482.3-409.1c202,0,363.6,90.9,464.6,199.5l-68.2,78.3
		c-96-103.5-229.8-171.7-396.4-171.7c-219.7,0-366.1,116.2-366.1,298c0,191.9,166.6,265.1,287.9,320.7l252.5,111.1
		c184.3,83.3,348.5,186.9,348.5,441.9c0,255-209.6,446.9-532.8,446.9c-242.4,0-429.3-103.5-560.6-250L13411.9,549.5z M14704.7-814
		h116.2V850h-116.2V-814z M15775.3-844.3c194.4,0,343.4,96,431.8,199.5l-68.2,75.8c-90.9-101-212.1-169.2-363.6-169.2
		c-363.6,0-590.9,290.4-590.9,752.5c0,462.1,224.7,760,580.8,760c171.7,0,300.5-68.2,421.7-204.5l68.2,73.2
		c-126.3,146.5-277.8,237.4-494.9,237.4c-409.1,0-696.9-335.8-696.9-866.1C15063.2-513.5,15351.1-844.3,15775.3-844.3z"/>
	<path id="CMT_25_" fill="#FFFFFF" d="M10029.6-813.9v533.6h-193.4v-36.9c0-140.1-37.7-289.9-143.2-289.9
		c-66.7,0-99.1,73-99.1,223.3v868.2c0,117.6,23.9,171.8,79.9,181.5l0.9,0.2l53.7,15.8v168.4h-609.2V681.7l11.8-3.1
		c0,0,45.5-12.2,47-12.6c53.5-9.6,77.3-65.7,77.3-181.5v-868.2c0-150.3-32.5-223.3-99.2-223.3c-105.3,0-143,149.8-143,289.9v36.9
		h-193.4v-533.6H10029.6z M8151.7-813.9c0,0-242.7,760.6-268.9,843.7C7855-53,7600.9-813.9,7600.9-813.9h-605.1v168.6l57.3,15.5
		c48,8.8,76,76.6,76,181.9v932.3c0,115.8-23,171.9-74.8,181.5c-1.2,0.4-46.7,12.6-46.7,12.6l-11.7,3.1v168.6h491V680.9l-72.9-14.8
		c-54.6-11.8-77.9-66.2-77.9-181.7c0,0,0-717.7,0-851.9c45.2,133.4,410.5,1216,410.5,1216h91.1c0,0,370.5-1084.9,415.5-1216.9
		c0,133,0,852.8,0,852.8c0,115.5-23.3,169.9-77.8,181.7c0.2,0-60.1,12.2-60.1,12.2l-12.6,2.6v169.5h623.9V681.8l-55.9-15.5
		c-54.9-9.9-78.7-66.1-78.7-181.9v-932.3c0-105.3,27.8-173.2,74.6-181.7c1.3-0.3,45.5-12.6,45.5-12.6l11.6-3.2v-168.5H8151.7z
		 M5690.9-255.5v488.3c0,291.6,160.6,632.3,613.1,632.3c420.1,0,569.3-292.8,569.3-543.4v-16h-313.9v16c0,244.7-76.2,354-247.2,354
		c-198.4,0-219.7-225.3-219.7-322v-735c0-175.9,74.8-257.9,235.5-257.9c199.3,0,231.5,101.4,231.5,343.9v15.9h313.9v-541.9h-218
		v15.8c0,63-15.6,63-27.9,63c-26.9,0-76.9-16.1-124.4-40.1c-73.8-33.2-146.4-48.6-229.1-48.6
		C5925.2-831.1,5690.9-533.5,5690.9-255.5z"/>
</g>
</svg>
