<?xml version="1.0" encoding="utf-8"?>
<!-- Generator: Adobe Illustrator 18.1.0, SVG Export Plug-In . SVG Version: 6.00 Build 0)  -->
<svg version="1.1" id="Layer_1" xmlns="http://www.w3.org/2000/svg" xmlns:xlink="http://www.w3.org/1999/xlink" x="0px" y="0px"
	 viewBox="0 0 520 550" enable-background="new 0 0 520 550" xml:space="preserve">
<g>
	<path fill="#FFFFFF" d="M254.3,431.8c-5,0-10.1-0.8-14.1-2.4L62.1,358.3c-8.7-3.5-15.6-13.6-15.6-23V205.2c0-9.4,6.9-19.5,15.6-23
		l178-70.7c7.9-3.1,19.9-3.1,27.8,0l178,70.7c8.8,3.5,15.6,13.6,15.6,23V337c0,9.4-6.9,19.5-15.7,22.9l-178,69.5
		C264.1,431,259.2,431.8,254.3,431.8z M254.1,122.2c-3.4,0-6.8,0.5-9.1,1.4l-178,70.7c-3.9,1.5-7.5,6.8-7.5,11v130.1
		c0,4.2,3.6,9.4,7.5,11L245,417.4c4.8,1.9,13.5,1.9,18.3,0.1l178-69.5c3.9-1.5,7.4-6.7,7.4-10.9V205.2c0-4.2-3.6-9.4-7.5-11
		l-178-70.7C260.9,122.6,257.5,122.2,254.1,122.2z"/>
	<g>
		<g>
			<path fill="#FFFFFF" d="M182.5,210.9h-0.3l0,0l0,0h-12c-0.9,0-1.6,0.7-1.7,1.6v2.3c0,0.8-0.5,1.4-1.2,1.6c-0.1,0-0.3,0.1-0.4,0.1
				c-0.1,0-0.4,0-0.8,0c-1.3-0.1-6-2-8.2-2.9c-4.8-2-10.5-3.4-16.4-3.4c-24.8,0-41.5,21.2-41.5,41v34.7c0,20.7,11.4,45,43.6,45
				c29.5,0,40.2-20.3,40.5-38c0,0,0-0.1,0-0.1v-0.5c0,0,0,0,0,0c0,0,0,0,0,0l0,0c0-0.7-0.6-1.2-1.3-1.2h-0.8l0,0h-18.6l0,0H163
				c-0.7,0-1.2,0.5-1.3,1.2l0,0c0,0,0,0,0,0c0,0,0,0,0,0v0.3c-0.1,17.1-5.5,24.7-17.4,24.7c-14,0-15.5-15.9-15.5-22.7v-52.2
				c0-12.4,5.8-18.2,16.6-18.2c11,0,16.3,5.8,16.3,22.4v1.5c0,0.9,0.7,1.7,1.7,1.7h0.6l0,0h17.8l0,0h0.7c0.9,0,1.7-0.7,1.7-1.7v-0.8
				v-8.3v-17.1v-8.5v-0.6C184.2,211.6,183.4,210.9,182.5,210.9z"/>
		</g>
		<path fill="#FFFFFF" d="M314.1,211.4h-0.7h-6.7h-23.5H276h-0.1c-0.7,0-1.3,0.5-1.6,1.2l0,0l-18.6,58.5l-19.5-58.5l0,0
			c-0.2-0.6-0.8-1.1-1.5-1.1h-0.1h-7.1h-25.9h-7.3h-0.1c-0.9,0-1.7,0.7-1.7,1.7v0.2v8.6v0.4c0,0.7,0.5,1.3,1.1,1.5l0,0l3.1,0.8
			c2.2,0.6,5.4,1.4,5.4,12.8v66.2c0,11.4-3.3,12.3-5.4,12.9l-3,0.8c-0.7,0.2-1.2,0.8-1.2,1.6v0.1v9v0.1c0,0.9,0.7,1.7,1.7,1.7h0.1
			h7.1h17.4h6.8h0.5c0.9,0,1.7-0.7,1.7-1.7v-9.2c0-0.8-0.6-1.4-1.3-1.6c0,0-1.9-0.3-4-0.8c-2.2-0.6-5.4-1.5-5.4-12.8v-59.9
			l28.6,84.7l0,0c0.2,0.6,0.8,1.1,1.5,1.1h4.2c0.7,0,1.3-0.5,1.5-1.1l0,0l29-84.8v59.9c0,11.4-3.2,12.2-5.4,12.8
			c-2.3,0.6-4,0.9-4,0.9c-0.7,0.2-1.3,0.8-1.3,1.6v0.2l0,0v8.4l0,0v0.6c0,0.9,0.7,1.7,1.7,1.7h0.5h6.8h26.5h6.7h0.7
			c0.9,0,1.7-0.7,1.7-1.7v-1v-7.5v-0.8c0-0.7-0.5-1.4-1.2-1.6l-3.1-0.8c-2.2-0.6-5.3-1.5-5.3-12.8v-66.2c0-11.4,3.3-12.2,5.4-12.8
			l3.1-0.8l0,0c0.7-0.2,1.2-0.8,1.2-1.6v-1.1v-7.6v-0.5C315.8,212.2,315,211.4,314.1,211.4z"/>
		<path fill="#FFFFFF" d="M406.5,211.4h-1.3h-9.3h-61.6h-9.5h-1.1c-0.9,0-1.7,0.7-1.7,1.7v1.6v2.2v27.2v3.3v0.4
			c0,0.9,0.7,1.7,1.7,1.7h10.6c0.9,0,1.7-0.7,1.7-1.7v-1.4c0.1-9.8,2.7-20.1,10-20.1c4.7,0,6.9,5.2,6.9,15.8v61.6
			c0,11.4-3.3,12.2-5.4,12.8l-3,0.8l0,0c-0.7,0.2-1.2,0.8-1.2,1.6v1l0,0v6.9l0,0v1.3c0,0.9,0.7,1.7,1.7,1.7h1.2h6.2h25.5h6h1.4
			c0.9,0,1.7-0.7,1.7-1.7v-9.3c0-0.8-0.5-1.4-1.3-1.6l0,0l-3-0.8c-2.2-0.6-5.4-1.4-5.4-12.8v-61.6c0-10.6,2.3-15.8,6.9-15.8
			c7.4,0,10.1,10.6,10.1,20.5v0.8l0,0v0.2c0,0.9,0.7,1.7,1.7,1.7h10.6c0.9,0,1.7-0.7,1.7-1.7v-0.6v-3.1v-27.2V215v-1.9
			C408.2,212.2,407.5,211.4,406.5,211.4z"/>
	</g>
</g>
<g id="tv_land_-_red" display="none">
	<g display="inline">
		<polygon fill="#DC4643" points="209.9,218.3 212.2,199.9 47.4,212.1 29.7,343.6 140.2,335.8 190.1,332.1 137.5,357.2 476,333.3 
			493.1,198.1 		"/>
		<polygon fill="#FFFFFF" points="140.2,335.8 137.5,357.2 190.1,332.1 		"/>
		<g>
			<g>
				<path fill="#FFFFFF" d="M208.4,329.9l13.3-94.6l21.9-1.6L233,309.4l26.7-1.9l-2.7,18.9L208.4,329.9z"/>
				<path fill="#FFFFFF" d="M262,326l33.6-96.1l26.3-1.8l7,93.3l-22.1,1.6l-0.5-18.2l-17.2,1.2l-5.2,18.6L262,326z M306.4,246.2
					h-0.3L293.8,289l12.7-0.9L306.4,246.2z"/>
				<path fill="#FFFFFF" d="M359.9,266.7l-0.3,0.3l-5.4,52.6l-20.8,1.5l13.3-94.6l22.5-1.6l9.5,51.7h0.3l5.3-52.7l20.8-1.5
					L392,316.9l-22.4,1.6L359.9,266.7z"/>
				<path fill="#FFFFFF" d="M398.7,316.4l13.3-94.6l23.7-1.6c8-0.5,17.5-1,24,2.7c7.7,4.4,7.8,13.6,6.6,22.6l-5.9,42
					c-1.5,9.4-5.3,16.6-12.2,21.1c-6.2,4.2-13.3,5.3-20,5.8L398.7,316.4z M422.9,297.8c14.6,0,15.5-6.1,16.9-18.7l4.3-30.9
					c1.4-11.1-2.1-11.4-12.7-11L422.9,297.8z"/>
			</g>
			<path fill="#FFFFFF" d="M62.7,229.3l56.7-4l-2.7,18.9l-17.7,1.2l-10.6,75.7l-21.9,1.6L77.1,247L60,248.2L62.7,229.3z"/>
			<path fill="#FFFFFF" d="M131.2,318.2l-7-93.3l21.9-1.6L148,289h0.3l20.5-67.2l21.9-1.6L157,316.4L131.2,318.2z"/>
		</g>
	</g>
</g>
<g id="tv_land_-_gold" display="none">
	<g display="inline">
		<polygon fill="#F6AF18" points="214.4,222.4 216.5,206.2 71,216.8 55.4,332.9 153,326 197,322.8 150.5,344.9 449.1,323.9 
			464.3,204.5 		"/>
		<g>
			<polygon fill="#FFFFFF" points="153,326 150.5,344.9 197,322.8 			"/>
			<g>
				<g>
					<path fill="#FFFFFF" d="M213,320.8l11.7-83.5l19.3-1.4l-9.4,66.9l23.6-1.6l-2.3,16.7L213,320.8z"/>
					<path fill="#FFFFFF" d="M260.3,317.5l29.6-84.8l23.2-1.6l6.2,82.2l-19.5,1.4l-0.4-16l-15.2,1l-4.6,16.4L260.3,317.5z
						 M299.5,247h-0.3l-10.8,37.8l11.2-0.8L299.5,247z"/>
					<path fill="#FFFFFF" d="M346.8,265l-0.3,0.3l-4.8,46.5l-18.3,1.3l11.7-83.5l19.8-1.4l8.4,45.6h0.3l4.7-46.5l18.3-1.3L375,309.4
						l-19.8,1.4L346.8,265z"/>
					<path fill="#FFFFFF" d="M380.9,308.9l11.7-83.5l21-1.5c7-0.5,15.4-0.9,21.1,2.3c6.8,3.9,6.9,12,5.8,20l-5.2,37.1
						c-1.3,8.3-4.7,14.6-10.7,18.6c-5.5,3.7-11.7,4.7-17.7,5.1L380.9,308.9z M402.3,292.5c12.8,0,13.7-5.4,14.9-16.5l3.8-27.3
						c1.3-9.8-1.8-10.1-11.3-9.7L402.3,292.5z"/>
				</g>
				<path fill="#FFFFFF" d="M84.6,232.1l50-3.6l-2.3,16.7l-15.6,1.1l-9.4,66.7L88,314.5l9.4-66.8l-15.2,1L84.6,232.1z"/>
				<path fill="#FFFFFF" d="M144.9,310.5l-6.2-82.2l19.3-1.4l1.6,57.9h0.3l18-59.3l19.3-1.4l-29.6,84.8L144.9,310.5z"/>
			</g>
		</g>
	</g>
</g>
<g id="tvland_-_seagreen" display="none">
	<g display="inline">
		<polygon fill="#67B9B1" points="215.8,221.8 217.8,205.6 72.3,216.3 56.7,332.5 154.3,325.4 198.3,322.3 151.8,344.3 450.5,323.4 
			465.7,204 		"/>
		<polygon fill="#FFFFFF" points="154.3,325.4 151.8,344.3 198.3,322.3 		"/>
		<g>
			<g>
				<path fill="#FFFFFF" d="M214.4,320.2l11.7-83.5l19.3-1.4l-9.4,66.8l23.6-1.6l-2.3,16.7L214.4,320.2z"/>
				<path fill="#FFFFFF" d="M261.7,316.9l29.6-84.8l23.2-1.6l6.2,82.2l-19.5,1.4l-0.4-16l-15.2,1l-4.6,16.5L261.7,316.9z
					 M300.9,246.5h-0.3l-10.8,37.8l11.2-0.8L300.9,246.5z"/>
				<path fill="#FFFFFF" d="M348.1,264.5l-0.3,0.3l-4.8,46.5l-18.3,1.3l11.7-83.5l19.8-1.4l8.4,45.6h0.3l4.7-46.5l18.3-1.3
					l-11.7,83.5l-19.8,1.4L348.1,264.5z"/>
				<path fill="#FFFFFF" d="M382.3,308.5l11.7-83.5l21-1.5c7-0.5,15.4-0.9,21.1,2.3c6.8,3.9,6.9,12,5.8,20l-5.2,37.1
					c-1.3,8.3-4.7,14.6-10.7,18.6c-5.5,3.7-11.7,4.7-17.7,5.1L382.3,308.5z M403.7,292c12.8,0,13.7-5.4,14.9-16.5l3.8-27.3
					c1.3-9.8-1.8-10.1-11.3-9.7L403.7,292z"/>
			</g>
			<path fill="#FFFFFF" d="M85.9,231.6l50-3.6l-2.3,16.7l-15.6,1.1l-9.4,66.8L89.3,314l9.4-66.8l-15.2,1L85.9,231.6z"/>
			<path fill="#FFFFFF" d="M146.3,310l-6.2-82.2l19.3-1.4l1.6,57.9h0.3l18.1-59.3l19.3-1.4L169,308.4L146.3,310z"/>
		</g>
	</g>
</g>
<g id="spike_-_white" display="none">
	<g display="inline">
		<polygon fill="#FFFFFF" points="450.7,234.1 453.2,234.1 453.2,241.2 455.1,241.2 455.1,234.1 457.6,234.1 457.6,232.4 
			450.7,232.4 		"/>
		<polygon fill="#FFFFFF" points="468.7,232.4 465.8,232.4 463.8,238.1 463.8,238.1 461.8,232.4 458.8,232.4 458.8,241.2 
			460.7,241.2 460.7,234.4 460.7,234.4 463,241.2 464.4,241.2 466.8,234.4 466.8,234.4 466.8,241.2 468.7,241.2 		"/>
		<path fill="#FFFFFF" d="M214.7,230.3c-9.4,0-15.6,3.1-18.6,5.5c-1,0.6-1.6,1.3-3.2,3.2v-6.5h-32v40.2c-3-17.4-17.5-22.7-23.7-24.7
			c-11.1-3.7-21.7-5.2-25.6-5.9c-3-0.5-9.7-1.8-12.6-3.6c-1.6-1.1-2.9-3.1-2.9-5.2c0-3.9,3.8-5.7,4.4-6c3.4-1.5,7.6-1.5,8.4-1.5
			c8.4,0,19.8,1.8,26.3,8c1,0.8,1.7,1.8,3.2,3.7l21.1-20.4c-2.3-2.4-4.2-4.4-7.3-6.6c-16-12-36.2-12.4-41.9-12.4
			c-4.3,0-34.1-0.3-45.5,21.1c-4,7.3-4.2,14.3-4.2,17.4c-0.2,12.5,6.2,20.2,9.7,23.2c5.4,4.9,13.7,8.8,29.1,11.9
			c10.1,2.1,17.2,3.1,21.1,4.5c3.3,1.1,4.6,2.6,5.4,4.2c0.2,0.5,0.8,1.5,0.8,2.8c0,5.7-7,8.8-17,8.8c-7.8,0-19.6-2.4-25.9-8.1
			c-1.6-1.3-3-3.1-5.4-7l-23.3,22.5c2.3,2.7,4.8,5,8.1,7.5c13.3,10.2,28.9,13,45.3,13c4.8,0,23.7,0.3,38.1-10.6
			c4.2-3.2,12-10.5,14.2-23.3v72.8l32.2-33v-16.4c1,1.8,2.6,3.6,3.7,4.3c1.7,1.2,3.3,2.3,5.1,2.9l48.3-50.3
			C247.9,246.7,237.2,230.3,214.7,230.3z M211.6,292.8c-2.7,1.6-4.9,1.7-6.3,1.7c-1.1,0-3.2,0-5.7-1.4c-6.3-3.5-6.8-11.7-6.8-17.9
			c0-6.4,0.3-14.6,7-18.1c2.5-1.4,5.1-1.6,6.3-1.6c1.6,0,5.9,0.6,8.8,4.3c3.2,4.2,3.5,10.7,3.5,15.6
			C218.3,281.4,217.5,289.2,211.6,292.8z"/>
		<polygon fill="#FFFFFF" points="283,231.9 250.2,266.2 250.2,316.8 283,316.8 		"/>
		<path fill="#FFFFFF" d="M266.6,231.7c9,0,16.4-7.5,16.4-16.7s-7.4-16.7-16.4-16.7s-16.4,7.5-16.4,16.7S257.6,231.7,266.6,231.7z"
			/>
		<polygon fill="#FFFFFF" points="322.9,293.2 331.5,284.7 349.3,316.8 386.6,316.8 377,300.9 375.8,298.8 353.9,263 385.2,232.6 
			345.3,232.6 322.9,256.6 322.9,190.7 290.2,224.7 290.2,316.8 322.9,316.8 		"/>
		<path fill="#FFFFFF" d="M454.2,258.8c-1.6-5.5-4.6-10.7-8.4-15c-11.4-12.7-27.6-13.4-32.9-13.4c-4.4,0-20.1,0.8-31.5,11.9
			c-4.6,4.5-12,14.8-12,31.5c0,8.5,2.1,16.7,6,23.7l1.2,2c4.2,6.5,10.1,11.8,17.9,15c6,2.5,12.2,3.5,18.8,3.5s12.8-1,18.8-3.5
			c11.7-4.9,19.5-14.7,23-26.4h-28.3c-1.5,3.2-4.8,7.4-11.9,7.3l-0.1-0.1c-8.4,0.2-12.3-5.8-13.3-8.9c-0.8-2.5-0.8-6.2-0.8-6.2h56
			C456.6,272.7,456.4,265.9,454.2,258.8z M400.9,263c0.3-1.7,1-8.2,6.8-10.9c1-0.4,3.3-1.1,5.7-1.2c2.4,0,8.2,1,10.4,7.6
			c0.6,2,0.6,3.6,0.8,4.5H400.9z"/>
	</g>
</g>
<g id="vh1_-_blue" display="none">
	<g display="inline">
		<path fill="#39A7C2" d="M329.9,258.4c-1.5,0-2.6-1.2-2.6-2.7V211c0-1.5-1.2-2.7-2.7-2.7h-37.3c-1.5,0-2.7,1.2-2.7,2.7v44.8
			c0,1.5-1.2,2.7-2.7,2.7h-36.1c-1.5,0-2.7,1.2-2.7,2.6v37.3c0,1.5,1.2,2.7,2.7,2.7h36.1c1.5,0,2.7,1.2,2.7,2.7v44.8
			c0,1.5,1.2,2.7,2.7,2.7h37.3c1.5,0,2.7-1.2,2.7-2.7v-44.9c0-1.5,1.2-2.7,2.7-2.7h36.1c1.5,0,2.6-1.2,2.6-2.7v-40L329.9,258.4
			L329.9,258.4z"/>
		<path fill="#62E6F3" d="M432.6,208.3h-33.9c-2,0-3.6,0.7-4.9,1.6l-23.1,17.2c-1.2,0.8-2.2,2.3-2.2,4.2v15.1v12H390
			c1.5,0,2.7,1.2,2.7,2.6v87.4c0,1.5,1.2,2.7,2.7,2.7h37.3c1.5,0,2.6-1.2,2.6-2.7V211C435.2,209.5,434,208.3,432.6,208.3"/>
		<path fill="#62E6F3" d="M244.8,208.3h-81.4c-1.5,0-3,1.1-3.4,2.5l-22.2,71.9c-0.1,0.3-0.5,0.7-1,0.7s-0.8-0.3-1-0.7l-22.2-71.9
			c-0.4-1.4-2-2.5-3.5-2.5H70.9c-1.5,0-2.3,1.1-1.7,2.5l49.3,137.8c0.4,1.4,2.1,2.5,3.6,2.5h29.8c1.5,0,3-1.1,3.6-2.5l47.7-133
			c0.2-0.4,0.5-0.7,1-0.7s1,0.4,1,0.9v132.7c0,1.5,1.2,2.7,2.7,2.7h37.3c1.5,0,2.7-1.2,2.7-2.7V211
			C247.5,209.5,246.4,208.3,244.8,208.3"/>
	</g>
</g>
<g id="vh1_-_purple" display="none">
	<g display="inline">
		<path fill="#68009C" d="M348.9,250.6c-1.6,0-2.9-1.4-2.9-3v-50.5c0-1.6-1.4-2.9-3-2.9h-42.1c-1.6,0-3,1.3-3,2.9v50.5
			c0,1.6-1.3,3-2.9,3H254c-1.6,0-3,1.4-3,2.9v42.1c0,1.6,1.4,3,3,3h40.8c1.6,0,2.9,1.3,2.9,3v50.5c0,1.6,1.4,3,3,3h42
			c1.6,0,3-1.4,3-3v-50.5c0-1.6,1.3-3,3-3h40.8c1.6,0,2.9-1.3,2.9-3v-45.1C392.7,250.6,348.9,250.6,348.9,250.6z"/>
		<path fill="#8B00C3" d="M464.9,194.1h-38.3c-2.3,0-4.1,0.8-5.5,1.7l-26,19.5c-1.3,1-2.4,2.6-2.4,4.7v17v13.6h24.1
			c1.6,0,3,1.4,3,2.9v98.6c0,1.6,1.4,3,3,3H465c1.6,0,2.9-1.4,2.9-3V197.1C467.9,195.4,466.5,194.1,464.9,194.1"/>
		<path fill="#8B00C3" d="M253.1,194.1h-91.9c-1.6,0-3.4,1.3-3.9,2.9l-25,81.2c-0.2,0.4-0.5,0.7-1,0.7c-0.4,0-0.9-0.3-1-0.7
			l-25-81.2c-0.5-1.6-2.3-2.9-3.9-2.9H56.7c-1.6,0-2.5,1.3-2,2.8l55.6,155.6c0.5,1.6,2.3,2.9,4,2.9h33.6c1.6,0,3.5-1.3,4-2.9
			l53.7-150.2c0.2-0.4,0.6-0.8,1-0.8c0.5,0,1.1,0.5,1.1,1v149.8c0,1.6,1.3,3,3,3h42.2c1.6,0,3-1.4,3-3V197.1
			C256,195.4,254.7,194.1,253.1,194.1"/>
	</g>
</g>
<g id="vh1_-_green" display="none">
	<g display="inline">
		<path fill="#30B317" d="M345.4,251.3c-1.6,0-2.9-1.3-2.9-2.9v-48.8c0-1.6-1.3-2.9-2.9-2.9H299c-1.6,0-2.9,1.3-2.9,2.9v48.8
			c0,1.6-1.3,2.9-2.9,2.9h-39.4c-1.6,0-2.9,1.3-2.9,2.9v40.6c0,1.6,1.3,2.9,2.9,2.9h39.4c1.6,0,2.9,1.3,2.9,2.9v48.9
			c0,1.6,1.3,2.9,2.9,2.9h40.6c1.6,0,2.9-1.3,2.9-2.9v-48.8c0-1.6,1.3-2.9,2.9-2.9h39.4c1.6,0,2.9-1.3,2.9-2.9v-43.5L345.4,251.3
			L345.4,251.3z"/>
		<path fill="#2AE130" d="M457.3,196.7h-36.9c-2.3,0-4,0.7-5.3,1.6L390,217.2c-1.3,0.9-2.3,2.5-2.3,4.5v16.4v13.2h23.2
			c1.6,0,2.9,1.3,2.9,2.9v95.4c0,1.6,1.3,2.9,2.9,2.9h40.6c1.6,0,2.9-1.3,2.9-2.9V199.7C460.2,198,458.9,196.7,457.3,196.7"/>
		<path fill="#2AE130" d="M252.7,196.7h-88.7c-1.6,0-3.3,1.2-3.7,2.8l-24.3,78.3c-0.2,0.4-0.5,0.7-1,0.7c-0.4,0-0.9-0.3-1-0.7
			l-24.2-78.3c-0.4-1.5-2.2-2.8-3.7-2.8H63.2c-1.6,0-2.4,1.2-1.9,2.7L115,349.6c0.5,1.5,2.3,2.8,3.9,2.8h32.5c1.6,0,3.4-1.2,3.8-2.8
			l51.9-145c0.2-0.4,0.5-0.8,1-0.8s1,0.5,1,1v144.7c0,1.6,1.3,2.9,2.9,2.9h40.6c1.6,0,2.9-1.3,2.9-2.9V199.7
			C255.7,198,254.4,196.7,252.7,196.7"/>
	</g>
</g>
<g id="comedy_-_pink" display="none">
	<path display="inline" fill="#F95C52" d="M257.1,343.2c-31.8,0-60.9-17.3-76.1-45.3l15.6-8.5c12,22.2,35.2,36.1,60.5,36.1
		c37.9,0,68.7-30.9,68.7-68.7S294.9,188,257.1,188c-25,0-47.9,13.5-60.1,35.4l-15.5-8.7c15.3-27.5,44.3-44.5,75.7-44.5
		c47.7,0,86.5,38.8,86.5,86.5C343.5,304.4,304.7,343.2,257.1,343.2"/>
	<path display="inline" fill="#F95C52" d="M256.9,299.4c-23.6,0-42.7-19.2-42.7-42.8c0-23.6,19.2-42.8,42.7-42.8
		c15.5,0,29.8,8.4,37.4,21.9l-15.5,8.7c-4.4-7.9-12.8-12.8-21.8-12.8c-13.8,0-25,11.2-25,25c0,13.8,11.2,25,25,25
		c9.3,0,17.7-5,22-13.2l15.7,8.4C287.1,290.9,272.7,299.4,256.9,299.4"/>
	<path display="inline" fill="#FFFFFF" d="M149.6,362.7c2.3,0,4,0.7,5.5,2.2c0.2,0.2,0.2,0.4,0,0.6l-1.8,1.9c-0.2,0.2-0.4,0.2-0.6,0
		c-0.9-0.8-2-1.2-3.1-1.2c-2.6,0-4.5,2.2-4.5,4.8c0,2.5,1.9,4.7,4.5,4.7c1,0,2.3-0.4,3.1-1.1c0.2-0.2,0.4-0.2,0.6,0l1.8,1.9
		c0.2,0.2,0.2,0.4,0,0.6c-1.6,1.6-3.6,2.3-5.6,2.3c-4.6,0-8.3-3.6-8.3-8.3C141.3,366.4,145,362.7,149.6,362.7"/>
	<path display="inline" fill="#FFFFFF" d="M168,362.7c4.6,0,8.3,3.7,8.3,8.3s-3.7,8.3-8.3,8.3s-8.2-3.6-8.2-8.3
		C159.7,366.4,163.4,362.7,168,362.7 M168,375.6c2.5,0,4.6-2.1,4.6-4.6c0-2.5-2.1-4.6-4.6-4.6s-4.6,2.1-4.6,4.6
		C163.4,373.5,165.4,375.6,168,375.6"/>
	<path display="inline" fill="#FFFFFF" d="M183.6,363.1c0-0.2,0.3-0.3,0.4-0.3h0.3c0.1,0,0.3,0.1,0.3,0.3l5.4,10h0.1l5.4-10
		c0.1-0.2,0.3-0.3,0.3-0.3h0.3c0.2,0,0.4,0.2,0.4,0.3l2.6,15.5c0.1,0.3-0.2,0.5-0.4,0.5h-2.7c-0.2,0-0.4-0.2-0.4-0.3l-1-7.1l0,0
		l-3.9,7.5c-0.1,0.2-0.3,0.3-0.4,0.3H190c-0.2,0-0.3-0.1-0.4-0.3l-3.9-7.5l0,0l-1,7.1c0,0.2-0.2,0.3-0.4,0.3h-2.7
		c-0.3,0-0.5-0.2-0.4-0.5L183.6,363.1z"/>
	<path display="inline" fill="#FFFFFF" d="M205.3,363.4c0-0.3,0.2-0.4,0.4-0.4h9.5c0.3,0,0.4,0.2,0.4,0.4v2.5c0,0.3-0.2,0.4-0.4,0.4
		h-6.4v2.9h5.3c0.3,0,0.4,0.2,0.4,0.4v2.5c0,0.3-0.2,0.4-0.4,0.4h-5.3v3.1h6.4c0.3,0,0.4,0.2,0.4,0.4v2.5c0,0.3-0.2,0.4-0.4,0.4
		h-9.5c-0.3,0-0.4-0.2-0.4-0.4V363.4z"/>
	<path display="inline" fill="#FFFFFF" d="M221.8,363.4c0-0.3,0.2-0.4,0.4-0.4h5.6c4.4,0,8.1,3.6,8.1,8.1c0,4.5-3.6,8.1-8.1,8.1
		h-5.6c-0.3,0-0.4-0.2-0.4-0.4V363.4z M227.6,375.6c2.6,0,4.5-2.1,4.5-4.7c0-2.6-1.9-4.7-4.5-4.7h-2.2v9.4H227.6z"/>
	<path display="inline" fill="#FFFFFF" d="M244.4,371.3l-5.1-7.7c-0.2-0.3,0-0.7,0.3-0.7h3c0.2,0,0.3,0.1,0.3,0.2l3.2,4.8l3.2-4.8
		c0.1-0.1,0.2-0.2,0.3-0.2h3c0.3,0,0.5,0.3,0.3,0.7l-5.2,7.7v7.4c0,0.3-0.2,0.4-0.4,0.4h-2.8c-0.3,0-0.4-0.2-0.4-0.4L244.4,371.3
		L244.4,371.3z"/>
	<path display="inline" fill="#FFFFFF" d="M369.8,379.3c-2.3,0-4-0.7-5.5-2.2c-0.2-0.2-0.2-0.4,0-0.6l1.8-1.9c0.2-0.2,0.4-0.2,0.6,0
		c0.9,0.8,2,1.2,3.1,1.2c2.6,0,4.5-2.2,4.5-4.8c0-2.6-1.9-4.7-4.5-4.7c-1.1,0-2.3,0.3-3.1,1.1c-0.2,0.2-0.4,0.2-0.6,0l-1.8-1.9
		c-0.2-0.2-0.2-0.4,0-0.6c1.6-1.5,3.6-2.3,5.6-2.3c4.6,0,8.3,3.6,8.3,8.3C378.1,375.6,374.4,379.3,369.8,379.3"/>
	<path display="inline" fill="#FFFFFF" d="M358.5,378.7c0,0.3-0.2,0.4-0.4,0.4h-9.5c-0.3,0-0.4-0.2-0.4-0.4v-2.5
		c0-0.3,0.2-0.4,0.4-0.4h6.4v-2.9h-5.3c-0.3,0-0.4-0.2-0.4-0.4v-2.5c0-0.3,0.2-0.4,0.4-0.4h5.3v-3.1h-6.4c-0.3,0-0.4-0.2-0.4-0.4
		v-2.5c0-0.3,0.2-0.4,0.4-0.4h9.5c0.3,0,0.4,0.2,0.4,0.4V378.7z"/>
	<path display="inline" fill="#FFFFFF" d="M342,378.9c0,0.3-0.2,0.4-0.4,0.4h-0.6l-9.2-8.8l0,0v8.1c0,0.3-0.2,0.4-0.4,0.4h-2.8
		c-0.3,0-0.4-0.2-0.4-0.4v-15.5c0-0.3,0.2-0.4,0.4-0.4h0.3c0.1,0,0.3,0.1,0.3,0.1l9.1,9.2l0,0v-8.6c0-0.3,0.2-0.4,0.4-0.4h2.8
		c0.3,0,0.4,0.2,0.4,0.4L342,378.9z"/>
	<path display="inline" fill="#FFFFFF" d="M319,375.7h3.3c0.3,0,0.4,0.2,0.4,0.4v2.5c0,0.3-0.2,0.4-0.4,0.4h-10.2
		c-0.3,0-0.4-0.2-0.4-0.4v-2.5c0-0.3,0.2-0.4,0.4-0.4h3.3v-12.3c0-0.3,0.2-0.4,0.4-0.4h2.8c0.3,0,0.4,0.2,0.4,0.4V375.7z"/>
	<path display="inline" fill="#FFFFFF" d="M306.4,378.7c0,0.3-0.2,0.4-0.4,0.4H299c-2.8,0-5-2.3-5-4.9c0-2.1,1.4-3.8,3.4-4.6
		l-3.1-5.8c-0.2-0.3,0-0.7,0.4-0.7h3c0.2,0,0.3,0.1,0.3,0.2l3,6.2h1.6v-6c0-0.3,0.2-0.4,0.4-0.4h2.8c0.3,0,0.4,0.2,0.4,0.4
		L306.4,378.7L306.4,378.7z M299.3,372.2c-1,0-1.7,0.9-1.7,1.8s0.8,1.7,1.7,1.7h3.4v-3.6L299.3,372.2L299.3,372.2z"/>
	<path display="inline" fill="#FFFFFF" d="M290,363.5l-7.2,15.5c-0.1,0.2-0.3,0.3-0.4,0.3h-0.3c-0.2,0-0.3-0.1-0.4-0.3l-7.2-15.5
		c-0.2-0.3,0.1-0.6,0.4-0.6h2.5c0.4,0,0.6,0.2,0.8,0.6l0.9,1.8h6.2l0.9-1.8c0.1-0.3,0.3-0.5,0.9-0.5h2.5
		C290,363,290.2,363.2,290,363.5 M280.5,368.4l1.7,3.8l0,0l1.7-3.8H280.5z"/>
	<path display="inline" fill="#FFFFFF" d="M269.7,378.7c0,0.3-0.2,0.4-0.4,0.4h-2.8c-0.3,0-0.4-0.2-0.4-0.4v-12.3h-5.5
		c-0.3,0-0.4-0.2-0.4-0.4v-2.5c0-0.3,0.2-0.4,0.4-0.4h8.7c0.3,0,0.4,0.2,0.4,0.4V378.7z"/>
	<path display="inline" fill="#F95C52" d="M330.7,317C330.7,317.1,330.8,317.1,330.7,317l0.3,0.1c0.1,0,0.1-0.1,0.1-0.1v-3.2h0.9
		c0.1,0,0.1-0.1,0.1-0.1v-0.2c0-0.1,0-0.1-0.1-0.1h-2.2c-0.1,0-0.1,0.1-0.1,0.1v0.2c0,0.1,0,0.1,0.1,0.1h0.9L330.7,317L330.7,317z
		 M332.3,317C332.3,317.1,332.3,317.1,332.3,317l0.3,0.1c0,0,0.1,0,0.1-0.1l0.4-2.7l0,0l1,2.7l0.1,0.1h0.1c0,0,0.1,0,0.1-0.1l1-2.7
		l0,0l0.4,2.7l0.1,0.1h0.2c0.1,0,0.1-0.1,0.1-0.1l-0.7-3.5c0-0.1-0.1-0.1-0.1-0.1h0.2c0,0-0.1,0-0.1,0.1l-1,2.9l0,0l-1-2.9l-0.1-0.1
		h-0.1c0,0-0.1,0-0.1,0.1L332.3,317z"/>
</g>
<g id="comedy_-_yellow" display="none">
	<path display="inline" fill="#B6BD00" d="M258.3,351.4c-35.4,0-68-19.4-84.9-50.6l17.4-9.4c13.4,24.8,39.3,40.2,67.5,40.2
		c42.3,0,76.7-34.4,76.7-76.7s-34.4-76.7-76.7-76.7c-27.8,0-53.6,15.2-67.1,39.5l-17.3-9.6c17.1-30.7,49.4-49.7,84.4-49.7
		c53.2,0,96.5,43.3,96.5,96.5C354.8,308.1,311.5,351.4,258.3,351.4"/>
	<path display="inline" fill="#B6BD00" d="M258.1,302.6c-26.3,0-47.8-21.4-47.8-47.8s21.4-47.8,47.8-47.8c17.3,0,33.3,9.4,41.7,24.4
		l-17.3,9.7c-4.9-8.8-14.3-14.3-24.4-14.3c-15.4,0-27.9,12.5-27.9,27.9s12.6,27.9,27.9,27.9c10.3,0,19.8-5.6,24.6-14.7l17.5,9.4
		C291.9,293,275.8,302.6,258.1,302.6"/>
	<path display="inline" fill="#FFFFFF" d="M138.3,373.2c2.6,0,4.5,0.8,6.2,2.4c0.3,0.2,0.3,0.5,0,0.7l-2,2.1c-0.2,0.2-0.4,0.2-0.6,0
		c-1-0.9-2.2-1.3-3.5-1.3c-2.9,0-5,2.4-5,5.3c0,2.9,2.2,5.2,5.1,5.2c1.2,0,2.5-0.4,3.5-1.2c0.2-0.2,0.5-0.2,0.7,0l2,2.2
		c0.2,0.2,0.2,0.5,0,0.7c-1.7,1.7-4,2.5-6.2,2.5c-5.1,0-9.3-4.1-9.3-9.3C129,377.4,133.1,373.2,138.3,373.2"/>
	<path display="inline" fill="#FFFFFF" d="M158.9,373.2c5.1,0,9.3,4.2,9.3,9.3c0,5.1-4.1,9.3-9.3,9.3c-5.1,0-9.3-4.1-9.3-9.3
		C149.6,377.4,153.7,373.2,158.9,373.2 M158.9,387.7c2.9,0,5.1-2.3,5.1-5.1c0-2.9-2.3-5.2-5.1-5.2s-5.1,2.3-5.1,5.2
		C153.7,385.3,156,387.7,158.9,387.7"/>
	<path display="inline" fill="#FFFFFF" d="M176.4,373.6c0-0.3,0.3-0.4,0.4-0.4h0.4c0.1,0,0.3,0.1,0.4,0.3l6,11.1h0.1l6-11.1
		c0.1-0.2,0.3-0.3,0.4-0.3h0.4c0.2,0,0.4,0.2,0.4,0.4l2.9,17.2c0.1,0.3-0.2,0.6-0.5,0.6h-3c-0.3,0-0.4-0.2-0.5-0.4l-1.1-8h-0.1
		l-4.3,8.3c-0.1,0.2-0.3,0.3-0.4,0.3h-0.4c-0.2,0-0.3-0.2-0.4-0.3l-4.3-8.3l0,0l-1.1,8c0,0.2-0.3,0.4-0.5,0.4h-3
		c-0.3,0-0.5-0.3-0.5-0.6L176.4,373.6z"/>
	<path display="inline" fill="#FFFFFF" d="M200.5,374c0-0.3,0.2-0.5,0.5-0.5h10.7c0.3,0,0.5,0.3,0.5,0.5v2.8c0,0.3-0.2,0.5-0.5,0.5
		h-7.2v3.2h5.9c0.3,0,0.5,0.3,0.5,0.4v2.8c0,0.3-0.3,0.5-0.5,0.5h-5.9v3.5h7.1c0.3,0,0.5,0.3,0.5,0.5v2.8c0,0.3-0.2,0.5-0.5,0.5H201
		c-0.3,0-0.5-0.3-0.5-0.5L200.5,374L200.5,374z"/>
	<path display="inline" fill="#FFFFFF" d="M218.9,374c0-0.3,0.2-0.5,0.4-0.5h6.3c4.9,0,9,4.1,9,9c0,5-4.1,9-9,9h-6.3
		c-0.3,0-0.4-0.3-0.4-0.5L218.9,374L218.9,374z M225.4,387.7c2.9,0,5-2.3,5-5.2c0-2.9-2.1-5.2-5-5.2H223v10.4H225.4z"/>
	<path display="inline" fill="#FFFFFF" d="M244.1,382.8l-5.7-8.6c-0.2-0.3,0-0.8,0.4-0.8h3.4c0.2,0,0.3,0.1,0.4,0.3l3.6,5.3l3.6-5.3
		c0.1-0.1,0.2-0.3,0.4-0.3h3.4c0.4,0,0.6,0.4,0.4,0.8l-5.7,8.6v8.2c0,0.3-0.3,0.5-0.5,0.5h-3c-0.3,0-0.5-0.3-0.5-0.5L244.1,382.8
		L244.1,382.8z"/>
	<path display="inline" fill="#FFFFFF" d="M384.2,391.7c-2.6,0-4.5-0.8-6.2-2.4c-0.3-0.2-0.3-0.5,0-0.7l2-2.1c0.2-0.2,0.4-0.2,0.6,0
		c1,0.9,2.3,1.3,3.5,1.3c2.9,0,5-2.4,5-5.3c0-2.9-2.2-5.2-5.1-5.2c-1.2,0-2.5,0.4-3.5,1.2c-0.2,0.2-0.5,0.2-0.7,0l-1.9-2.2
		c-0.2-0.2-0.2-0.5,0-0.7c1.7-1.7,4-2.5,6.2-2.5c5.1,0,9.3,4.1,9.3,9.3C393.5,387.6,389.3,391.7,384.2,391.7"/>
	<path display="inline" fill="#FFFFFF" d="M371.5,391c0,0.3-0.2,0.5-0.5,0.5h-10.7c-0.3,0-0.5-0.3-0.5-0.5v-2.8
		c0-0.3,0.2-0.5,0.5-0.5h7.1v-3.2h-5.9c-0.3,0-0.5-0.3-0.5-0.5v-2.8c0-0.3,0.3-0.5,0.5-0.5h5.9v-3.5h-7.1c-0.3,0-0.5-0.3-0.5-0.5
		V374c0-0.3,0.2-0.5,0.5-0.5h10.7c0.3,0,0.5,0.3,0.5,0.5V391z"/>
	<path display="inline" fill="#FFFFFF" d="M353.1,391.3c0,0.3-0.3,0.4-0.5,0.4H352l-10.2-9.9l0,0v9.1c0,0.3-0.2,0.5-0.5,0.5h-3.1
		c-0.3,0-0.5-0.3-0.5-0.5v-17.3c0-0.3,0.3-0.4,0.5-0.4h0.4c0.1,0,0.3,0.1,0.3,0.2l10.1,10.2l0,0V374c0-0.3,0.2-0.5,0.5-0.5h3
		c0.3,0,0.5,0.3,0.5,0.5V391.3z"/>
	<path display="inline" fill="#FFFFFF" d="M327.5,387.8h3.6c0.3,0,0.5,0.3,0.5,0.5v2.8c0,0.3-0.2,0.5-0.5,0.5h-11.4
		c-0.3,0-0.5-0.3-0.5-0.5v-2.8c0-0.3,0.2-0.5,0.5-0.5h3.6V374c0-0.3,0.3-0.5,0.5-0.5h3.1c0.3,0,0.5,0.3,0.5,0.5L327.5,387.8
		L327.5,387.8z"/>
	<path display="inline" fill="#FFFFFF" d="M313.3,391c0,0.3-0.2,0.5-0.5,0.5h-7.7c-3.1,0-5.6-2.5-5.6-5.5c0-2.3,1.6-4.2,3.8-5.2
		l-3.6-6.5c-0.2-0.3,0-0.8,0.4-0.8h3.5c0.2,0,0.3,0.1,0.4,0.3l3.4,6.8h1.8v-6.6c0-0.3,0.3-0.5,0.5-0.5h3c0.3,0,0.5,0.3,0.5,0.5V391z
		 M305.5,383.8c-1,0-2,1-2,2.1c0,1.1,0.9,2,2,2h3.8v-4L305.5,383.8L305.5,383.8z"/>
	<path display="inline" fill="#FFFFFF" d="M295.1,374.1l-8.1,17.3c-0.1,0.2-0.3,0.3-0.4,0.3h-0.3c-0.2,0-0.3-0.2-0.4-0.3l-8.1-17.3
		c-0.2-0.3,0.1-0.7,0.4-0.7h2.9c0.4,0,0.7,0.2,0.9,0.6l1,2h7l1-2.1c0.2-0.3,0.4-0.6,1-0.6h2.9C295,373.5,295.2,373.8,295.1,374.1
		 M284.5,379.6l2,4.2l0,0l1.9-4.2H284.5z"/>
	<path display="inline" fill="#FFFFFF" d="M272.4,391c0,0.3-0.2,0.5-0.5,0.5h-3c-0.3,0-0.5-0.3-0.5-0.5v-13.8h-6.2
		c-0.3,0-0.5-0.3-0.5-0.5V374c0-0.3,0.2-0.5,0.5-0.5h9.7c0.3,0,0.5,0.3,0.5,0.5V391z"/>
	<path display="inline" fill="#B6BD00" d="M340.4,322.2C340.4,322.3,340.5,322.3,340.4,322.2l0.3,0.1c0.1,0,0.1-0.1,0.1-0.1v-3.6h1
		c0.1,0,0.1-0.1,0.1-0.1v-0.2c0-0.1-0.1-0.1-0.1-0.1h-2.4c-0.1,0-0.1,0.1-0.1,0.1v0.2c0,0.1,0,0.1,0.1,0.1h1L340.4,322.2
		L340.4,322.2z M342.2,322.2c0,0.1,0,0.2,0.1,0.2h0.3c0.1,0,0.1,0,0.1-0.1l0.5-2.9l0,0l1,3l0.1,0.1h0.1c0,0,0.1,0,0.1-0.1l1-3l0,0
		l0.5,2.9l0.1,0.1h0.3c0.1,0,0.1-0.1,0.1-0.2l-0.8-3.9c0-0.1-0.1-0.1-0.1-0.1h-0.1c0,0-0.1,0-0.1,0.1l-1.1,3.2l0,0l-1.1-3.2
		l-0.1-0.1H343c0,0-0.1,0-0.1,0.1L342.2,322.2z"/>
</g>
<g id="bet_-_white" display="none">
	<path display="inline" fill="#FFFFFF" d="M469.6,252.5h-52.4l-16.1-50.8L385,252.5h-52.5l42.6,30.4l-16.3,49.5l42.4-30.7l42.4,30.7
		l-16.3-49.5L469.6,252.5z M381.6,201.6H224.3c-14.3,0-23,2-30.1,6.2c-5.8,3.7-11.4,8.8-15.7,15.2c-2.9,4.2-5.4,8.5-7.2,13.1
		c0-0.1,0-0.1,0-0.2c0-17.1-11-30.9-26.5-33.2c-4.2-0.6-11-1.2-16.1-1.2H54.8v131h72.5c18.8,0,27.1-2.2,34.1-8.7
		c6.5-5.9,9.8-15.1,9.8-25.9c0-0.3,0-0.6,0-0.9c5.4,15.3,15,26.4,27.5,30.9c8.8,3.1,20.2,4.5,36.5,4.5h30.1v-33.6h-21.8
		c-26.2-0.1-34.8,2.3-39.3-16.7h61v-29.6h-61.1c0,0,3-17.3,21.1-17.3c5.4,0,8.9,0,18.4,0h41.8v97.3h38v-97.3h47.8L381.6,201.6z
		 M86.8,235.3h41c10.1,0,9.6,8.5,9.6,8.5c0,8.9-9.7,8.5-9.7,8.5h-41L86.8,235.3L86.8,235.3z M137.6,290.4c0,8.9-9.7,8.5-9.7,8.5h-41
		v-17h41C138.1,281.9,137.6,290.4,137.6,290.4z M152.3,267.1c6.1-2.5,11.3-7.6,14.6-14c-0.5,4-0.8,8.2-0.8,12.8c0,5.1,0.3,10,1,14.6
		C164.1,274.8,159.1,270.2,152.3,267.1z"/>
</g>
<g id="cmt_-_dkblue" display="none">
	<g display="inline">
		<g>
			<g>
				<g>
					<path fill="#0076A2" d="M332.5,204.2v14.1l-1,0.3c0,0-3.6,1-3.8,1c-3.9,0.7-6.2,6.4-6.2,15.3v78.3c0,9.7,2,14.5,6.6,15.3
						l4.7,1.3v14.1h-52.3v-14.2l1-0.3l5-1c4.6-1,6.5-5.5,6.5-15.3c0,0,0-60.4,0-71.6c-3.8,11.1-34.9,102.2-34.9,102.2h-7.5
						c0,0-30.7-90.9-34.5-102.1c0,11.3,0,71.5,0,71.5c0,9.7,2,14.3,6.5,15.3l6.2,1.2v14.2h-41.3v-14.1l1-0.3c0,0,3.8-1,3.9-1
						c4.3-0.8,6.2-5.5,6.2-15.3v-78.3c0-8.8-2.3-14.6-6.4-15.3l-4.8-1.3v-14h50.8c0,0,21.3,63.9,23.7,70.8
						c2.3-6.9,22.6-70.8,22.6-70.8H332.5z"/>
					<path fill="#0076A2" d="M126.8,202.7c6.9,0,13.1,1.3,19.2,4.1c4,2,8.1,3.4,10.4,3.4c1,0,2.3,0,2.3-5.3v-1.3h18.3v45.5h-26.3
						v-1.3c0-20.4-2.7-28.9-19.4-28.9c-13.5,0-19.8,6.8-19.8,21.7v61.7c0,8.1,1.8,27,18.5,27c14.4,0,20.8-9.2,20.8-29.7v-1.3h26.3
						v1.3c0,21.1-12.6,45.7-47.8,45.7c-38,0-51.5-28.6-51.5-53v-41C77.9,227.7,97.5,202.7,126.8,202.7z"/>
					<path fill="#0076A2" d="M442.1,204.2V249h-16.2v-3.1c0-11.8-3.1-24.4-12-24.4c-5.5,0-8.3,6.2-8.3,18.7v72.9
						c0,9.9,2,14.4,6.7,15.3h0.1l4.5,1.3v14.1h-51.1v-14.1l1-0.3c0,0,3.8-1,3.9-1c4.5-0.8,6.5-5.5,6.5-15.3v-72.9
						c0-12.7-2.7-18.7-8.3-18.7c-8.8,0-12,12.6-12,24.4v3.1h-16.2v-44.8H442.1z"/>
				</g>
			</g>
		</g>
	</g>
</g>
<g id="centric_-_color" display="none">
	<g display="inline">
		<g>
			<g>
				<path fill="#FFFFFF" d="M278.1,350.1V336h-7.4v38c0,5.2,1.3,9.4,3.9,12.4c2.6,3,6.4,4.5,11.3,4.5c4.3,0,6.6-0.1,6.6-0.1v-6.3
					c0,0-4.4,0-4.8,0c-3.2,0-5.5-0.9-7.2-2.6s-2.4-4.3-2.4-7.8v-17.9h14.4v-6L278.1,350.1L278.1,350.1z"/>
			</g>
			<rect x="326" y="349.2" fill="#FFFFFF" width="7.4" height="41.6"/>
			<path fill="#FFFFFF" d="M329.7,336c-2,0-3.6,1.6-3.6,3.6c0,2,1.6,3.6,3.6,3.6c2,0,3.6-1.6,3.6-3.6
				C333.3,337.7,331.7,336,329.7,336z"/>
			<path fill="#FFFFFF" d="M174.2,382.2c-2.7,2.3-6.2,3.6-9.9,3.6c-8.5,0-15.3-6.8-15.3-15.3s6.8-15.3,15.3-15.3
				c3.8,0,7.2,1.4,9.9,3.6l4.3-4.3c-3.8-3.4-8.8-5.4-14.2-5.4c-11.9,0-21.5,9.6-21.5,21.5c0,11.9,9.6,21.5,21.5,21.5
				c5.5,0,10.5-2.1,14.2-5.4L174.2,382.2z"/>
			<path fill="#FFFFFF" d="M370.9,382.2c-2.7,2.3-6.2,3.6-9.9,3.6c-8.5,0-15.3-6.8-15.3-15.3s6.9-15.3,15.3-15.3
				c3.8,0,7.2,1.4,9.9,3.6l4.3-4.3c-3.8-3.4-8.8-5.4-14.2-5.4c-11.9,0-21.5,9.6-21.5,21.5c0,11.9,9.6,21.5,21.5,21.5
				c5.5,0,10.5-2.1,14.2-5.4L370.9,382.2z"/>
			<path fill="#FFFFFF" d="M213,380.6c-2.6,3.1-7.2,5.1-11.4,5.1c-7.2,0-13.1-5.6-14.2-13h34.8c0.1-0.8,0.2-1.6,0.2-2.3
				c0-11.9-9.3-21.5-20.8-21.5c-11.4,0-20.8,9.6-20.8,21.5c0,11.9,9.3,21.5,20.8,21.5c7.9,0,15.4-4.6,19-11.3L213,380.6L213,380.6z
				 M201.7,355.1c7,0,12.8,5.4,14.1,12.5h-28.2C188.8,360.5,194.7,355.1,201.7,355.1z"/>
			<path fill="#FFFFFF" d="M201.7,370.5"/>
			<path fill="#FFFFFF" d="M259.9,353.7c-2.8-3.1-6.6-4.8-11.2-4.8c-0.2,0-0.4,0-0.6,0c-7.5,0-12.5,4.9-13.1,7.2c0-1.5,0-3.8,0-3.8
				v-2.3h-6.8v40.6h7.4h0.1v-24.1c0-3,1-5.8,3-7.8c2-2.1,4.8-3.2,7.8-3.2c5,0,7.5,2.4,8.8,4.5c1.4,2.3,1.6,4.8,1.6,6.5v24.1h5.9h1.3
				v-24.1C264.2,361.4,262.8,356.9,259.9,353.7z"/>
			<path fill="#FFFFFF" d="M320.1,349.1v7c-0.3,0-0.6,0-0.9,0c-4.2,0-7.4,1.2-9.6,3.6c-3,3.2-3.5,7.6-3.5,11.2v19.9h-7.4v-40.7h6.8
				v2.4v4.1C305.7,356.6,307.9,349.1,320.1,349.1z"/>
		</g>
		<g>
			<path fill="#34B9E2" d="M318.3,178.8l-29.8,26.1l-1.2-1.3l29.6-26c-1.1-1-2.2-2-3.4-2.9l-29.3,25.7l-1.1-1.3l29-25.5
				c-1.1-1-2.3-1.8-3.6-2.8l-28.4,24.9l-1.2-1.3l28.1-24.6c-0.8-0.5-1.6-1-2.3-1.6c-0.5-0.3-1-0.6-1.6-1l-26.9,23.7l-1.1-1.3
				l26.7-23.4c-1.4-0.8-2.8-1.6-4.2-2.3l-25.4,22.3L271,185l24.7-21.8c-1.5-0.7-3-1.3-4.5-1.9L268,181.7l-1.2-1.3l22.5-19.8
				c-1.6-0.6-3.3-1.1-4.9-1.6l-20.5,18l-1.2-1.3l19.7-17.2c-1.8-0.4-3.6-0.9-5.5-1.1l-17.2,15.1l-1.2-1.3l16-14.1
				c-2-0.3-4-0.5-6-0.6l-13,11.4l-1.2-1.3l11.8-10.4c-0.7,0.2-7.4,1.7-16.7,8.8l31,35c4.2,2.1,7.9,4.9,11,8.2l30-26.3
				C320.4,180.9,319.4,179.8,318.3,178.8z"/>
			<path fill="#34B9E2" d="M222.8,235.5c0-21.3,16.7-38.7,37.8-39.7c-0.6,0-1.3-0.1-1.9-0.1c-11.2,0-18.6-9.9-21.3-19.7
				c-4.2,4.6-8.4,10.1-12.8,17c-25,39.5-41.5,37-41.5,37s1.4,23.2,34,40l0.3,0.3l-3.9,3.9l-3.5-3.5l-6.2,4.2h8.2l-5.1,5.1l-4.3-4.3
				l-6.1,4.1c0.3,0.5,0.8,1.1,1.1,1.6h6.8l-3.8,3.8c11.4,14.1,32.3,29.7,62.8,29.7c7.1,0,16-1.4,23.8-3.9l-50.1-45.3
				C228.3,258.6,222.8,247.7,222.8,235.5z M224.2,274.9l-4.2,4.2l-4.2-4.2H224.2z M206.8,290.4l-2.3-2.4h4.8L206.8,290.4z
				 M213.2,295.2l-0.6-0.6h1.2L213.2,295.2z M213.5,284.9l-3.4-3.4h6.8L213.5,284.9z M219.7,289.6l-1.6-1.6h3L219.7,289.6z
				 M226.3,295.4l-0.7-0.7h1.4L226.3,295.4z M226.3,284.2l-2.7-2.7h5.4L226.3,284.2z M232.9,289l-1-1h1.9L232.9,289z"/>
			<path fill="#F180A2" d="M262.5,195.8c11.4,0,21.7,4.8,28.9,12.5l0,0l0,0l-44.9-50.7c-13.3,2.7-26,8.8-36.8,18.4
				c-16.5,14.6-25.5,34.4-26.7,54.8l39.7,2.4l0.1-0.1C224.1,212.3,241.5,195.8,262.5,195.8z"/>
			<g>
				<path fill="#122348" d="M291.5,208.3L291.5,208.3L291.5,208.3L285,201c-0.3,0.4-0.7,0.8-1,1.2
					C286.8,203.8,289.2,205.9,291.5,208.3z"/>
				<path fill="#122348" d="M266.4,181.7c-6.1,1.9-12,3.8-18.1,5.8c-0.6,0.2-0.9,0.1-1.3-0.4c-5.8-8-11.6-16-17.3-24
					c-3.6,1.6-7.1,3.6-10.4,5.7c5.5,7.5,10.8,15.1,16.3,22.7c-0.3,0.1-0.5,0.2-0.7,0.3c-6.6,2.1-13.1,4.2-19.7,6.2
					c-0.6,0.2-0.9,0.1-1-0.5c-2.1-6.6-4.2-13.2-6.2-19.8c-3.5,3.3-6.6,6.8-9.3,10.5c1.4,4.3,2.8,8.7,4.1,13c0,0.2,0.1,0.3,0.1,0.4
					c0,0.1-0.1,0.3-0.1,0.3c-0.1-0.1-0.3-0.1-0.3-0.2c-0.1-0.1-0.2-0.3-0.2-0.4c-1.6-3.8-3.2-7.6-4.9-11.4
					c-2.9,4.1-5.3,8.4-7.3,12.8c0.4,1,0.8,1.9,1.2,2.8c-1,0.3-1.8,0.6-2.8,1c0,0,0,0,0,0.1c0.1,0.3,0.2,0.5,0.3,0.7
					c1.3,3.3,2.6,6.6,3.8,10c0.2,0.5,0.4,0.7,1,0.5c0.6-0.3,1.3-0.3,1.9-0.6c0.5-0.3,0.8-0.1,1,0.4c1.7,4.2,3.6,8.2,5.3,12.3
					c0.3,0.6,0.5,1.3,0.9,1.9l20.4,1.2l0.1-0.1c0.1-1.9,0.3-3.8,0.8-5.6c-1.7-5.5-3.6-11.1-5.3-16.6c-0.2-0.7-0.1-0.9,0.6-1
					c6.8-2.1,13.5-4.2,20.2-6.3c6.6-4.8,14.6-7.6,23.4-7.6c1.8,0,3.6,0.1,5.3,0.3c-0.2-0.5-0.3-1-0.5-1.6c3.2-1,6.3-2,9.5-2.9
					l-6.9-7.8c-0.8-0.6-1.5-1.3-2.3-1.9C267.2,181.6,266.8,181.5,266.4,181.7z"/>
				<path fill="#122348" d="M183,230.7l9.4,0.6c-2.5-4.2-5.1-8.6-7.6-12.8C183.9,222.5,183.3,226.6,183,230.7z"/>
			</g>
			<g>
				<path fill="#F180A2" d="M292.4,261.7L292.4,261.7c-0.1,0.1-0.2,0.2-0.3,0.3c-7.3,8.1-17.9,13.3-29.6,13.3
					c-9.7,0-18.6-3.6-25.6-9.4v0.1l50.1,45.2h0.1c10.1-3.2,19.6-8.6,28-15.9c2.6-2.3,5.1-4.8,7.4-7.4L292.4,261.7z"/>
			</g>
			<g opacity="0.4">
				<path fill="#F180A2" d="M298.6,306.5c4.5-2.3,8.9-5.1,13.1-8.3c0.1-0.7,0.1-1.3,0.3-1.9c0.5-1.2,1.2-2.3,2-3.4
					c1.1-1.6,2.6-2.7,4.2-3.7c0.1-0.1,0.2-0.3,0.3-0.3c-0.2-0.1-0.3-0.2-0.4-0.3c0-0.1,0-0.3,0-0.3c-0.2,0-0.3,0-0.4,0.1
					c-0.8,0.5-1.5,1-2.3,1.6c0.5-0.7,1.3-1,1.7-1.7c0-0.1-0.1-0.1-0.2-0.2c-0.5,0.3-1,0.8-1.6,1.1l-0.1-0.1c0.5-0.3,1-0.7,1.5-1.1
					c0.5-0.4,0.5-0.6,0-1c-0.2-0.2-0.3-0.3-0.4-0.5c-0.1-0.7-0.6-1-1.2-0.5c-0.5,0.3-1,0.8-1.5,1.2c-1.8,1.4-3.3,3-4.5,4.9
					c-0.4,0.6-0.8,1.2-1.1,1.8l-0.1-0.1c0.8-1.8,1.9-3.6,3.4-4.9c1.5-1.4,3-2.7,4.6-4.1c-0.3-0.3-0.6,0.2-1.1,0.2
					c-0.1-0.4-0.1-0.9-0.2-1.3c0-0.2-0.1-0.5-0.3-0.5c-0.2-0.1-0.5,0-0.7,0.2c-0.8,0.5-1.5,1-2.3,1.6c0.3-0.3,0.5-0.5,0.9-0.8
					c0.4-0.3,1-0.7,1.4-1c0.3-0.2,0.4-0.4,0.1-0.6c-0.3-0.1-0.7-0.2-0.9,0c-1.5,1.2-2.9,2.4-4.4,3.6c-0.9,0.8-1.6,1.6-2.3,2.5
					c1.8-2.7,4.2-4.9,6.8-6.8c-0.7,0-1,0.5-1.6,0.8c-0.5,0.3-1,0.7-1.4,1c0,0,0-0.1-0.1-0.1c1-0.8,1.8-1.5,2.8-2.3
					c-0.3-0.3-0.5-0.3-0.6-0.5c0.2-0.3,0.3-0.5,0.4-0.7c-0.3,0-0.5,0.1-0.8,0.1c-0.2-1-0.3-1.1-1.3-0.4c-1.1,0.9-2.3,1.7-3.4,2.8
					c-2.2,1.9-3.9,4.2-5.4,6.7c-2.3,4-3.3,8.2-3.2,12.7c0,0.2,0,0.3,0,0.4c-0.3-2.3-0.2-4.5,0.3-6.7
					C298,299.1,298,302.7,298.6,306.5z"/>
				<path fill="#F180A2" d="M299.9,277.8c-4.4,4.7-7.5,10.1-8.8,16.4c-1.1,5.4-1,10.5,0.3,15.5c2.4-1,4.8-2,7-3.1
					c-0.3-1.4-0.5-2.7-0.6-4.1c-0.3-4,0.3-7.9,1.9-11.5c1.7-4.1,4.3-7.5,7.6-10.3c1-0.9,2.3-1.5,3-2.7c-0.3,0-0.4,0-0.7,0
					c0.1-0.3,0.3-0.3,0.3-0.4v-0.1l-0.5-0.4c-0.1,0.1-0.2,0.1-0.3,0.2c-2.9,2-5.5,4.3-7.7,7.2c-0.2,0.2-0.3,0.3-0.4,0.5
					c0-0.2,0.1-0.3,0.2-0.3c2.1-2.9,4.6-5.3,7.5-7.4c0.2-0.1,0.3-0.3,0.3-0.3l-1.6-1.3c-0.1,0.1-0.2,0.1-0.3,0.2
					c-1.9,1.5-3.7,2.9-5.4,4.7c-2.4,2.6-4.4,5.4-5.9,8.6c-1.9,4.2-2.8,8.5-2.7,13c0,0.2,0,0.3,0,0.4c0,0.2,0,0.3,0,0.4
					c-0.1-0.1-0.1-0.1-0.1-0.2c-0.2-3,0.1-6.1,0.9-9c0.7-2.7,1.6-5.3,3.1-7.7c1.9-3.4,4.4-6.2,7.4-8.8c0.9-0.7,1.8-1.4,2.7-2.1
					l-2.1-1.8C303.4,274.4,301.6,276,299.9,277.8z"/>
				<path fill="#F180A2" d="M319.3,290.5c-1.8,1.1-3.4,2.6-4.8,4.2c0.3-0.3,0.4-0.8,0.8-1.3c-0.4,0.4-0.7,0.8-1,1.1
					c0-0.2,0.1-0.3,0.2-0.3c1-1.4,2.2-2.6,3.6-3.6c0.4-0.3,0.4-0.3,0.3-0.7c-2.9,2.1-5.2,4.6-6.3,8.1c1.1-0.9,2.2-1.7,3.2-2.7
					c1.5-1.3,2.9-2.6,4.2-4c-0.1-0.1-0.2-0.1-0.3-0.2c0.2-0.2,0.4-0.3,0.7-0.6C319.5,290.5,319.3,290.4,319.3,290.5z"/>
				<path fill="#F180A2" d="M296.2,274.5c-4.9,5.1-8.2,11.2-9.9,18.1c-1.4,6.1-1.3,12.2,0.2,18.3l0.4,0.4h0.1
					c0.3-0.1,0.5-0.2,0.8-0.3c-0.8-2.9-1.3-5.8-1.5-8.1c-0.5-12.1,4.2-22.1,12.8-30.4c-0.1,0-0.1,0-0.2,0.1l-0.1-0.1
					c1-0.8,2-1.6,2.9-2.3l-0.4-0.3C299.7,271.1,297.9,272.7,296.2,274.5z"/>
				<path fill="#F180A2" d="M296,277.1c-4,4.6-6.7,9.9-8.1,15.8c-1,4.6-1.2,9.3-0.5,13.9c0.2,1.4,0.4,2.8,0.8,4.1
					c1-0.3,1.9-0.7,2.9-1c-1-3.6-1.3-7.2-1.1-10.9c0.3-5.6,2-10.8,4.9-15.6c2.6-4.2,6-7.8,10-10.7l-2-1.7c-0.4,0.3-0.9,0.7-1.4,1
					C299.4,273.4,297.6,275.2,296,277.1z"/>
			</g>
			<g opacity="0.4">
				<path fill="#F180A2" d="M251,273.5c-0.9-0.3-1.6-0.5-2.5-0.9c0.1,0.5,0.2,1,0.2,1.5c0,0.8-0.1,1.5-0.3,2.2l1,1
					c0.1-0.3,0.2-0.5,0.3-0.7c-0.1,0.3-0.1,0.5-0.2,0.9l0.1,0.1c0.1-0.3,0.3-0.6,0.3-0.9c0,0.2,0,0.3,0,0.3
					c-0.1,0.3-0.1,0.4-0.2,0.7l0.4,0.3C250.7,276.6,251,275.1,251,273.5z"/>
				<path fill="#F180A2" d="M236.9,266l8.1,7.3c0-0.3-0.1-0.5-0.1-0.8c0.2,0.3,0.3,0.6,0.3,1l2.9,2.6c0.3-1.1,0.3-2.3,0.3-3.5
					C244.2,271.1,240.3,268.8,236.9,266L236.9,266z"/>
				<path fill="#F180A2" d="M262.8,277.3c0.1-0.7,0.2-1.3,0.2-2c-0.2,0-0.3,0-0.4,0c-3.9,0-7.6-0.6-11.2-1.6
					c0.1,0.3,0.1,0.5,0.1,0.8c-0.1,1.2-0.3,2.4-0.5,3.6c0,0.1-0.1,0.3-0.1,0.3l3.3,2.9c0.6-1.3,1-2.7,1.4-4.2c0.2-0.7,0.3-1.3,0.3-2
					c0.1,0,0.1,0,0.1,0c-0.1,1.9-0.4,3.7-1.2,5.5c-0.1,0.3-0.3,0.5-0.4,0.9l2.8,2.5c0.3-0.6,0.7-1.2,1-1.8c0.4-1,0.8-2,1.1-2.9
					c-0.3,1.8-1,3.5-1.8,5l2.3,2.1c0.3-0.5,0.6-1,0.9-1.6C261.6,282.5,262.3,279.9,262.8,277.3z"/>
				<path fill="#F180A2" d="M270.6,290.7c0.1,0,0.1-0.1,0.2-0.1c0.1,0,0.1,0.1,0.1,0.1c-0.8,1.3-1.6,2.6-2.3,3.9l0.3,0.3
					c1.4-2.3,2.7-4.5,3.6-7c1.9-4.8,2.9-9.7,2.8-14.7c-0.3,0.1-0.5,0.2-0.8,0.3C274.6,279.2,273.3,285,270.6,290.7z"/>
				<path fill="#F180A2" d="M271.9,285.6c1.4-3.9,2-7.9,2-11.9c-0.9,0.3-1.7,0.4-2.6,0.7c0,1.8-0.2,3.6-0.4,5.5
					c-0.8,4.5-2.4,8.7-4.9,12.5l1.8,1.6c0.3-0.6,0.8-1.3,1.1-1.9C270.2,289.9,271.1,287.7,271.9,285.6z"/>
				<path fill="#F180A2" d="M267.5,275.5c0-0.2,0-0.4,0-0.6c-1.2,0.2-2.5,0.3-3.8,0.3c-0.2,4-1.3,7.7-3.1,11.3
					c-0.1,0.2-0.3,0.4-0.3,0.6l1.1,1c1.2-2.2,2.3-4.4,2.9-6.8c0.1-0.2,0.1-0.3,0.2-0.6c0.1,0.2,0,0.3,0,0.3
					c-0.7,2.5-1.6,4.9-2.9,7.2l1.5,1.3c0.9-1.5,1.6-3,2.3-4.6C266.6,281.9,267.4,278.8,267.5,275.5z"/>
				<path fill="#F180A2" d="M270.7,274.4c-0.9,0.2-1.8,0.3-2.7,0.4c0,1.2-0.1,2.4-0.3,3.6c-0.5,3.6-1.6,6.9-3.4,10.1
					c-0.3,0.4-0.5,0.9-0.8,1.3l2,1.7c1-1.7,2-3.6,2.8-5.5C269.8,282.4,270.7,278.5,270.7,274.4z"/>
			</g>
			<g opacity="0.1">
				<path fill="#F180A2" d="M302.5,280.5c-0.2,0.3-0.2,0.7,0.3,0.7c0.3,0,0.7-0.2,0.9-0.4c1-2,1.8-4,2.7-6c0.1-0.3,0.2-0.5,0.3-0.9
					l-3.8-3.3c-0.2,0.9-0.4,1.8-0.7,2.7c-0.8,2.2-1.7,4.3-2.7,6.5c0.6,0.2,0.5-0.5,1-0.8c0.3,0.4,0.5,0.9,0.9,1.3
					c0.2,0.2,0.3,0.5,0.5,0.4c0.3,0,0.5-0.3,0.6-0.4c0.5-0.9,1-1.8,1.5-2.8c-0.1,0.4-0.3,0.9-0.5,1.2
					C303.1,279.4,302.8,280,302.5,280.5z"/>
				<path fill="#F180A2" d="M305.9,282.5c0.7,1,1,1,1.6-0.2c0.8-1.5,1.5-3,2.1-4.5c0.1-0.3,0.3-0.6,0.3-0.9l-3.2-2.8
					c-0.7,2.5-1.7,4.9-2.9,7.4c0.7-0.3,0.9-1,1.1-1.6c0.3-0.6,0.6-1.2,1-1.7c0,0,0.1,0,0.1,0.1c-0.6,1.2-1.1,2.4-1.7,3.7
					c0.4,0.1,0.7,0.2,0.9,0.2c0,0.3-0.1,0.6-0.1,1C305.4,282.9,305.7,282.7,305.9,282.5z"/>
				<path fill="#F180A2" d="M309,284.9c0.2-0.1,0.4-0.1,0.6-0.2c0.1-0.1,0.2-0.3,0.3-0.3c1-1.7,1.8-3.5,2.5-5.3l-1.5-1.3
					c-0.3,0.7-0.5,1.3-0.8,2c-0.6,1.5-1.6,2.7-1.7,4.3c0.3-0.1,0.4-0.3,0.7-0.3c0,0.3-0.1,0.5-0.1,0.7
					C308.9,284.5,309,284.7,309,284.9z"/>
				<path fill="#F180A2" d="M285.6,272c0.2-0.1,0.3-0.2,0.5-0.3c0.2,0.4,0.3,0.8,0.5,1.1c0.2,0,0.4-0.2,0.5-0.1
					c0.4,0.3,0.6-0.1,0.8-0.3c0.3-0.6,0.7-1.1,1-1.7c0.7-1.6,1.2-3.3,0.9-5.1c-0.1-0.3-0.1-0.5-0.2-0.8c-1,1-2.2,1.8-3.3,2.7
					c-0.2,1.1-0.4,2.3-0.9,3.3C285.2,271.3,285.1,271.6,285.6,272z"/>
				<path fill="#F180A2" d="M320.2,289.6c-0.1,0.3-0.2,0.5-0.3,0.7c0.1,0,0.1,0.1,0.2,0.1c0.2-0.2,0.3-0.3,0.5-0.5l0.1-0.1
					c0.4-0.8,0.8-1.5,1.1-2.3l-0.4-0.4C321,287.9,320.6,288.7,320.2,289.6z"/>
				<path fill="#F180A2" d="M292.4,261.7c-0.1,0.1-0.2,0.2-0.3,0.3c-0.9,1-1.7,1.8-2.7,2.7c0.4,0.8,0.5,1.6,0.5,2.4
					c0,1.7-0.6,3.4-1.4,4.9c-0.3,0.5-0.4,1.1,0.2,1.6c0.5-0.5,0.7-0.3,0.9,0.5c0.4-0.5,0.7-0.9,1.1-1.3c-0.2,0.4-0.3,0.8-0.4,1
					c0.1,0.1,0.1,0.1,0.2,0.2c0.2-0.1,0.3-0.2,0.4-0.3c0.3-0.7,0.7-1.3,1-2c0.4-1.1,0.9-2.2,1.3-3.3h0.1c-0.1,0.7-0.2,1.4-0.3,2.1
					c1-2.3,1-4.8,0.3-7.2c0.3,0.9,0.6,1.8,0.7,2.7c0.3,2.8-0.5,5.4-1.7,7.8c-0.1,0.3-0.1,0.5-0.2,0.9c0.3,0,0.4,0,0.7,0
					c-0.1,0.3-0.2,0.6-0.3,1c0.3-0.1,0.3-0.1,0.4-0.1c1.3-2.1,2.2-4.3,2.8-6.8c-0.1,0.5-0.1,1-0.2,1.7c0.2-0.7,0.3-1.2,0.4-1.6
					c0.1,0.2,0.1,0.3,0,0.4c-0.3,1.9-1,3.7-1.8,5.5c-0.3,0.5-0.3,0.5,0.2,0.9c1.7-3.1,2.8-6.4,2.5-9.9L292.4,261.7L292.4,261.7z"/>
				<path fill="#F180A2" d="M310.5,285.4c0.2,0.1,0.3,0.3,0.3,0.5c0.3,0.5,0.7,0.6,1,0.2c0.3-0.3,0.4-0.6,0.6-1
					c0.7-1.4,1.3-2.7,1.9-4.1l-1.9-1.6c-0.6,1.6-1.4,3.4-2.3,4.9C310.1,284.7,309.9,285.1,310.5,285.4z"/>
				<path fill="#F180A2" d="M297.2,270.5c-0.3,2.2-1.3,4.1-2.3,6c-0.1,0.2-0.1,0.3-0.1,0.5c0.2,0,0.3,0,0.5,0.1
					c0.1,0.1,0.2,0.3,0.2,0.3c0.1-0.1,0.3-0.2,0.3-0.3c0.5-1,1-1.8,1.5-2.8c-0.2,1-0.8,1.7-1,2.7c0.1,0,0.2,0.1,0.3,0.1
					c0.3-0.7,0.7-1.3,1-2c0.1,0,0.1,0.1,0.2,0.1c-0.3,0.6-0.7,1.2-1,1.9c-0.3,0.7-0.3,0.9,0.5,1c0.3,0.1,0.5,0.2,0.7,0.3
					c0.4,0.7,1.1,0.7,1.5-0.1c0.3-0.6,0.6-1.3,1-2c1-1.9,1.6-3.9,2-6l-4.9-4.3C297.5,267.5,297.4,269,297.2,270.5z"/>
				<path fill="#F180A2" d="M313.6,287.4c0.2,0.1,0.4,0.3,0.6,0.3c0.6,0.6,0.9,0.5,1.3-0.2c0.7-1.3,1.4-2.7,2-4l-2.5-2.2
					c-0.1,0.3-0.2,0.4-0.3,0.7c-0.5,1.2-1.1,2.4-1.7,3.6C312.6,286.4,312.9,287,313.6,287.4z"/>
				<path fill="#F180A2" d="M317.4,289.5c0.3,0.1,0.6-0.1,0.9,0c0.4,0.2,0.6-0.1,0.8-0.3c0.4-1,1-1.9,1.4-2.9l-2.3-2.1
					c-0.4,1-1,2.1-1.6,3.1C316.2,288.2,316.4,289.1,317.4,289.5z"/>
			</g>
			<path opacity="0.2" fill="#F180A2" enable-background="new    " d="M294.4,295.2c-4.3-3.7-9.3-6.2-14.8-7.6
				c-4.1-1-8.2-1.3-12.4-1.1c-2.2,0.1-4.3,0.4-6.5,0.9l26.3,23.8h0.1c1.4-0.4,2.8-1,4.1-1.5c-0.1-0.2-0.3-0.4-0.3-0.6
				c-2.3-3.5-5.2-6.1-8.8-8c-0.1-0.1-0.3-0.2-0.3-0.2c1.9,0.8,3.6,1.8,5.3,3.1c-2.8-2.4-6-4.1-9.5-5.1c0.1-0.1,0.2-0.1,0.2,0
				c1.4,0.4,2.8,0.9,4.2,1.5c3.3,1.5,6.2,3.6,8.4,6.4c0.7,0.9,1.3,1.7,1.9,2.7c1.1-0.4,2.3-1,3.4-1.5c-0.6-1.1-1.3-2.2-2.1-3.2
				c-2.5-3.2-5.6-5.8-9.3-7.6c-0.1-0.1-0.3-0.1-0.3-0.2c-0.1-0.1-0.3-0.2-0.3-0.2c0.1-0.1,0.2-0.1,0.2,0c2.5,1.1,4.9,2.6,6.8,4.5
				c1.9,1.6,3.6,3.6,4.9,5.7c0.2,0.3,0.3,0.6,0.5,0.9c0.8-0.3,1.6-0.7,2.3-1.1c-1.7-3.1-4.1-6-6.9-8.3c-5.9-4.9-12.8-7.1-20.5-7.3
				c-1.2,0-2.5,0-3.8,0c0.1,0,0.2-0.1,0.3-0.1c1.6-0.1,3.2-0.2,4.9-0.3c0.9,0,1.6,0.1,2.5,0.2c4.8,0.5,9.3,2,13.4,4.4
				c4.3,2.6,7.8,6.2,10.4,10.5c0.1,0.2,0.3,0.3,0.3,0.6c0.7-0.3,1.5-0.8,2.2-1.1c-1.9-3.4-4.3-6.3-7.3-8.9
				c-3.2-2.8-6.8-4.9-10.9-6.3c-4.6-1.6-9.4-2.3-14.3-2.2c-0.7,0-1.4,0.1-2.2,0.1c3.8-1.3,14.5,0.3,20,2.9c6.8,3.2,11.8,8,15.3,14
				c0.2-0.1,0.4-0.3,0.6-0.3C300,301.1,297.5,298,294.4,295.2z"/>
		</g>
	</g>
</g>
<g id="mtv_-_white" display="none">
	<g display="inline">
		<path fill="#FFFFFF" d="M216,365h13.6v-24.3L216,329.3V365z M250.7,341.5h11.4l3-2.6v-9.5L250.7,341.5z M249.7,201l-9.1,9.5
			L216,184.7l31.2,13.7L249.7,201z M382.1,251.5v-67l16.5,9.9v36.7C394.5,235.3,386,245.6,382.1,251.5z M398.6,264.9V365h-16.5
			v-73.2C385.6,284.1,394.1,270.8,398.6,264.9z M312.6,365c-0.5-4.5-1.2-11-1.2-16.7c0-3.6,0.5-17.8,0.5-29.3c0-9.7-2.1-27-2.1-36.3
			c0-5.6,0.4-13.3-0.2-15.9c4.5-2.9,8.4-4.8,20.8-12.2c4-2.4,11.7-6.5,11.7-11.4c0-2.2-0.6-3.6-3.7-6.2c-2.2-1.7-4.5-2.3-7.1-2.3
			c-6.3,0-9.2,6.3-14.5,9.5c-8.1,4.9-12.3,7.4-14,8.3c-0.7-0.3-3.4-1.9-7.8-1.9c-4.6,0-10,2.1-10,8.1c0,2.8,0.9,5.7-2.8,7.6
			c-2.1,1.3-12.1,7-22.8,13.4c-9,5.5-13.2,5-17,7.3c-3.6,2.1-4.4,4.8-4.4,7c0,2.1,1.3,4.6,1.7,5.2c2.4,3.1,4.6,4.8,8.4,4.8
			c6.4,0,11.8-5.6,21.8-12.7c6.2-4.4,11.9-9,15.3-9c2.9,0,5,2.3,5,11.5c0,30.9-1.9,35.9-1.9,57.3c0,3.9,0.2,11,0.3,14h-16.4v-50.7
			l-31.6,26.6L209,314.3V365H106.6V184.5h99.7l34.3,36.1l34.3-36.1h100.2v77.1c-3.2,4.9-12.8,21.5-19.4,38.4
			c-2.2,5.5-3.1,9.5-5.9,9.5c-3.1,0-3.4-3-3.6-5.8c-0.6-5.9-2-17-2.6-21.1c-1.2-7.9-2.8-16.2-11.6-16.2c-6.5,0-13.3,3.6-13.3,13.3
			c0,5.5,2.8,15.2,7.6,27.8c1.9,5,12,31.3,13.3,35.1c2.7,7,6.3,8.9,12,8.9c7.4,0,9.9-2.7,12.9-13c2.6-8.8,6.9-23.1,10.6-32.1l0,0
			V365L312.6,365L312.6,365z"/>
		<g>
			<path fill="#FFFFFF" d="M400.5,358.5h5.2v1h-2.1v5.5h-1.1v-5.5h-2.1L400.5,358.5L400.5,358.5z"/>
			<path fill="#FFFFFF" d="M406.5,358.5h1.6l1.8,5l0,0l1.7-5h1.6v6.5h-1v-5l0,0l-1.8,5h-1l-1.8-5l0,0v5h-1V358.5z"/>
		</g>
	</g>
</g>
<g id="Layer_15" display="none">
	<g display="inline">
		<g>
			<path fill="#F58A1F" d="M107.7,250c-14.8,0-28.3,6.1-38,15.8c-9.7,9.6-15.8,23.2-15.8,38v49.1h40.8v-21.5v-26.8
				c0-5.9,1.4-10.9,3.8-14.8c2.4-3.8,5.5-6.2,9.2-6.2s6.8,2.3,9.2,6.2c2.3,3.9,3.8,8.9,3.8,14.8v48.3h40.8v-49.1
				c0-14.8-6.1-28.3-15.8-38S122.5,250,107.7,250"/>
			<path fill="#F58A1F" d="M205.4,236.8c4.1-4.1,6.7-9.8,6.7-16c0-6.2-2.5-12-6.7-16c-4.1-4.1-9.8-6.7-16-6.7s-12,2.5-16,6.7
				c-4.1,4.1-6.7,9.8-6.7,16c0,6.2,2.5,12,6.7,16l5,5c8.3,8.4,8.9,10.6,1,18.5l-4.6,4.6c-3.7,3.7-6.1,8.9-6.1,14.6v73.3H210v-73.3
				c0-5.7-2.3-10.8-6.1-14.6l-4.6-4.6c-8-8-7.4-10.1,1-18.5L205.4,236.8z"/>
			<g>
				<path fill="#F58A1F" d="M278.5,320.8c-2.4,4.4-5.5,7.1-9.2,7.1s-6.8-2.6-9.2-7.1c-2.3-4.5-3.8-10.3-3.8-17.1
					c0-6.8,1.4-12.6,3.8-17.1c2.4-4.4,5.5-7,9.2-7.1c3.6,0,6.8,2.7,9.2,7.1c1.7,3.4,2.9,7.4,3.5,12h40.8
					c-1.2-12.8-6.9-24.4-15.5-32.9c-9.7-9.7-23.2-15.8-38-15.8c-14.7,0-28.3,6.1-38,15.8c-9.7,9.6-15.8,23.2-15.8,38
					c0,14.7,6.1,28.3,15.8,38c7.5,7.5,20.4,15.8,38,15.8c13.3,0,25.5-4.9,34.8-12.8c6.8-5.8,16.9-17.4,18.6-35.9h-40.8
					C281.5,313.5,280.3,317.6,278.5,320.8z"/>
			</g>
			<path fill="#F58A1F" d="M430.7,345.6c0-1.4-0.4-2.6-1-3.7l-22.4-33.8l15.4-28.1c5.7-9.7,2.5-22.2-7.2-27.9
				c-9.7-5.7-22.2-2.5-27.9,7.2l-18.5,33v-22c0-11.3-9.1-20.4-20.4-20.4s-20.4,9.1-20.4,20.4v82.4h40.7v-32.2l21.5,32.2h32.9l0,0
				C427.6,352.7,430.7,349.5,430.7,345.6z"/>
		</g>
		<g>
			<path fill="#F58A1F" d="M447,341.7h-4.2v-2.1h10.7v2.1h-4.2v11.6h-2.5L447,341.7L447,341.7z M456.6,339.4h0.4l6.7,7.5l6.6-7.5
				h0.4v14h-2.5v-8.6l-4.2,5.1h-0.4l-4.3-5.1v8.6h-2.5L456.6,339.4L456.6,339.4z"/>
		</g>
	</g>
</g>
</svg>
