<svg id="Layer_1" data-name="Layer 1" xmlns="http://www.w3.org/2000/svg" viewBox="0 0 55 37"><defs><style>.cls-1{fill:#fff;}.cls-2{fill:#00e392;}</style></defs><title>Artboard 1</title><path class="cls-1" d="M26.62,15.77l-1.11,3.51H21.88l2.94,2.1-1.13,3.42,2.93-2.12,2.93,2.12-1.13-3.42,2.94-2.1H27.74ZM4.91,21.32H7.74c.7,0,.67.59.67.59,0,.62-.67.59-.67.59H4.91Zm0-3.22H7.74c.7,0,.67.59.67.59,0,.62-.67.59-.67.59H4.9Zm5.54,1.23a6.94,6.94,0,0,0-.05.89,7.47,7.47,0,0,0,.07,1,2.11,2.11,0,0,0-1-.93,2.1,2.1,0,0,0,1-1M10,24.22a2.36,2.36,0,0,0,.68-1.79s0,0,0-.06a3.3,3.3,0,0,0,1.9,2.14,7.63,7.63,0,0,0,2.52.31h2.08V22.49h-1.5c-1.81,0-2.4.16-2.72-1.16h4.22v-2H13a1.47,1.47,0,0,1,1.46-1.2h4.16v6.73h2.63V18.09h3.3l.72-2.33H14.4a3.79,3.79,0,0,0-2.08.43,3.78,3.78,0,0,0-1.09,1,4.43,4.43,0,0,0-.5.91h0a2.22,2.22,0,0,0-1.83-2.29,9.17,9.17,0,0,0-1.11-.08H2.68v9.05h5c1.3,0,1.87-.15,2.36-.6"/><g id="XG9CAj.tif"><path class="cls-2" d="M34.95,17.69a1.73,1.73,0,0,0-.63.51c-.5.56-1,1.13-1.44,1.72a14,14,0,0,0-1.56,2.47c-.36.74-.73,1.48-1.09,2.23a8.07,8.07,0,0,0-.38.92.27.27,0,0,1-.36.2,2.29,2.29,0,0,1-.94-.51c-.09-.07-.16-.18-.26-.25a1.24,1.24,0,0,1-.46-1.28,38.87,38.87,0,0,1,2.34-9c1.6-4.14,3.06-7.35,3.31-7.84.36.13.72.24,1.06.39a.74.74,0,0,1,.36.89c-.09.34-1,2.92-1.37,3.88s-.69,1.91-1,2.86-.59,1.66-.87,2.49c-.12.34-.22.69-.33,1a2,2,0,0,0,0,.29c.13-.12,1.2-1.38,1.93-2,1.25-1.08,1.84-.78,2.21-.61l.5.22a1.21,1.21,0,0,1,.8,1.16,13.53,13.53,0,0,1-.42,3.22A14.5,14.5,0,0,0,36,23.64c0,.36.06.42.4.32a10.57,10.57,0,0,0,1-.39.21.21,0,0,0,.14-.29,3.32,3.32,0,0,1,0-1.82A10.94,10.94,0,0,1,41,16a1.3,1.3,0,0,1,1.35-.33,6.28,6.28,0,0,1,1.4.73.94.94,0,0,1,.41.86,5.74,5.74,0,0,1-.57,2.24,24.45,24.45,0,0,1-1.26,2.31,35.85,35.85,0,0,0,3-3.44c.47-.7,1-1.38,1.45-2.07.06-.09.11-.13.23-.09.3.1.62.15.91.26a.62.62,0,0,1,.42.58c0,.17,0,.33,0,.58.3-.29.54-.52.78-.74a2.54,2.54,0,0,1,1.24-.63,1.47,1.47,0,0,1,1.4.48A4,4,0,0,1,52.53,18a9.25,9.25,0,0,1,.72,2.27,0,0,0,0,1-.07,0c-.24-.19-.42-.79-1-1.62a1.39,1.39,0,0,0-1.82-.3,5,5,0,0,0-1.89,2.26,9.43,9.43,0,0,0-.66,1.72,18.82,18.82,0,0,0-.31,2c0,.14,0,.29,0,.43s-.08.35-.37.26a3,3,0,0,1-.83-.41,5.7,5.7,0,0,1-.65-.63.82.82,0,0,1-.24-.51,3.52,3.52,0,0,1,.14-1.39c.14-.5.3-1,.44-1.49a.49.49,0,0,0,0-.32l-.26.34a27.89,27.89,0,0,1-2.25,2.88c-.34.37-.7.73-1.08,1.07a2.69,2.69,0,0,1-3.1.33.33.33,0,0,0-.34,0,3.34,3.34,0,0,1-2.71.07,4.06,4.06,0,0,1-1.85-1.51,1.52,1.52,0,0,1-.21-.89,17,17,0,0,1,.23-2.08c.15-.84.36-1.67.54-2.51C34.93,17.89,34.93,17.81,34.95,17.69Zm4.7,4a12.35,12.35,0,0,0,2.51-4.08A11.32,11.32,0,0,0,39.64,21.73Z"/></g></svg>