<svg id="Layer_1" data-name="Layer 1" xmlns="http://www.w3.org/2000/svg" viewBox="0 0 54 37"><defs><style>.cls-1{fill:#86d2e2;}.cls-2{fill:#fff;}</style></defs><title>Artboard 1</title><path class="cls-1" d="M42.63,16.19c-.14-.25-.57-.34-.87-.49a.56.56,0,0,0-.26-.07,1.31,1.31,0,0,0-.58.08,1.92,1.92,0,0,0-1,1.41,1.46,1.46,0,0,0,1.59,1.62,1.3,1.3,0,0,0,1.36-.9,2.15,2.15,0,0,0-.28-1.64"/><path class="cls-2" d="M38.18,17.1a4.38,4.38,0,0,1-.69,1,1.38,1.38,0,0,1-.59.33c-1.06.34-1.25-1.88-1.14-3a.92.92,0,0,1,.35-.69c.34-.24.93-.56,1.29-.76a.54.54,0,0,1,.75.27,2.93,2.93,0,0,1,.35,1.07,3.46,3.46,0,0,1-.31,1.79M27.56,32.43c-1.06-.74-1.24-4.3-1.27-4.78-.13-2.52.95-3.88,4.94-9.69-.89,10.54-2.47,15.3-3.67,14.47m1.74-15.29c-.82.55-1-.18-.86-.67a4.47,4.47,0,0,1,2.71-3.06,5.27,5.27,0,0,1-1.85,3.73m-5.68,1.54c-.8-.16-.44-3-.48-3.21.89-.31,1.69-.53,2.52-.75a5.77,5.77,0,0,1-.3,2.17c-.11.44-.71,2-1.74,1.78m1.19-6.1c.35,0,.57.16.67.85a16.82,16.82,0,0,1-2.32.67c.1-.37,1.26-1.54,1.65-1.52M37,12.41a4.5,4.5,0,0,0-.85.57,17.14,17.14,0,0,0-1.75,1.66,7.64,7.64,0,0,1-1.11.94s.08-1.38.16-1.76c.33-1.56-.37-.92-.94-1.14a.65.65,0,0,1-.26-.24c-.39-.55-.62-1-1.35-.64-.34.17-3.56,1.26-4.34,1.45-.15-.27-.24-.59-.4-.83a2.35,2.35,0,0,0-3.89,0,14.59,14.59,0,0,0-.9,1.25,4.73,4.73,0,0,1-.92,1.09c-.31.32-.39.51-.05.82.17.16.38.49.56.65a.11.11,0,0,1,0,.12c-.3.29-2.78,2.29-4.64,3.54-.22-.59.78-6.22,1.84-11.07a38.17,38.17,0,0,1,1.13-4.19,1,1,0,0,0-.69-1.45,4.27,4.27,0,0,0-2.14,0c-.24.05-.33.16-.31.44,0,.52-.18,3.09-.22,3.6-.37,4.8-1.57,12.48-2.63,13.38s1.64,2.57,2.49,1.83c1.16-1,2.83-2.62,5.26-4.6l.19-.15a5.07,5.07,0,0,0,.72,1.62,1.71,1.71,0,0,0,1.51.53A2.71,2.71,0,0,0,25.07,19c1.07-1,1.33-1.85,1.61-4.61a16.62,16.62,0,0,1,1.6-.7,6.88,6.88,0,0,0-1.18,2.2c-.18.52-.39,1.68,0,2,.9.92,2.69-.11,3.48-1.3.49-.74.86-1.39.95-1.45,0,.32-.22,1.65-.22,1.65-4.84,5.34-7.22,8.86-7.22,11.05,0,1.31,1.1,4.84,2.18,5.5,2.43,1.47,3.94-1.43,4.58-2.65,1.34-2.54,1.89-10.32,2.46-14.36a1,1,0,0,1,.46-.22c0,.07,0,.22,0,.29a5.22,5.22,0,0,0,.69,2.11,1.66,1.66,0,0,0,1.45.89,3,3,0,0,0,2.45-1,5.39,5.39,0,0,0,1.39-2.86,3.86,3.86,0,0,0-.35-2.49A1.68,1.68,0,0,0,37,12.41"/></svg>