<?xml version="1.0" encoding="utf-8"?>
<!-- Generator: Adobe Illustrator 18.1.0, SVG Export Plug-In . SVG Version: 6.00 Build 0)  -->
<svg version="1.1" xmlns="http://www.w3.org/2000/svg" xmlns:xlink="http://www.w3.org/1999/xlink" x="0px" y="0px"
	 viewBox="0 0 600 300" enable-background="new 0 0 600 300" xml:space="preserve">
<g id="tv_land_-_red" display="none">
	<g display="inline">
		<polygon fill="#DC4643" points="249.3,92 251.7,73.1 82.4,85.5 64.3,220.6 177.8,212.5 229,208.8 174.9,234.5 522.3,210.1 
			540,71.2 		"/>
		<polygon fill="#FFFFFF" points="177.8,212.5 174.9,234.5 229,208.8 		"/>
		<g>
			<g>
				<path fill="#FFFFFF" d="M247.7,206.5l13.6-97.2l22.5-1.6l-10.9,77.7l27.4-1.9l-2.7,19.4L247.7,206.5z"/>
				<path fill="#FFFFFF" d="M302.7,202.6l34.5-98.6l27.1-1.9l7.2,95.7l-22.7,1.6l-0.5-18.7l-17.6,1.2l-5.3,19.1L302.7,202.6z
					 M348.3,120.6l-0.3,0l-12.6,44l13-0.9L348.3,120.6z"/>
				<path fill="#FFFFFF" d="M403.3,141.6l-0.3,0.3l-5.5,54l-21.3,1.5l13.6-97.2l23.1-1.6l9.8,53.1l0.4,0l5.4-54.1l21.3-1.5
					l-13.6,97.2l-23,1.6L403.3,141.6z"/>
				<path fill="#FFFFFF" d="M443,192.7l13.6-97.2l24.4-1.7c8.2-0.6,18-1,24.6,2.8c8,4.6,8,13.9,6.7,23.3l-6,43.1
					c-1.5,9.7-5.4,17.1-12.5,21.7c-6.4,4.3-13.7,5.5-20.5,5.9L443,192.7z M467.9,173.6c14.9,0,15.9-6.3,17.3-19.2l4.4-31.7
					c1.5-11.4-2.1-11.8-13.1-11.3L467.9,173.6z"/>
			</g>
			<path fill="#FFFFFF" d="M98.2,103.3l58.2-4.1l-2.7,19.4l-18.1,1.3l-10.9,77.7l-22.5,1.6l10.9-77.7l-17.6,1.2L98.2,103.3z"/>
			<path fill="#FFFFFF" d="M168.4,194.5l-7.2-95.7l22.5-1.6l2,67.3l0.3,0l21-69l22.5-1.6l-34.5,98.6L168.4,194.5z"/>
		</g>
	</g>
</g>
<g id="tv_land_-_gold" display="none">
	<g display="inline">
		<polygon fill="#F6AF18" points="247.4,89.3 249.8,70.6 81.9,82.9 63.9,216.8 176.5,208.8 227.3,205.2 173.6,230.6 518.2,206.4 
			535.7,68.7 		"/>
		<g>
			<polygon fill="#FFFFFF" points="176.5,208.8 173.6,230.6 227.3,205.2 			"/>
			<g>
				<g>
					<path fill="#FFFFFF" d="M245.8,202.8l13.5-96.4l22.3-1.6L270.8,182l27.2-1.9l-2.7,19.3L245.8,202.8z"/>
					<path fill="#FFFFFF" d="M300.4,199l34.2-97.8l26.8-1.9l7.2,94.9l-22.5,1.6l-0.5-18.5l-17.5,1.2l-5.3,18.9L300.4,199z
						 M345.6,117.7l-0.3,0l-12.5,43.6l12.9-0.9L345.6,117.7z"/>
					<path fill="#FFFFFF" d="M400.1,138.5l-0.3,0.3l-5.5,53.6l-21.1,1.5l13.5-96.4l22.9-1.6l9.7,52.6l0.4,0l5.4-53.7l21.1-1.5
						l-13.5,96.4l-22.8,1.6L400.1,138.5z"/>
					<path fill="#FFFFFF" d="M439.5,189.1L453,92.8l24.2-1.7c8.1-0.6,17.8-1,24.4,2.7c7.9,4.5,8,13.8,6.7,23.1l-6,42.8
						c-1.5,9.6-5.4,16.9-12.4,21.5c-6.4,4.3-13.5,5.4-20.4,5.9L439.5,189.1z M464.2,170.2c14.8,0,15.8-6.2,17.2-19l4.4-31.5
						c1.5-11.3-2.1-11.7-13-11.2L464.2,170.2z"/>
				</g>
				<path fill="#FFFFFF" d="M97.6,100.5l57.7-4.1l-2.7,19.3l-18,1.3L123.8,194l-22.3,1.6l10.8-77.1l-17.5,1.2L97.6,100.5z"/>
				<path fill="#FFFFFF" d="M167.2,191l-7.2-94.9l22.3-1.6l1.9,66.8l0.3,0l20.8-68.4l22.3-1.6l-34.2,97.8L167.2,191z"/>
			</g>
		</g>
	</g>
</g>
<g id="tvland_-_seagreen" display="none">
	<g display="inline">
		<polygon fill="#67B9B1" points="249,88.6 251.3,69.9 83.4,82.3 65.4,216.3 178,208.2 228.8,204.6 175.1,230 519.8,205.8 
			537.3,68.1 		"/>
		<polygon fill="#FFFFFF" points="178,208.2 175.1,230 228.8,204.6 		"/>
		<g>
			<g>
				<path fill="#FFFFFF" d="M247.4,202.2l13.5-96.4l22.3-1.6l-10.8,77.1l27.2-1.9l-2.7,19.3L247.4,202.2z"/>
				<path fill="#FFFFFF" d="M302,198.4l34.2-97.9l26.8-1.9l7.2,94.9l-22.5,1.6l-0.5-18.5l-17.5,1.2l-5.3,19L302,198.4z M347.2,117.1
					l-0.3,0l-12.5,43.6l12.9-0.9L347.2,117.1z"/>
				<path fill="#FFFFFF" d="M401.7,137.9l-0.3,0.3l-5.5,53.6l-21.1,1.5l13.5-96.4l22.9-1.6l9.7,52.6l0.4,0l5.4-53.7l21.1-1.5
					L434.3,189l-22.8,1.6L401.7,137.9z"/>
				<path fill="#FFFFFF" d="M441.1,188.6l13.5-96.4l24.2-1.7c8.1-0.6,17.8-1,24.4,2.7c7.9,4.5,8,13.8,6.7,23.1l-6,42.8
					c-1.5,9.6-5.4,16.9-12.4,21.5c-6.4,4.3-13.5,5.4-20.4,5.9L441.1,188.6z M465.8,169.6c14.8,0,15.8-6.2,17.2-19l4.4-31.5
					c1.5-11.3-2.1-11.7-13-11.2L465.8,169.6z"/>
			</g>
			<path fill="#FFFFFF" d="M99.1,99.9l57.7-4.1l-2.7,19.3l-18,1.3l-10.8,77.1L103,195l10.8-77.1l-17.5,1.2L99.1,99.9z"/>
			<path fill="#FFFFFF" d="M168.8,190.4l-7.2-94.9l22.3-1.6l1.9,66.8l0.3,0l20.9-68.4l22.3-1.6L195,188.5L168.8,190.4z"/>
		</g>
	</g>
</g>
<g id="spike_-_white" display="none">
	<g display="inline">
		<polygon fill="#FFFFFF" points="520,102.8 522.9,102.8 522.9,111 525.1,111 525.1,102.8 528,102.8 528,100.8 520,100.9 		"/>
		<polygon fill="#FFFFFF" points="540.8,100.8 537.5,100.8 535.1,107.4 535.1,107.4 532.8,100.8 529.4,100.8 529.4,111 531.6,111 
			531.6,103.2 531.6,103.2 534.2,111 535.9,111 538.6,103.2 538.6,103.2 538.6,111 540.8,111 		"/>
		<path fill="#FFFFFF" d="M247.7,98.4c-10.8,0-18,3.6-21.5,6.4c-1.1,0.7-1.8,1.5-3.7,3.7v-7.5h-36.9v46.4
			c-3.5-20.1-20.2-26.2-27.4-28.5c-12.8-4.3-25-6-29.5-6.8c-3.5-0.6-11.2-2.1-14.5-4.1c-1.8-1.3-3.3-3.6-3.3-6
			c0-4.5,4.4-6.6,5.1-6.9c3.9-1.7,8.8-1.7,9.7-1.7c9.7,0,22.8,2.1,30.3,9.2c1.1,0.9,2,2.1,3.7,4.3l24.3-23.5
			c-2.7-2.8-4.9-5.1-8.4-7.6c-18.5-13.9-41.8-14.3-48.4-14.3c-5,0-39.3-0.4-52.5,24.4c-4.6,8.4-4.8,16.5-4.8,20.1
			c-0.2,14.4,7.2,23.3,11.2,26.8c6.2,5.6,15.8,10.1,33.6,13.7c11.6,2.4,19.8,3.6,24.4,5.2c3.8,1.3,5.3,3,6.2,4.9
			c0.2,0.6,0.9,1.7,0.9,3.2c0,6.6-8.1,10.1-19.6,10.1c-9,0-22.6-2.8-29.9-9.4c-1.8-1.5-3.5-3.6-6.2-8.1l-26.9,26
			c2.7,3.1,5.5,5.8,9.3,8.7c15.4,11.8,33.4,15,52.3,15c5.5,0,27.3,0.4,44-12.2c4.9-3.7,13.9-12.1,16.4-26.9V247l37.1-38.1v-18.9
			c1.1,2.1,3,4.1,4.3,5c2,1.4,3.8,2.6,5.9,3.4l55.7-58C286,117.4,273.7,98.4,247.7,98.4z M244.2,170.5c-3.1,1.8-5.7,2-7.3,2
			c-1.3,0-3.7,0-6.6-1.6c-7.3-4-7.9-13.5-7.9-20.7c0-7.4,0.4-16.8,8.1-20.9c2.9-1.6,5.9-1.8,7.3-1.8c1.8,0,6.8,0.7,10.1,5
			c3.7,4.9,4,12.3,4,18C251.9,157.4,251,166.4,244.2,170.5z"/>
		<polygon fill="#FFFFFF" points="326.5,100.3 288.7,139.9 288.7,198.2 326.5,198.2 		"/>
		<path fill="#FFFFFF" d="M307.6,100c10.4,0,18.9-8.6,18.9-19.3c0-10.7-8.5-19.3-18.9-19.3c-10.4,0-18.9,8.6-18.9,19.3
			C288.7,91.4,297.2,100,307.6,100z"/>
		<polygon fill="#FFFFFF" points="372.6,171 382.5,161.2 403,198.2 446.1,198.2 435,179.9 433.6,177.5 408.3,136.1 444.5,101.1 
			398.4,101.1 372.6,128.8 372.6,52.7 334.8,92 334.8,198.2 372.6,198.2 		"/>
		<path fill="#FFFFFF" d="M524.1,131.3c-1.9-6.3-5.3-12.4-9.7-17.3c-13.2-14.6-31.9-15.5-38-15.5c-5.1,0-23.2,0.9-36.3,13.7
			c-5.3,5.2-13.9,17.1-13.9,36.4c0,9.8,2.4,19.3,6.9,27.3l1.4,2.3c4.8,7.5,11.7,13.6,20.6,17.3c6.9,2.9,14.1,4,21.7,4
			c7.6,0,14.8-1.1,21.7-4C512,189.9,521,178.5,525,165h-32.7c-1.7,3.7-5.5,8.5-13.7,8.4l-0.1-0.1c-9.7,0.2-14.2-6.7-15.4-10.3
			c-0.9-2.9-0.9-7.2-0.9-7.2h64.6C526.8,147.4,526.6,139.5,524.1,131.3z M462.6,136.2c0.3-2,1.2-9.5,7.9-12.6
			c1.1-0.5,3.8-1.3,6.6-1.4c2.8,0,9.5,1.1,12,8.8c0.7,2.3,0.7,4.1,0.9,5.2H462.6z"/>
	</g>
</g>
<g id="vh1_-_blue" display="none">
	<g display="inline">
		<path fill="#39A7C2" d="M380.6,130.8c-1.7,0-3-1.4-3-3.1V76.1c0-1.7-1.4-3.1-3.1-3.1h-43c-1.7,0-3.1,1.4-3.1,3.1v51.7
			c0,1.7-1.4,3.1-3.1,3.1h-41.7c-1.7,0-3.1,1.4-3.1,3v43c0,1.7,1.4,3.1,3.1,3.1h41.7c1.7,0,3.1,1.4,3.1,3.1v51.7
			c0,1.7,1.4,3.1,3.1,3.1h43c1.7,0,3.1-1.4,3.1-3.1V183c0-1.7,1.4-3.1,3.1-3.1h41.7c1.7,0,3-1.4,3-3.1v-46.1H380.6z"/>
		<path fill="#62E6F3" d="M499.1,73H460c-2.3,0-4.2,0.8-5.6,1.8l-26.6,19.9c-1.4,0.9-2.5,2.7-2.5,4.8v17.4v13.9H450
			c1.7,0,3.1,1.4,3.1,3v100.8c0,1.7,1.4,3.1,3.1,3.1h43c1.7,0,3-1.4,3-3.1V76.1C502.2,74.4,500.8,73,499.1,73"/>
		<path fill="#62E6F3" d="M282.5,73h-93.9c-1.7,0-3.5,1.3-3.9,2.9l-25.6,83c-0.1,0.4-0.6,0.8-1.1,0.8c-0.5,0-0.9-0.3-1.1-0.8
			l-25.6-83c-0.5-1.6-2.3-2.9-4-2.9H81.8c-1.7,0-2.6,1.3-2,2.9l56.9,159c0.5,1.6,2.4,2.9,4.1,2.9h34.4c1.7,0,3.5-1.3,4.1-2.9
			l55-153.5c0.2-0.5,0.6-0.8,1.1-0.8c0.5,0,1.1,0.5,1.1,1v153.1c0,1.7,1.4,3.1,3.1,3.1h43c1.7,0,3.1-1.4,3.1-3.1V76.1
			C285.6,74.4,284.3,73,282.5,73"/>
	</g>
</g>
<g id="vh1_-_purple" display="none">
	<g display="inline">
		<path fill="#68009C" d="M402.6,121.9c-1.9,0-3.4-1.6-3.4-3.5V60.1c0-1.9-1.6-3.4-3.5-3.4h-48.6c-1.9,0-3.5,1.5-3.5,3.4v58.3
			c0,1.9-1.5,3.5-3.4,3.5h-47.1c-1.9,0-3.5,1.6-3.5,3.4v48.6c0,1.9,1.6,3.5,3.5,3.5h47.1c1.9,0,3.4,1.5,3.4,3.5v58.3
			c0,1.9,1.6,3.5,3.5,3.5h48.5c1.9,0,3.5-1.6,3.5-3.5v-58.3c0-1.9,1.5-3.5,3.5-3.5h47.1c1.9,0,3.4-1.5,3.4-3.5v-52H402.6z"/>
		<path fill="#8B00C3" d="M536.4,56.7h-44.2c-2.6,0-4.7,0.9-6.3,2l-30,22.5c-1.5,1.1-2.8,3-2.8,5.4v19.6v15.7h27.8
			c1.9,0,3.5,1.6,3.5,3.4v113.8c0,1.9,1.6,3.5,3.5,3.5h48.6c1.9,0,3.4-1.6,3.4-3.5V60.1C539.9,58.2,538.3,56.7,536.4,56.7"/>
		<path fill="#8B00C3" d="M292,56.7H186c-1.9,0-3.9,1.5-4.5,3.3l-28.9,93.7c-0.2,0.5-0.6,0.8-1.2,0.8c-0.5,0-1-0.4-1.2-0.8
			l-28.9-93.7c-0.6-1.8-2.6-3.3-4.5-3.3H65.4c-1.9,0-2.9,1.5-2.3,3.2l64.2,179.5c0.6,1.8,2.7,3.3,4.6,3.3h38.8c1.9,0,4-1.5,4.6-3.3
			l62-173.3c0.2-0.5,0.7-0.9,1.2-0.9c0.6,0,1.3,0.6,1.3,1.2v172.8c0,1.9,1.5,3.5,3.5,3.5H292c1.9,0,3.5-1.6,3.5-3.5V60.1
			C295.4,58.2,293.9,56.7,292,56.7"/>
	</g>
</g>
<g id="vh1_-_green" display="none">
	<g display="inline">
		<path fill="#30B317" d="M398.5,122.7c-1.8,0-3.3-1.5-3.3-3.3V63.1c0-1.8-1.5-3.3-3.3-3.3H345c-1.8,0-3.3,1.5-3.3,3.3v56.3
			c0,1.8-1.5,3.3-3.3,3.3h-45.5c-1.8,0-3.3,1.5-3.3,3.3v46.9c0,1.9,1.5,3.3,3.3,3.3h45.5c1.9,0,3.3,1.5,3.3,3.4V236
			c0,1.8,1.5,3.3,3.3,3.3h46.8c1.9,0,3.4-1.5,3.4-3.3v-56.3c0-1.9,1.5-3.4,3.3-3.4H444c1.8,0,3.3-1.5,3.3-3.3v-50.2H398.5z"/>
		<path fill="#2AE130" d="M527.7,59.7h-42.6c-2.6,0-4.6,0.8-6.1,1.9l-29,21.7c-1.5,1-2.7,2.9-2.7,5.2v18.9v15.2h26.8
			c1.8,0,3.3,1.5,3.3,3.3V236c0,1.8,1.5,3.3,3.4,3.3h46.9c1.8,0,3.3-1.5,3.3-3.3V63.1C531,61.2,529.5,59.7,527.7,59.7"/>
		<path fill="#2AE130" d="M291.6,59.7H189.3c-1.8,0-3.8,1.4-4.3,3.2L157,153.3c-0.2,0.5-0.6,0.8-1.2,0.8c-0.5,0-1-0.3-1.2-0.8
			l-27.9-90.4c-0.5-1.7-2.5-3.2-4.3-3.2H72.9c-1.8,0-2.8,1.4-2.2,3.1l62,173.3c0.6,1.7,2.6,3.2,4.5,3.2h37.5c1.8,0,3.9-1.4,4.4-3.2
			L239,68.8c0.2-0.5,0.6-0.9,1.2-0.9c0.6,0,1.2,0.6,1.2,1.1V236c0,1.8,1.5,3.3,3.4,3.3h46.9c1.9,0,3.3-1.5,3.3-3.3V63.1
			C295,61.2,293.5,59.7,291.6,59.7"/>
	</g>
</g>
<g id="comedy_-_pink" display="none">
	<path display="inline" fill="#F95C52" d="M296.6,228.7c-36.7,0-70.3-20-87.8-52.3l18-9.8c13.9,25.6,40.6,41.6,69.8,41.6
		c43.7,0,79.3-35.6,79.3-79.3c0-43.7-35.6-79.3-79.3-79.3c-28.8,0-55.3,15.6-69.3,40.8l-17.9-10c17.6-31.7,51.1-51.4,87.3-51.4
		c55,0,99.8,44.8,99.8,99.8C396.4,183.9,351.6,228.7,296.6,228.7"/>
	<path display="inline" fill="#F95C52" d="M296.4,178.2c-27.2,0-49.3-22.1-49.3-49.4c0-27.2,22.1-49.4,49.3-49.4
		c17.9,0,34.4,9.7,43.1,25.3l-17.9,10c-5.1-9.1-14.8-14.8-25.2-14.8c-15.9,0-28.8,12.9-28.8,28.9c0,15.9,12.9,28.9,28.8,28.9
		c10.7,0,20.4-5.8,25.4-15.2l18.1,9.7C331.3,168.3,314.6,178.2,296.4,178.2"/>
	<path display="inline" fill="#FFFFFF" d="M172.6,251.2c2.7,0,4.6,0.8,6.4,2.5c0.2,0.2,0.2,0.5,0,0.7l-2.1,2.2
		c-0.2,0.2-0.5,0.2-0.7,0c-1-0.9-2.3-1.4-3.6-1.4c-3,0-5.2,2.5-5.2,5.5c0,2.9,2.2,5.4,5.2,5.4c1.2,0,2.6-0.5,3.6-1.3
		c0.2-0.2,0.5-0.2,0.7,0l2.1,2.2c0.2,0.2,0.2,0.5,0,0.7c-1.8,1.8-4.1,2.6-6.5,2.6c-5.3,0-9.6-4.2-9.6-9.6
		C163,255.5,167.3,251.2,172.6,251.2"/>
	<path display="inline" fill="#FFFFFF" d="M193.8,251.2c5.3,0,9.6,4.3,9.6,9.6c0,5.3-4.3,9.6-9.6,9.6c-5.3,0-9.5-4.2-9.5-9.6
		C184.3,255.5,188.5,251.2,193.8,251.2 M193.8,266.1c2.9,0,5.3-2.4,5.3-5.3c0-2.9-2.4-5.3-5.3-5.3c-2.9,0-5.3,2.4-5.3,5.3
		C188.5,263.7,190.9,266.1,193.8,266.1"/>
	<path display="inline" fill="#FFFFFF" d="M211.9,251.6c0-0.2,0.3-0.4,0.5-0.4h0.4c0.1,0,0.4,0.1,0.4,0.3l6.2,11.5h0.1l6.2-11.5
		c0.1-0.2,0.3-0.3,0.4-0.3h0.4c0.2,0,0.5,0.2,0.5,0.4l3,17.9c0.1,0.4-0.2,0.6-0.5,0.6h-3.1c-0.2,0-0.5-0.2-0.5-0.4l-1.2-8.2h0
		l-4.5,8.6c-0.1,0.2-0.3,0.3-0.5,0.3h-0.5c-0.2,0-0.4-0.1-0.5-0.3l-4.5-8.6h0l-1.2,8.2c0,0.2-0.2,0.4-0.5,0.4h-3.1
		c-0.3,0-0.6-0.2-0.5-0.6L211.9,251.6z"/>
	<path display="inline" fill="#FFFFFF" d="M236.9,252c0-0.3,0.2-0.5,0.5-0.5h11c0.3,0,0.5,0.2,0.5,0.5v2.9c0,0.3-0.2,0.5-0.5,0.5
		H241v3.3h6.1c0.3,0,0.5,0.2,0.5,0.5v2.9c0,0.3-0.2,0.5-0.5,0.5H241v3.6h7.4c0.3,0,0.5,0.2,0.5,0.5v2.9c0,0.3-0.2,0.5-0.5,0.5h-11
		c-0.3,0-0.5-0.2-0.5-0.5V252z"/>
	<path display="inline" fill="#FFFFFF" d="M255.9,252c0-0.3,0.2-0.5,0.5-0.5h6.5c5.1,0,9.3,4.2,9.3,9.3c0,5.2-4.2,9.3-9.3,9.3h-6.5
		c-0.3,0-0.5-0.2-0.5-0.5V252z M262.6,266.1c3,0,5.2-2.4,5.2-5.4c0-3-2.2-5.4-5.2-5.4h-2.5v10.8H262.6z"/>
	<path display="inline" fill="#FFFFFF" d="M282,261.1l-5.9-8.9c-0.2-0.4,0-0.8,0.4-0.8h3.5c0.2,0,0.3,0.1,0.4,0.2l3.7,5.5l3.7-5.5
		c0.1-0.1,0.2-0.2,0.4-0.2h3.5c0.4,0,0.6,0.4,0.4,0.8l-6,8.9v8.5c0,0.3-0.2,0.5-0.5,0.5h-3.2c-0.3,0-0.5-0.2-0.5-0.5V261.1z"/>
	<path display="inline" fill="#FFFFFF" d="M426.7,270.3c-2.7,0-4.6-0.8-6.4-2.5c-0.2-0.2-0.2-0.5,0-0.7l2.1-2.2
		c0.2-0.2,0.5-0.2,0.7,0c1,0.9,2.3,1.4,3.6,1.4c3,0,5.2-2.5,5.2-5.5c0-3-2.2-5.4-5.2-5.4c-1.3,0-2.6,0.4-3.6,1.3
		c-0.2,0.2-0.5,0.2-0.7,0l-2.1-2.2c-0.2-0.2-0.2-0.5,0-0.7c1.8-1.7,4.1-2.6,6.5-2.6c5.3,0,9.6,4.2,9.6,9.6
		C436.3,266.1,432,270.3,426.7,270.3"/>
	<path display="inline" fill="#FFFFFF" d="M413.6,269.6c0,0.3-0.2,0.5-0.5,0.5h-11c-0.3,0-0.5-0.2-0.5-0.5v-2.9
		c0-0.3,0.2-0.5,0.5-0.5h7.4v-3.3h-6.1c-0.3,0-0.5-0.2-0.5-0.5v-2.9c0-0.3,0.2-0.5,0.5-0.5h6.1v-3.6h-7.4c-0.3,0-0.5-0.2-0.5-0.5
		V252c0-0.3,0.2-0.5,0.5-0.5h11c0.3,0,0.5,0.2,0.5,0.5V269.6z"/>
	<path display="inline" fill="#FFFFFF" d="M394.6,269.9c0,0.3-0.2,0.5-0.5,0.5h-0.7l-10.6-10.2h0v9.4c0,0.3-0.2,0.5-0.5,0.5h-3.2
		c-0.3,0-0.5-0.2-0.5-0.5v-17.9c0-0.3,0.2-0.5,0.5-0.5h0.4c0.1,0,0.3,0.1,0.3,0.1l10.5,10.6h0v-9.9c0-0.3,0.2-0.5,0.5-0.5h3.2
		c0.3,0,0.5,0.2,0.5,0.5L394.6,269.9z"/>
	<path display="inline" fill="#FFFFFF" d="M368.1,266.2h3.8c0.3,0,0.5,0.2,0.5,0.5v2.9c0,0.3-0.2,0.5-0.5,0.5h-11.8
		c-0.3,0-0.5-0.2-0.5-0.5v-2.9c0-0.3,0.2-0.5,0.5-0.5h3.8V252c0-0.3,0.2-0.5,0.5-0.5h3.2c0.3,0,0.5,0.2,0.5,0.5V266.2z"/>
	<path display="inline" fill="#FFFFFF" d="M353.5,269.6c0,0.3-0.2,0.5-0.5,0.5h-8c-3.2,0-5.8-2.6-5.8-5.7c0-2.4,1.6-4.4,3.9-5.3
		l-3.6-6.7c-0.2-0.4,0-0.8,0.5-0.8h3.5c0.2,0,0.4,0.1,0.4,0.2l3.5,7.1h1.8V252c0-0.3,0.2-0.5,0.5-0.5h3.2c0.3,0,0.5,0.2,0.5,0.5
		V269.6z M345.4,262.1c-1.1,0-2,1-2,2.1c0,1.1,0.9,2,2,2h3.9v-4.2H345.4z"/>
	<path display="inline" fill="#FFFFFF" d="M334.6,252.1l-8.3,17.9c-0.1,0.2-0.3,0.3-0.5,0.3h-0.3c-0.2,0-0.4-0.1-0.5-0.3l-8.3-17.9
		c-0.2-0.4,0.1-0.7,0.5-0.7h2.9c0.5,0,0.7,0.2,0.9,0.7l1,2.1h7.2l1-2.1c0.1-0.3,0.4-0.6,1-0.6h2.9
		C334.6,251.5,334.8,251.8,334.6,252.1 M323.7,257.8l2,4.4h0l2-4.4H323.7z"/>
	<path display="inline" fill="#FFFFFF" d="M311.2,269.6c0,0.3-0.2,0.5-0.5,0.5h-3.2c-0.3,0-0.5-0.2-0.5-0.5v-14.2h-6.3
		c-0.3,0-0.5-0.2-0.5-0.5V252c0-0.3,0.2-0.5,0.5-0.5h10c0.3,0,0.5,0.2,0.5,0.5V269.6z"/>
	<path display="inline" fill="#F95C52" d="M381.6,198.5c0,0.1,0.1,0.1,0.1,0.1h0.2c0.1,0,0.1-0.1,0.1-0.1v-3.7h1
		c0.1,0,0.1-0.1,0.1-0.1v-0.2c0-0.1,0-0.1-0.1-0.1h-2.5c-0.1,0-0.1,0.1-0.1,0.1v0.2c0,0.1,0,0.1,0.1,0.1h1V198.5z M383.4,198.5
		c0,0.1,0,0.1,0.1,0.1h0.2c0,0,0.1,0,0.1-0.1l0.5-3.1h0l1.1,3.1c0,0,0.1,0.1,0.1,0.1h0.1c0,0,0.1,0,0.1-0.1l1.1-3.1h0l0.5,3.1
		c0,0,0.1,0.1,0.1,0.1h0.2c0.1,0,0.1-0.1,0.1-0.1l-0.8-4c0-0.1-0.1-0.1-0.1-0.1H387c0,0-0.1,0-0.1,0.1l-1.2,3.3h0l-1.2-3.3
		c0,0-0.1-0.1-0.1-0.1h-0.1c0,0-0.1,0-0.1,0.1L383.4,198.5z"/>
</g>
<g id="comedy_-_yellow" display="none">
	<path display="inline" fill="#B6BD00" d="M298,238.2c-40.9,0-78.5-22.4-98-58.4l20.1-10.9c15.5,28.6,45.4,46.4,77.9,46.4
		c48.8,0,88.5-39.7,88.5-88.5c0-48.8-39.7-88.5-88.5-88.5c-32.1,0-61.8,17.5-77.4,45.6l-20-11.1c19.7-35.4,57-57.3,97.4-57.3
		c61.4,0,111.4,50,111.4,111.4C409.4,188.2,359.4,238.2,298,238.2"/>
	<path display="inline" fill="#B6BD00" d="M297.8,181.9c-30.4,0-55.1-24.7-55.1-55.1c0-30.4,24.7-55.1,55.1-55.1
		c20,0,38.4,10.8,48.1,28.2l-20,11.2c-5.7-10.2-16.5-16.5-28.2-16.5c-17.8,0-32.2,14.4-32.2,32.2c0,17.8,14.5,32.2,32.2,32.2
		c11.9,0,22.8-6.5,28.4-17l20.2,10.8C336.8,170.8,318.2,181.9,297.8,181.9"/>
	<path display="inline" fill="#FFFFFF" d="M159.6,263.3c3,0,5.2,0.9,7.2,2.8c0.3,0.2,0.3,0.6,0,0.8l-2.3,2.4c-0.2,0.2-0.5,0.2-0.7,0
		c-1.1-1-2.5-1.5-4-1.5c-3.4,0-5.8,2.8-5.8,6.1c0,3.3,2.5,6,5.9,6c1.4,0,2.9-0.5,4-1.4c0.2-0.2,0.6-0.2,0.8,0l2.3,2.5
		c0.2,0.2,0.2,0.6,0,0.8c-2,2-4.6,2.9-7.2,2.9c-5.9,0-10.7-4.7-10.7-10.7C148.9,268.1,153.6,263.3,159.6,263.3"/>
	<path display="inline" fill="#FFFFFF" d="M183.3,263.3c5.9,0,10.7,4.8,10.7,10.7c0,5.9-4.7,10.7-10.7,10.7
		c-5.9,0-10.7-4.7-10.7-10.7C172.6,268.1,177.3,263.3,183.3,263.3 M183.3,280c3.3,0,5.9-2.7,5.9-5.9c0-3.3-2.7-6-5.9-6
		c-3.2,0-5.9,2.7-5.9,6C177.4,277.3,180,280,183.3,280"/>
	<path display="inline" fill="#FFFFFF" d="M203.5,263.8c0-0.3,0.3-0.5,0.5-0.5h0.5c0.1,0,0.4,0.1,0.5,0.3l6.9,12.8h0.1l6.9-12.8
		c0.1-0.2,0.4-0.3,0.5-0.3h0.5c0.2,0,0.5,0.2,0.5,0.5l3.4,19.9c0.1,0.4-0.2,0.7-0.6,0.7h-3.5c-0.3,0-0.5-0.2-0.6-0.5l-1.3-9.2h-0.1
		l-5,9.6c-0.1,0.2-0.4,0.3-0.5,0.3h-0.5c-0.2,0-0.4-0.2-0.5-0.3l-5-9.6h0l-1.3,9.2c0,0.2-0.3,0.5-0.6,0.5h-3.5
		c-0.4,0-0.6-0.3-0.6-0.7L203.5,263.8z"/>
	<path display="inline" fill="#FFFFFF" d="M231.4,264.2c0-0.3,0.2-0.6,0.6-0.6h12.3c0.3,0,0.6,0.3,0.6,0.6v3.2
		c0,0.3-0.2,0.6-0.6,0.6H236v3.7h6.8c0.3,0,0.6,0.3,0.6,0.5v3.2c0,0.3-0.3,0.6-0.6,0.6H236v4h8.2c0.3,0,0.6,0.3,0.6,0.6v3.2
		c0,0.3-0.2,0.6-0.6,0.6h-12.3c-0.3,0-0.6-0.3-0.6-0.6V264.2z"/>
	<path display="inline" fill="#FFFFFF" d="M252.6,264.2c0-0.3,0.2-0.6,0.5-0.6h7.3c5.7,0,10.4,4.7,10.4,10.4
		c0,5.8-4.7,10.4-10.4,10.4h-7.3c-0.3,0-0.5-0.3-0.5-0.6V264.2z M260.1,280c3.4,0,5.8-2.7,5.8-6c0-3.4-2.4-6-5.8-6h-2.8v12H260.1z"
		/>
	<path display="inline" fill="#FFFFFF" d="M281.7,274.4l-6.6-9.9c-0.2-0.4,0-0.9,0.5-0.9h3.9c0.2,0,0.4,0.1,0.5,0.3l4.1,6.1l4.1-6.1
		c0.1-0.1,0.2-0.3,0.5-0.3h3.9c0.5,0,0.7,0.5,0.5,0.9l-6.6,9.9v9.5c0,0.3-0.3,0.6-0.6,0.6h-3.5c-0.3,0-0.6-0.3-0.6-0.6V274.4z"/>
	<path display="inline" fill="#FFFFFF" d="M443.3,284.7c-3,0-5.2-0.9-7.2-2.8c-0.3-0.2-0.3-0.6,0-0.8l2.3-2.4c0.2-0.2,0.5-0.2,0.7,0
		c1.1,1,2.6,1.5,4,1.5c3.4,0,5.8-2.8,5.8-6.1c0-3.3-2.5-6-5.9-6c-1.4,0-2.9,0.5-4,1.4c-0.2,0.2-0.6,0.2-0.8,0L436,267
		c-0.2-0.2-0.2-0.6,0-0.8c2-2,4.6-2.9,7.2-2.9c5.9,0,10.7,4.7,10.7,10.7C454,279.9,449.2,284.7,443.3,284.7"/>
	<path display="inline" fill="#FFFFFF" d="M428.6,283.9c0,0.3-0.2,0.6-0.6,0.6h-12.3c-0.3,0-0.6-0.3-0.6-0.6v-3.2
		c0-0.3,0.2-0.6,0.6-0.6h8.2v-3.7h-6.8c-0.3,0-0.6-0.3-0.6-0.6v-3.2c0-0.3,0.3-0.6,0.6-0.6h6.8v-4h-8.2c-0.3,0-0.6-0.3-0.6-0.6v-3.2
		c0-0.3,0.2-0.6,0.6-0.6h12.3c0.3,0,0.6,0.3,0.6,0.6V283.9z"/>
	<path display="inline" fill="#FFFFFF" d="M407.4,284.2c0,0.3-0.3,0.5-0.6,0.5h-0.7l-11.8-11.4h0v10.5c0,0.3-0.2,0.6-0.6,0.6h-3.6
		c-0.3,0-0.6-0.3-0.6-0.6v-20c0-0.3,0.3-0.5,0.6-0.5h0.5c0.1,0,0.3,0.1,0.4,0.2l11.7,11.8h0v-11.1c0-0.3,0.2-0.6,0.6-0.6h3.5
		c0.3,0,0.6,0.3,0.6,0.6L407.4,284.2z"/>
	<path display="inline" fill="#FFFFFF" d="M377.9,280.1h4.2c0.3,0,0.6,0.3,0.6,0.6v3.2c0,0.3-0.2,0.6-0.6,0.6h-13.2
		c-0.3,0-0.6-0.3-0.6-0.6v-3.2c0-0.3,0.2-0.6,0.6-0.6h4.2v-15.9c0-0.3,0.3-0.6,0.6-0.6h3.6c0.3,0,0.6,0.3,0.6,0.6V280.1z"/>
	<path display="inline" fill="#FFFFFF" d="M361.5,283.9c0,0.3-0.2,0.6-0.6,0.6h-8.9c-3.6,0-6.5-2.9-6.5-6.4c0-2.7,1.8-4.9,4.4-6
		l-4.1-7.5c-0.2-0.4,0-0.9,0.5-0.9h4c0.2,0,0.4,0.1,0.5,0.3l3.9,7.9h2.1v-7.6c0-0.3,0.3-0.6,0.6-0.6h3.5c0.3,0,0.6,0.3,0.6,0.6
		V283.9z M352.5,275.5c-1.2,0-2.3,1.1-2.3,2.4c0,1.3,1,2.3,2.3,2.3h4.4v-4.6H352.5z"/>
	<path display="inline" fill="#FFFFFF" d="M340.5,264.4l-9.3,20c-0.1,0.2-0.3,0.3-0.5,0.3h-0.3c-0.2,0-0.4-0.2-0.5-0.3l-9.3-20
		c-0.2-0.4,0.1-0.8,0.5-0.8h3.3c0.5,0,0.8,0.2,1,0.7l1.1,2.3h8.1l1.1-2.4c0.2-0.4,0.5-0.7,1.1-0.7h3.3
		C340.4,263.6,340.6,264,340.5,264.4 M328.3,270.7l2.3,4.9h0l2.2-4.9H328.3z"/>
	<path display="inline" fill="#FFFFFF" d="M314.3,283.9c0,0.3-0.2,0.6-0.6,0.6h-3.5c-0.3,0-0.6-0.3-0.6-0.6V268h-7.1
		c-0.3,0-0.6-0.3-0.6-0.6v-3.2c0-0.3,0.2-0.6,0.6-0.6h11.2c0.3,0,0.6,0.3,0.6,0.6V283.9z"/>
	<path display="inline" fill="#B6BD00" d="M392.8,204.5c0,0.1,0.1,0.1,0.1,0.1h0.3c0.1,0,0.1-0.1,0.1-0.1v-4.1h1.2
		c0.1,0,0.1-0.1,0.1-0.1v-0.2c0-0.1-0.1-0.1-0.1-0.1h-2.8c-0.1,0-0.1,0.1-0.1,0.1v0.2c0,0.1,0,0.1,0.1,0.1h1.2V204.5z M394.9,204.5
		c0,0.1,0,0.2,0.1,0.2h0.3c0.1,0,0.1,0,0.1-0.1l0.6-3.4h0l1.2,3.5c0,0,0.1,0.1,0.1,0.1h0.1c0,0,0.1,0,0.1-0.1l1.2-3.5h0l0.6,3.4
		c0,0,0.1,0.1,0.1,0.1h0.3c0.1,0,0.1-0.1,0.1-0.2l-0.9-4.5c0-0.1-0.1-0.1-0.1-0.1h-0.1c0,0-0.1,0-0.1,0.1l-1.3,3.7h0l-1.3-3.7
		c0,0-0.1-0.1-0.1-0.1h-0.1c0,0-0.1,0-0.1,0.1L394.9,204.5z"/>
</g>
<g id="bet_-_white" display="none">
	<path display="inline" fill="#FFFFFF" d="M541.9,124h-60.5l-18.6-58.6L444.2,124h-60.6l49.1,35.1l-18.8,57.1l48.9-35.4l48.9,35.4
		l-18.8-57.1L541.9,124z M440.3,65.3H258.8c-16.5,0-26.5,2.3-34.7,7.2C217.4,76.8,211,82.7,206,90c-3.4,4.8-6.2,9.8-8.3,15.1
		c0-0.1,0-0.1,0-0.2c0-19.7-12.7-35.6-30.6-38.3c-4.8-0.7-12.7-1.4-18.6-1.4H63.2v151.1h83.6c21.7,0,31.3-2.5,39.4-10
		c7.5-6.8,11.3-17.4,11.3-29.9c0-0.3,0-0.7,0-1c6.2,17.7,17.3,30.5,31.7,35.7c10.2,3.6,23.3,5.2,42.1,5.2H306v-38.8h-25.1
		c-30.2-0.1-40.1,2.7-45.3-19.3H306v-34.1l-70.5,0c0,0,3.5-20,24.4-20c6.2,0,10.3,0,21.2,0h48.2v112.3h43.8V104.1h55.1L440.3,65.3z
		 M100.2,104.2h47.3c11.7,0,11.1,9.8,11.1,9.8c0,10.3-11.2,9.8-11.2,9.8h-47.3V104.2z M158.8,167.8c0,10.3-11.2,9.8-11.2,9.8h-47.3
		V158h47.3C159.4,158,158.8,167.8,158.8,167.8z M175.7,140.9c7-2.9,13-8.8,16.9-16.2c-0.6,4.6-0.9,9.5-0.9,14.8
		c0,5.9,0.4,11.5,1.2,16.9C189.3,149.8,183.6,144.5,175.7,140.9z"/>
</g>
<g id="cmt_-_dkblue" display="none">
	<g display="inline">
		<g>
			<g>
				<g>
					<path fill="#0076A2" d="M383.6,68.3v16.3l-1.1,0.3c0,0-4.2,1.2-4.4,1.2c-4.5,0.8-7.2,7.4-7.2,17.6V194
						c0,11.2,2.3,16.7,7.6,17.6l5.4,1.5v16.3h-60.4v-16.4l1.2-0.3c0,0,5.8-1.2,5.8-1.2c5.3-1.1,7.5-6.4,7.5-17.6c0,0,0-69.7,0-82.6
						c-4.4,12.8-40.3,117.9-40.3,117.9H289c0,0-35.4-104.9-39.8-117.8c0,13,0,82.5,0,82.5c0,11.2,2.3,16.5,7.5,17.6l7.1,1.4v16.4
						h-47.6v-16.3l1.1-0.3c0,0,4.4-1.2,4.5-1.2c5-0.9,7.2-6.3,7.2-17.6v-90.3c0-10.2-2.7-16.8-7.4-17.6l-5.5-1.5V68.3h58.6
						c0,0,24.6,73.7,27.3,81.7c2.6-8,26.1-81.7,26.1-81.7H383.6z"/>
					<path fill="#0076A2" d="M146.3,66.6c8,0,15.1,1.5,22.2,4.7c4.6,2.3,9.4,3.9,12,3.9c1.2,0,2.7,0,2.7-6.1v-1.5h21.1v52.5H174
						v-1.5c0-23.5-3.1-33.3-22.4-33.3c-15.6,0-22.8,7.9-22.8,25v71.2c0,9.4,2.1,31.2,21.3,31.2c16.6,0,24-10.6,24-34.3v-1.5h30.4
						v1.5c0,24.3-14.5,52.7-55.2,52.7c-43.8,0-59.4-33-59.4-61.2v-47.3C89.9,95.4,112.5,66.6,146.3,66.6z"/>
					<path fill="#0076A2" d="M510.1,68.3V120h-18.7v-3.6c0-13.6-3.6-28.1-13.9-28.1c-6.4,0-9.6,7.1-9.6,21.6V194
						c0,11.4,2.3,16.6,7.7,17.6l0.1,0l5.2,1.5v16.3h-59v-16.3l1.1-0.3c0,0,4.4-1.2,4.5-1.2c5.2-0.9,7.5-6.3,7.5-17.6v-84.1
						c0-14.6-3.1-21.6-9.6-21.6c-10.2,0-13.9,14.5-13.9,28.1v3.6h-18.7V68.3H510.1z"/>
				</g>
			</g>
		</g>
	</g>
</g>
<g id="cmt_-_ltbrown" display="none">
	<g display="inline">
		<g>
			<g>
				<g>
					<path fill="#A39382" d="M381.2,72.7v15.5l-1.1,0.3c0,0-4,1.1-4.2,1.2c-4.3,0.8-6.9,7-6.9,16.8v86c0,10.7,2.2,15.9,7.3,16.8
						l5.1,1.4v15.5H324v-15.6l1.2-0.2c0,0,5.6-1.1,5.5-1.1c5-1.1,7.2-6.1,7.2-16.8c0,0,0-66.4,0-78.6
						c-4.2,12.2-38.3,112.2-38.3,112.2h-8.4c0,0-33.7-99.8-37.9-112.1c0,12.4,0,78.6,0,78.6c0,10.7,2.2,15.7,7.2,16.8l6.7,1.4v15.6
						h-45.3v-15.6l1.1-0.3c0,0,4.2-1.1,4.3-1.2c4.8-0.9,6.9-6,6.9-16.7v-86c0-9.7-2.6-16-7-16.8l-5.3-1.4V72.7h55.8
						c0,0,23.4,70.2,26,77.8c2.4-7.7,24.8-77.8,24.8-77.8H381.2z"/>
					<path fill="#A39382" d="M155.3,71.2c7.6,0,14.3,1.4,21.1,4.5c4.4,2.2,9,3.7,11.5,3.7c1.1,0,2.6,0,2.6-5.8v-1.5h20.1v50h-28.9
						v-1.5c0-22.4-3-31.7-21.4-31.7c-14.8,0-21.7,7.6-21.7,23.8v67.8c0,8.9,2,29.7,20.3,29.7c15.8,0,22.8-10.1,22.8-32.7V176h28.9
						v1.4c0,23.1-13.8,50.1-52.5,50.1c-41.7,0-56.5-31.4-56.5-58.3v-45C101.6,98.6,123.2,71.2,155.3,71.2z"/>
					<path fill="#A39382" d="M501.7,72.7V122h-17.8v-3.4c0-12.9-3.5-26.7-13.2-26.7c-6.1,0-9.1,6.7-9.1,20.6v80.1
						c0,10.8,2.2,15.8,7.4,16.7l0.1,0l5,1.5v15.5h-56.2v-15.6l1.1-0.3c0,0,4.2-1.1,4.3-1.2c4.9-0.9,7.1-6,7.1-16.7v-80.1
						c0-13.9-3-20.6-9.1-20.6c-9.7,0-13.2,13.8-13.2,26.7v3.4h-17.8V72.7H501.7z"/>
				</g>
			</g>
		</g>
	</g>
</g>
<g id="centric_-_color" display="none">
	<g display="inline">
		<g>
			<g>
				<path fill="#FFFFFF" d="M320.9,236.7v-16.3h-8.5v43.9c0,6,1.5,10.9,4.5,14.3c3,3.5,7.4,5.2,13,5.2c5,0,7.6-0.1,7.6-0.1v-7.3
					c0,0-5.1,0-5.5,0c-3.7,0-6.4-1-8.3-3c-1.9-2-2.8-5-2.8-9v-20.7h16.6v-6.9H320.9z"/>
			</g>
			<rect x="376.2" y="235.6" fill="#FFFFFF" width="8.5" height="48"/>
			<path fill="#FFFFFF" d="M380.4,220.4c-2.3,0-4.2,1.9-4.2,4.2s1.9,4.2,4.2,4.2c2.3,0,4.2-1.9,4.2-4.2S382.7,220.4,380.4,220.4z"/>
			<path fill="#FFFFFF" d="M201,273.7c-3.1,2.6-7.1,4.2-11.4,4.2c-9.8,0-17.7-7.9-17.7-17.7c0-9.8,7.9-17.7,17.7-17.7
				c4.4,0,8.3,1.6,11.4,4.2l5-5c-4.4-3.9-10.1-6.2-16.4-6.2c-13.7,0-24.8,11.1-24.8,24.8c0,13.7,11.1,24.8,24.8,24.8
				c6.3,0,12.1-2.4,16.4-6.2L201,273.7z"/>
			<path fill="#FFFFFF" d="M428,273.7c-3.1,2.6-7.1,4.2-11.4,4.2c-9.8,0-17.7-7.9-17.7-17.7c0-9.8,8-17.7,17.7-17.7
				c4.4,0,8.3,1.6,11.4,4.2l5-5c-4.4-3.9-10.1-6.2-16.4-6.2c-13.7,0-24.8,11.1-24.8,24.8c0,13.7,11.1,24.8,24.8,24.8
				c6.3,0,12.1-2.4,16.4-6.2L428,273.7z"/>
			<path fill="#FFFFFF" d="M245.8,271.9c-3,3.6-8.3,5.9-13.2,5.9c-8.3,0-15.1-6.5-16.4-15h40.2c0.1-0.9,0.2-1.8,0.2-2.7
				c0-13.7-10.7-24.8-24-24.8c-13.2,0-24,11.1-24,24.8c0,13.7,10.7,24.8,24,24.8c9.1,0,17.8-5.3,21.9-13H245.8z M232.7,242.4
				c8.1,0,14.8,6.2,16.3,14.4h-32.5C217.9,248.6,224.6,242.4,232.7,242.4z"/>
			<path fill="#FFFFFF" d="M232.7,260.2"/>
			<path fill="#FFFFFF" d="M299.9,240.8c-3.2-3.6-7.6-5.5-12.9-5.5c-0.2,0-0.5,0-0.7,0c-8.7,0-14.4,5.6-15.1,8.3c0-1.7,0-4.4,0-4.4
				v-2.6h-7.9v46.9h8.5h0.1v-27.8c0-3.5,1.2-6.7,3.5-9c2.3-2.4,5.5-3.7,9-3.7c5.8,0,8.7,2.8,10.2,5.2c1.6,2.6,1.9,5.5,1.9,7.5v27.8
				h6.8h1.5v-27.8C304.9,249.7,303.2,244.5,299.9,240.8z"/>
			<path fill="#FFFFFF" d="M369.4,235.5v8.1c-0.3,0-0.7,0-1,0c-4.8,0-8.5,1.4-11.1,4.2c-3.5,3.7-4,8.8-4,12.9v23h-8.5v-47h7.9v2.8
				v4.7C352.7,244.2,355.3,235.5,369.4,235.5z"/>
		</g>
		<g>
			<path fill="#34B9E2" d="M367.3,39l-34.4,30.1l-1.4-1.5l34.2-30c-1.3-1.2-2.5-2.3-3.9-3.4l-33.8,29.6l-1.3-1.5l33.5-29.4
				c-1.3-1.1-2.7-2.1-4.2-3.2l-32.8,28.7l-1.4-1.5l32.4-28.4c-0.9-0.6-1.8-1.2-2.7-1.8c-0.6-0.4-1.2-0.7-1.8-1.1L318.7,53l-1.3-1.5
				l30.8-27c-1.6-0.9-3.2-1.8-4.8-2.6l-29.3,25.7l-1.4-1.5L341.2,21c-1.7-0.8-3.5-1.5-5.2-2.2l-26.8,23.5l-1.4-1.5l26-22.8
				c-1.9-0.7-3.8-1.3-5.7-1.8l-23.7,20.8l-1.4-1.5l22.7-19.9c-2.1-0.5-4.2-1-6.3-1.3l-19.8,17.4l-1.4-1.5l18.5-16.3
				c-2.3-0.3-4.6-0.6-6.9-0.7l-15,13.2l-1.4-1.5L307,12.9c-0.8,0.2-8.5,2-19.3,10.2l35.8,40.4c4.8,2.4,9.1,5.7,12.7,9.5l34.6-30.3
				C369.7,41.4,368.5,40.2,367.3,39z"/>
			<path fill="#34B9E2" d="M257.1,104.4c0-24.6,19.3-44.6,43.6-45.8c-0.7,0-1.5-0.1-2.2-0.1c-12.9,0-21.5-11.4-24.6-22.7
				c-4.8,5.3-9.7,11.7-14.8,19.6c-28.9,45.6-47.9,42.7-47.9,42.7s1.6,26.8,39.2,46.2l0.3,0.3l-4.5,4.5l-4-4l-7.1,4.8h9.5l-5.9,5.9
				l-5-5l-7,4.7c0.4,0.6,0.9,1.3,1.3,1.9h7.8l-4.4,4.4c13.1,16.3,37.3,34.3,72.5,34.3c8.2,0,18.5-1.6,27.5-4.5l-57.8-52.3
				C263.4,131.1,257.1,118.5,257.1,104.4z M258.7,149.9l-4.8,4.8l-4.8-4.8H258.7z M238.6,167.8l-2.7-2.8h5.5L238.6,167.8z
				 M246,173.3l-0.7-0.7h1.4L246,173.3z M246.3,161.4l-3.9-3.9h7.9L246.3,161.4z M253.5,166.8l-1.8-1.8h3.5L253.5,166.8z
				 M261.1,173.5l-0.8-0.8h1.6L261.1,173.5z M261.1,160.6l-3.1-3.1h6.2L261.1,160.6z M268.7,166.1l-1.1-1.1h2.2L268.7,166.1z"/>
			<path fill="#F180A2" d="M302.9,58.6c13.1,0,25,5.5,33.3,14.4c0,0,0,0,0,0l0,0l-51.8-58.5c-15.3,3.1-30,10.1-42.5,21.2
				c-19,16.8-29.4,39.7-30.8,63.2l45.8,2.8c0,0,0.1-0.1,0.1-0.1C258.6,77.6,278.6,58.6,302.9,58.6z"/>
			<g>
				<path fill="#122348" d="M336.3,73C336.3,73,336.3,73,336.3,73L336.3,73l-7.4-8.4c-0.4,0.5-0.8,0.9-1.1,1.4
					C330.9,67.9,333.7,70.3,336.3,73z"/>
				<path fill="#122348" d="M307.4,42.3c-7,2.2-13.9,4.4-20.9,6.7c-0.7,0.2-1,0.1-1.5-0.5c-6.7-9.2-13.4-18.5-20-27.7
					c-4.1,1.9-8.2,4.1-12,6.6c6.3,8.7,12.5,17.4,18.8,26.2c-0.3,0.1-0.6,0.2-0.8,0.3c-7.6,2.4-15.1,4.8-22.7,7.2
					c-0.7,0.2-1,0.1-1.2-0.6c-2.4-7.6-4.8-15.2-7.2-22.8c-4,3.8-7.6,7.8-10.7,12.1c1.6,5,3.2,10,4.7,15c0,0.2,0.1,0.3,0.1,0.5
					c0,0.1-0.1,0.3-0.1,0.4c-0.1-0.1-0.3-0.1-0.4-0.2c-0.1-0.1-0.2-0.3-0.2-0.5c-1.9-4.4-3.7-8.8-5.6-13.2
					c-3.3,4.7-6.1,9.7-8.4,14.8c0.5,1.1,0.9,2.2,1.4,3.2c-1.1,0.4-2.1,0.7-3.2,1.1c0,0,0,0,0,0.1c0.1,0.3,0.2,0.6,0.3,0.8
					c1.5,3.8,3,7.6,4.4,11.5c0.2,0.6,0.5,0.8,1.2,0.6c0.7-0.3,1.5-0.4,2.2-0.7c0.6-0.3,0.9-0.1,1.2,0.5c2,4.8,4.1,9.5,6.1,14.2
					c0.3,0.7,0.6,1.5,1,2.2l23.5,1.4c0,0,0.1-0.1,0.1-0.1c0.1-2.2,0.4-4.4,0.9-6.5c-2-6.4-4.1-12.8-6.1-19.1c-0.2-0.8-0.1-1,0.7-1.2
					c7.8-2.4,15.6-4.8,23.3-7.3c7.6-5.5,16.9-8.8,27-8.8c2.1,0,4.1,0.1,6.1,0.4c-0.2-0.6-0.4-1.2-0.6-1.8c3.7-1.1,7.3-2.3,11-3.4
					l-8-9c-0.9-0.7-1.7-1.5-2.6-2.2C308.3,42.2,307.9,42.1,307.4,42.3z"/>
				<path fill="#122348" d="M211.2,98.9l10.8,0.7c-2.9-4.9-5.9-9.9-8.8-14.8C212.2,89.4,211.5,94.1,211.2,98.9z"/>
			</g>
			<g>
				<path fill="#F180A2" d="M337.4,134.6L337.4,134.6c-0.1,0.1-0.2,0.2-0.3,0.3c-8.4,9.4-20.6,15.4-34.2,15.4
					c-11.2,0-21.5-4.1-29.5-10.8v0.1l57.8,52.2l0.1,0c11.6-3.7,22.6-9.9,32.3-18.4c3-2.7,5.9-5.5,8.5-8.5L337.4,134.6z"/>
			</g>
			<g opacity="0.4">
				<path fill-rule="evenodd" clip-rule="evenodd" fill="#F180A2" d="M344.5,186.3c5.2-2.7,10.3-5.9,15.1-9.6
					c0.1-0.8,0.1-1.5,0.4-2.2c0.6-1.4,1.4-2.7,2.3-3.9c1.3-1.8,3-3.1,4.8-4.3c0.1-0.1,0.2-0.3,0.3-0.4c-0.2-0.1-0.3-0.2-0.5-0.3
					c0-0.1,0-0.3,0-0.4c-0.2,0-0.3,0-0.5,0.1c-0.9,0.6-1.7,1.2-2.6,1.9c0.6-0.8,1.5-1.2,2-2c0-0.1-0.1-0.1-0.2-0.2
					c-0.6,0.4-1.2,0.9-1.8,1.3c0,0-0.1-0.1-0.1-0.1c0.6-0.4,1.2-0.8,1.7-1.3c0.6-0.5,0.6-0.7,0-1.2c-0.2-0.2-0.4-0.4-0.5-0.6
					c-0.1-0.8-0.7-1.1-1.4-0.6c-0.6,0.4-1.1,0.9-1.7,1.4c-2.1,1.6-3.8,3.5-5.2,5.7c-0.5,0.7-0.9,1.4-1.3,2.1c0,0-0.1-0.1-0.1-0.1
					c0.9-2.1,2.2-4.1,3.9-5.7c1.7-1.6,3.5-3.1,5.3-4.7c-0.4-0.4-0.7,0.2-1.3,0.2c-0.1-0.5-0.1-1-0.2-1.5c0-0.2-0.1-0.6-0.3-0.6
					c-0.2-0.1-0.6,0-0.8,0.2c-0.9,0.6-1.7,1.2-2.6,1.8c0.3-0.4,0.6-0.6,1-0.9c0.5-0.4,1.1-0.8,1.6-1.2c0.3-0.2,0.5-0.5,0.1-0.7
					c-0.3-0.1-0.8-0.2-1,0c-1.7,1.4-3.4,2.8-5.1,4.2c-1,0.9-1.8,1.9-2.6,2.9c2.1-3.1,4.8-5.6,7.8-7.9c-0.8,0-1.2,0.6-1.8,0.9
					c-0.6,0.4-1.1,0.8-1.6,1.2c0,0,0-0.1-0.1-0.1c1.1-0.9,2.1-1.7,3.2-2.6c-0.3-0.3-0.6-0.4-0.7-0.6c0.2-0.3,0.3-0.6,0.5-0.8
					c-0.3,0-0.6,0.1-0.9,0.1c-0.2-1.2-0.4-1.3-1.5-0.5c-1.3,1-2.7,2-3.9,3.2c-2.5,2.2-4.5,4.8-6.2,7.7c-2.6,4.6-3.8,9.5-3.7,14.7
					c0,0.2,0,0.4,0,0.5c-0.3-2.6-0.2-5.2,0.4-7.7C343.8,177.8,343.8,182,344.5,186.3z"/>
				<path fill-rule="evenodd" clip-rule="evenodd" fill="#F180A2" d="M346,153.2c-5.1,5.4-8.6,11.6-10.1,18.9
					c-1.3,6.2-1.1,12.1,0.4,17.9c2.8-1.1,5.5-2.3,8.1-3.6c-0.3-1.6-0.6-3.1-0.7-4.7c-0.3-4.6,0.4-9.1,2.2-13.3c2-4.7,5-8.6,8.8-11.9
					c1.2-1,2.7-1.7,3.5-3.1c-0.3,0-0.5,0-0.8,0c0.1-0.3,0.3-0.4,0.4-0.5c0,0,0-0.1,0-0.1l-0.6-0.5c-0.1,0.1-0.2,0.1-0.3,0.2
					c-3.4,2.3-6.4,5-8.9,8.3c-0.2,0.2-0.3,0.4-0.5,0.6c0-0.2,0.1-0.3,0.2-0.4c2.4-3.3,5.3-6.1,8.7-8.5c0.2-0.1,0.4-0.3,0.4-0.4
					l-1.8-1.5c-0.1,0.1-0.2,0.1-0.3,0.2c-2.2,1.7-4.3,3.4-6.2,5.4c-2.8,3-5.1,6.2-6.8,9.9c-2.2,4.8-3.2,9.8-3.1,15
					c0,0.2,0,0.3,0,0.5c0,0.2,0,0.3,0,0.5c-0.1-0.1-0.1-0.1-0.1-0.2c-0.2-3.5,0.1-7,1-10.4c0.8-3.1,1.9-6.1,3.6-8.9
					c2.2-3.9,5.1-7.2,8.5-10.1c1-0.8,2.1-1.6,3.1-2.4l-2.4-2.1C350.1,149.3,348,151.2,346,153.2z"/>
				<path fill-rule="evenodd" clip-rule="evenodd" fill="#F180A2" d="M368.4,167.9c-2.1,1.3-3.9,3-5.5,4.9c0.3-0.4,0.5-0.9,0.9-1.5
					c-0.5,0.5-0.8,0.9-1.2,1.3c0-0.2,0.1-0.3,0.2-0.4c1.1-1.6,2.5-3,4.1-4.1c0.5-0.4,0.5-0.4,0.3-0.8c-3.4,2.4-6,5.3-7.3,9.3
					c1.3-1,2.5-2,3.7-3.1c1.7-1.5,3.3-3,4.8-4.6c-0.1-0.1-0.2-0.1-0.3-0.2c0.2-0.2,0.5-0.4,0.8-0.7
					C368.6,167.9,368.4,167.8,368.4,167.9z"/>
				<path fill-rule="evenodd" clip-rule="evenodd" fill="#F180A2" d="M341.8,149.4c-5.6,5.9-9.5,12.9-11.4,20.9
					c-1.6,7-1.5,14.1,0.2,21.1l0.5,0.5l0.1,0c0.3-0.1,0.6-0.2,0.9-0.3c-0.9-3.4-1.5-6.7-1.7-9.4c-0.6-14,4.8-25.5,14.8-35.1
					c-0.1,0-0.1,0-0.2,0.1c0,0-0.1-0.1-0.1-0.1c1.1-0.9,2.3-1.8,3.4-2.7l-0.5-0.4C345.8,145.5,343.7,147.4,341.8,149.4z"/>
				<path fill-rule="evenodd" clip-rule="evenodd" fill="#F180A2" d="M341.5,152.4c-4.6,5.3-7.7,11.4-9.3,18.2
					c-1.2,5.3-1.4,10.7-0.6,16c0.2,1.6,0.5,3.2,0.9,4.7c1.1-0.4,2.2-0.8,3.3-1.2c-1.1-4.1-1.5-8.3-1.3-12.6c0.4-6.5,2.3-12.5,5.6-18
					c3-4.9,6.9-9,11.5-12.4l-2.3-2c-0.5,0.4-1,0.8-1.6,1.2C345.5,148.1,343.4,150.2,341.5,152.4z"/>
			</g>
			<g opacity="0.4">
				<path fill-rule="evenodd" clip-rule="evenodd" fill="#F180A2" d="M289.6,148.3c-1-0.3-1.9-0.6-2.9-1c0.1,0.6,0.2,1.2,0.2,1.7
					c0,0.9-0.1,1.7-0.3,2.5l1.2,1.1c0.1-0.3,0.2-0.6,0.3-0.8c-0.1,0.3-0.1,0.6-0.2,1l0.1,0.1c0.1-0.4,0.3-0.7,0.4-1
					c0,0.2,0,0.3,0,0.4c-0.1,0.3-0.1,0.5-0.2,0.8l0.5,0.4C289.3,151.8,289.6,150.1,289.6,148.3z"/>
				<path fill-rule="evenodd" clip-rule="evenodd" fill="#F180A2" d="M273.4,139.6l9.3,8.4c0-0.3-0.1-0.6-0.1-0.9
					c0.2,0.4,0.3,0.7,0.4,1.1l3.3,3c0.4-1.3,0.4-2.6,0.3-4C281.8,145.5,277.3,142.8,273.4,139.6L273.4,139.6z"/>
				<path fill-rule="evenodd" clip-rule="evenodd" fill="#F180A2" d="M303.2,152.6c0.1-0.8,0.2-1.5,0.2-2.3c-0.2,0-0.3,0-0.5,0
					c-4.5,0-8.8-0.7-12.9-1.9c0.1,0.3,0.1,0.6,0.1,0.9c-0.1,1.4-0.3,2.8-0.6,4.2c0,0.1-0.1,0.3-0.1,0.4l3.8,3.4
					c0.7-1.5,1.2-3.1,1.6-4.8c0.2-0.8,0.3-1.5,0.4-2.3c0.1,0,0.1,0,0.1,0c-0.1,2.2-0.5,4.3-1.4,6.3c-0.1,0.3-0.3,0.6-0.5,1l3.2,2.9
					c0.4-0.7,0.8-1.4,1.1-2.1c0.5-1.1,0.9-2.3,1.3-3.4c-0.4,2.1-1.2,4-2.1,5.8l2.7,2.4c0.3-0.6,0.7-1.2,1-1.8
					C301.8,158.6,302.7,155.7,303.2,152.6z"/>
				<path fill-rule="evenodd" clip-rule="evenodd" fill="#F180A2" d="M312.2,168.1c0.1,0,0.1-0.1,0.2-0.1c0.1,0,0.1,0.1,0.1,0.1
					c-0.9,1.5-1.8,3-2.6,4.5l0.4,0.4c1.6-2.6,3.1-5.2,4.2-8.1c2.2-5.5,3.3-11.2,3.2-17c-0.3,0.1-0.6,0.2-0.9,0.3
					C316.9,154.9,315.3,161.5,312.2,168.1z"/>
				<path fill-rule="evenodd" clip-rule="evenodd" fill="#F180A2" d="M313.7,162.2c1.6-4.5,2.3-9.1,2.3-13.7c-1,0.3-2,0.5-3,0.8
					c0,2.1-0.2,4.2-0.5,6.3c-0.9,5.2-2.8,10-5.6,14.4l2.1,1.9c0.4-0.7,0.9-1.5,1.3-2.2C311.8,167.2,312.8,164.7,313.7,162.2z"/>
				<path fill-rule="evenodd" clip-rule="evenodd" fill="#F180A2" d="M308.7,150.6c0-0.2,0-0.5,0-0.7c-1.4,0.2-2.9,0.3-4.4,0.3
					c-0.2,4.6-1.5,8.9-3.6,13c-0.1,0.2-0.3,0.5-0.4,0.7l1.3,1.2c1.4-2.5,2.6-5.1,3.4-7.8c0.1-0.2,0.1-0.4,0.2-0.7
					c0.1,0.2,0,0.3,0,0.4c-0.8,2.9-1.9,5.7-3.4,8.3l1.7,1.5c1-1.7,1.9-3.5,2.6-5.3C307.6,158,308.5,154.4,308.7,150.6z"/>
				<path fill-rule="evenodd" clip-rule="evenodd" fill="#F180A2" d="M312.3,149.3c-1,0.2-2.1,0.4-3.1,0.5c0,1.4-0.1,2.8-0.3,4.2
					c-0.6,4.1-1.9,8-3.9,11.7c-0.3,0.5-0.6,1-0.9,1.5l2.3,2c1.2-2,2.3-4.1,3.2-6.3C311.3,158.5,312.3,154,312.3,149.3z"/>
			</g>
			<g opacity="0.1">
				<path fill-rule="evenodd" clip-rule="evenodd" fill="#F180A2" d="M349,156.4c-0.2,0.3-0.2,0.8,0.3,0.8c0.3,0,0.8-0.2,1-0.5
					c1.1-2.3,2.1-4.6,3.1-6.9c0.1-0.3,0.2-0.6,0.3-1l-4.4-3.8c-0.2,1-0.5,2.1-0.8,3.1c-0.9,2.5-2,5-3.1,7.5c0.7,0.2,0.6-0.6,1.2-0.9
					c0.3,0.5,0.6,1,1,1.5c0.2,0.2,0.4,0.6,0.6,0.5c0.3,0,0.6-0.3,0.7-0.5c0.6-1,1.1-2.1,1.7-3.2c-0.1,0.5-0.3,1-0.6,1.4
					C349.7,155.1,349.4,155.8,349,156.4z"/>
				<path fill-rule="evenodd" clip-rule="evenodd" fill="#F180A2" d="M353,158.7c0.8,1.2,1.1,1.2,1.8-0.2c0.9-1.7,1.7-3.5,2.4-5.2
					c0.1-0.3,0.3-0.7,0.4-1l-3.7-3.2c-0.8,2.9-2,5.7-3.3,8.5c0.8-0.4,1-1.2,1.3-1.8c0.4-0.7,0.7-1.4,1.1-2c0,0,0.1,0,0.1,0.1
					c-0.7,1.4-1.3,2.8-2,4.3c0.5,0.1,0.8,0.2,1,0.2c0,0.4-0.1,0.7-0.1,1.1C352.4,159.1,352.7,158.9,353,158.7z"/>
				<path fill-rule="evenodd" clip-rule="evenodd" fill="#F180A2" d="M356.5,161.4c0.2-0.1,0.5-0.1,0.7-0.2c0.1-0.1,0.2-0.3,0.3-0.4
					c1.1-2,2.1-4,2.9-6.1l-1.7-1.5c-0.3,0.8-0.6,1.5-0.9,2.3c-0.7,1.7-1.9,3.1-2,5c0.3-0.1,0.5-0.3,0.8-0.4c0,0.4-0.1,0.6-0.1,0.8
					C356.4,161,356.5,161.2,356.5,161.4z"/>
				<path fill-rule="evenodd" clip-rule="evenodd" fill="#F180A2" d="M329.5,146.5c0.2-0.1,0.4-0.2,0.6-0.3c0.2,0.5,0.4,0.9,0.6,1.3
					c0.2,0,0.5-0.2,0.6-0.1c0.5,0.3,0.7-0.1,0.9-0.4c0.4-0.7,0.8-1.3,1.1-2c0.8-1.9,1.4-3.8,1-5.9c-0.1-0.3-0.1-0.6-0.2-0.9
					c-1.2,1.1-2.5,2.1-3.8,3.1c-0.2,1.3-0.5,2.6-1,3.8C329.1,145.7,329,146.1,329.5,146.5z"/>
				<path fill-rule="evenodd" clip-rule="evenodd" fill="#F180A2" d="M369.5,166.8c-0.1,0.3-0.2,0.6-0.3,0.8c0.1,0,0.1,0.1,0.2,0.1
					c0.2-0.2,0.4-0.4,0.6-0.6c0,0,0.1-0.1,0.1-0.1c0.5-0.9,0.9-1.7,1.3-2.6l-0.5-0.5C370.4,164.9,369.9,165.8,369.5,166.8z"/>
				<path fill-rule="evenodd" clip-rule="evenodd" fill="#F180A2" d="M337.4,134.6c-0.1,0.1-0.2,0.2-0.3,0.3c-1,1.1-2,2.1-3.1,3.1
					c0.5,0.9,0.6,1.8,0.6,2.8c0,2-0.7,3.9-1.6,5.7c-0.3,0.6-0.5,1.3,0.2,1.9c0.6-0.6,0.8-0.3,1,0.6c0.5-0.6,0.8-1,1.3-1.5
					c-0.2,0.5-0.3,0.9-0.5,1.2c0.1,0.1,0.1,0.1,0.2,0.2c0.2-0.1,0.4-0.2,0.5-0.4c0.4-0.8,0.8-1.5,1.1-2.3c0.5-1.3,1-2.5,1.5-3.8
					c0,0,0.1,0,0.1,0c-0.1,0.8-0.2,1.6-0.3,2.4c1.1-2.7,1.2-5.5,0.4-8.3c0.3,1,0.7,2.1,0.8,3.1c0.3,3.2-0.6,6.2-2,9
					c-0.1,0.3-0.1,0.6-0.2,1c0.3,0,0.5,0,0.8,0c-0.1,0.3-0.2,0.7-0.4,1.1c0.3-0.1,0.4-0.1,0.5-0.1c1.5-2.4,2.5-5,3.2-7.8
					c-0.1,0.6-0.1,1.2-0.2,2c0.2-0.8,0.4-1.4,0.5-1.9c0.1,0.2,0.1,0.3,0,0.5c-0.3,2.2-1.1,4.3-2.1,6.3c-0.3,0.6-0.3,0.6,0.2,1
					c2-3.6,3.2-7.4,2.9-11.4L337.4,134.6L337.4,134.6z"/>
				<path fill-rule="evenodd" clip-rule="evenodd" fill="#F180A2" d="M358.3,162c0.2,0.1,0.3,0.3,0.4,0.6c0.3,0.6,0.8,0.7,1.2,0.2
					c0.3-0.3,0.5-0.7,0.7-1.1c0.8-1.6,1.5-3.1,2.2-4.7l-2.2-1.9c-0.7,1.9-1.6,3.9-2.6,5.7C357.8,161.2,357.6,161.6,358.3,162z"/>
				<path fill-rule="evenodd" clip-rule="evenodd" fill="#F180A2" d="M342.9,144.8c-0.4,2.5-1.5,4.7-2.7,6.9
					c-0.1,0.2-0.1,0.4-0.1,0.6c0.2,0,0.4,0,0.6,0.1c0.1,0.1,0.2,0.3,0.2,0.4c0.1-0.1,0.3-0.2,0.4-0.3c0.6-1.1,1.1-2.1,1.7-3.2
					c-0.2,1.1-0.9,2-1.1,3.1c0.1,0,0.2,0.1,0.3,0.1c0.4-0.8,0.8-1.5,1.2-2.3c0.1,0,0.1,0.1,0.2,0.1c-0.4,0.7-0.8,1.4-1.1,2.2
					c-0.4,0.8-0.3,1,0.6,1.2c0.3,0.1,0.6,0.2,0.8,0.4c0.5,0.8,1.3,0.8,1.7-0.1c0.4-0.7,0.7-1.5,1.1-2.3c1.1-2.2,1.8-4.5,2.3-6.9
					l-5.7-5C343.3,141.4,343.2,143.1,342.9,144.8z"/>
				<path fill-rule="evenodd" clip-rule="evenodd" fill="#F180A2" d="M361.9,164.3c0.2,0.1,0.5,0.3,0.7,0.4c0.7,0.7,1,0.6,1.5-0.2
					c0.8-1.5,1.6-3.1,2.3-4.6l-2.9-2.5c-0.1,0.3-0.2,0.5-0.3,0.8c-0.6,1.4-1.3,2.8-2,4.1C360.7,163.2,361,163.9,361.9,164.3z"/>
				<path fill-rule="evenodd" clip-rule="evenodd" fill="#F180A2" d="M366.2,166.7c0.3,0.1,0.7-0.1,1,0c0.5,0.2,0.7-0.1,0.9-0.4
					c0.5-1.1,1.1-2.2,1.6-3.3l-2.7-2.4c-0.5,1.2-1.1,2.4-1.8,3.6C364.8,165.2,365.1,166.3,366.2,166.7z"/>
			</g>
			<path opacity="0.2" fill-rule="evenodd" clip-rule="evenodd" fill="#F180A2" d="M339.7,173.3c-5-4.3-10.7-7.2-17.1-8.8
				c-4.7-1.2-9.5-1.5-14.3-1.3c-2.5,0.1-5,0.5-7.5,1l30.4,27.5l0.1,0c1.6-0.5,3.2-1.1,4.7-1.7c-0.1-0.2-0.3-0.5-0.4-0.7
				c-2.6-4-6-7-10.2-9.2c-0.1-0.1-0.3-0.2-0.4-0.2c2.2,0.9,4.2,2.1,6.1,3.6c-3.2-2.8-6.9-4.7-11-5.9c0.1-0.1,0.2-0.1,0.2,0
				c1.6,0.5,3.2,1,4.8,1.7c3.8,1.7,7.1,4.2,9.7,7.4c0.8,1,1.5,2,2.2,3.1c1.3-0.5,2.6-1.1,3.9-1.7c-0.7-1.3-1.5-2.5-2.4-3.7
				c-2.9-3.7-6.5-6.7-10.7-8.8c-0.1-0.1-0.3-0.1-0.4-0.2c-0.1-0.1-0.3-0.2-0.4-0.2c0.1-0.1,0.2-0.1,0.2,0c2.9,1.3,5.6,3,7.9,5.2
				c2.2,1.9,4.1,4.1,5.6,6.6c0.2,0.3,0.4,0.7,0.6,1c0.9-0.4,1.8-0.8,2.7-1.3c-2-3.6-4.7-6.9-8-9.6c-6.8-5.6-14.8-8.2-23.6-8.4
				c-1.4,0-2.9,0-4.4,0c0.1,0,0.2-0.1,0.3-0.1c1.9-0.1,3.7-0.2,5.6-0.3c1,0,1.9,0.1,2.9,0.2c5.5,0.6,10.7,2.3,15.5,5.1
				c5,3,9,7.1,12,12.1c0.1,0.2,0.3,0.4,0.4,0.7c0.8-0.4,1.7-0.9,2.5-1.3c-2.2-3.9-5-7.3-8.4-10.3c-3.7-3.2-7.9-5.6-12.6-7.3
				c-5.3-1.9-10.9-2.6-16.5-2.5c-0.8,0-1.6,0.1-2.5,0.1c4.4-1.5,16.7,0.4,23.1,3.4c7.9,3.7,13.6,9.2,17.6,16.2
				c0.2-0.1,0.5-0.3,0.7-0.4C346.2,180.1,343.3,176.5,339.7,173.3z"/>
		</g>
	</g>
</g>
<g id="Layer_14">
	<g>
		<path fill="#FFFFFF" d="M249.2,253.8h15.7v-28l-15.7-13.2V253.8z M289.3,226.7h13.1l3.5-3v-11L289.3,226.7z M288.1,64.6l-10.5,11
			l-28.4-29.8l36,15.8L288.1,64.6z M440.9,122.9V45.6l19,11.4v42.3C455.2,104.2,445.4,116.1,440.9,122.9z M459.9,138.3v115.5h-19
			v-84.5C444.9,160.5,454.7,145.1,459.9,138.3z M360.7,253.8c-0.6-5.2-1.4-12.7-1.4-19.3c0-4.1,0.6-20.5,0.6-33.8
			c0-11.2-2.4-31.1-2.4-41.9c0-6.5,0.5-15.3-0.2-18.4c5.2-3.3,9.7-5.5,24-14.1c4.6-2.8,13.5-7.5,13.5-13.2c0-2.5-0.7-4.2-4.3-7.1
			c-2.5-2-5.2-2.6-8.2-2.6c-7.3,0-10.6,7.3-16.7,11c-9.3,5.7-14.2,8.5-16.1,9.6c-0.8-0.3-3.9-2.2-9-2.2c-5.3,0-11.5,2.4-11.5,9.3
			c0,3.2,1,6.6-3.2,8.8c-2.4,1.5-14,8.1-26.3,15.5c-10.4,6.3-15.2,5.8-19.6,8.4c-4.1,2.4-5.1,5.5-5.1,8.1c0,2.4,1.5,5.3,2,6
			c2.8,3.6,5.3,5.5,9.7,5.5c7.4,0,13.6-6.5,25.1-14.7c7.2-5.1,13.7-10.4,17.6-10.4c3.4,0,5.8,2.6,5.8,13.3c0,35.7-2.2,41.4-2.2,66.1
			c0,4.5,0.2,12.7,0.3,16.1h-18.9v-58.5l-36.5,30.7l-36.5-30.7v58.5H123V45.6h115l39.6,41.7l39.6-41.7h115.6v89
			c-3.7,5.6-14.8,24.8-22.4,44.3c-2.5,6.4-3.6,11-6.8,11c-3.6,0-3.9-3.5-4.2-6.7c-0.7-6.8-2.3-19.6-3-24.3
			c-1.4-9.1-3.2-18.7-13.4-18.7c-7.5,0-15.4,4.1-15.4,15.4c0,6.4,3.2,17.5,8.8,32.1c2.2,5.8,13.8,36.1,15.4,40.5
			c3.1,8.1,7.3,10.3,13.9,10.3c8.5,0,11.4-3.1,14.9-15c3-10.1,8-26.6,12.2-37c0,0,0,0,0,0v67.3H360.7z"/>
		<g>
			<path fill="#FFFFFF" d="M462.1,246.4h6v1.1h-2.4v6.3h-1.3v-6.3h-2.4V246.4z"/>
			<path fill="#FFFFFF" d="M469,246.4h1.8l2.1,5.8h0l2-5.8h1.8v7.5h-1.2v-5.8h0l-2.1,5.8h-1.1l-2.1-5.8h0v5.8H469V246.4z"/>
		</g>
	</g>
</g>
</svg>
