<svg id="Layer_1" data-name="Layer 1" xmlns="http://www.w3.org/2000/svg" viewBox="0 0 54 37"><defs><style>.cls-1{fill:#fff;}</style></defs><title>Artboard 1</title><path class="cls-1" d="M43.45,15.32l-.06-.08,0,.05c-.37-.53-.78-1-1.18-1.53L42,13.39a1.66,1.66,0,0,1-.38-1.2.82.82,0,0,0-.17-.54c-.41-.48-.62-1-1-1.49.05-.06.17-.27.28-.41s.39-.31.49-.57a1.79,1.79,0,0,1,.19-.36A5.17,5.17,0,0,1,42,8.07c.18-.17.16-.29,0-.29a4.61,4.61,0,0,0-2.59,1.1L39.28,9l0,0-.1,0h0c-.61.21-1.3-.19-1.92,0l.21-.42a1.26,1.26,0,0,0,.28-.43,1.82,1.82,0,0,1,.37-.54c.1-.12.17-.33-.07-.22a6.84,6.84,0,0,0-2.79,1.75c-.16.23-.56.58-.69.82a3.3,3.3,0,0,1-.44.6c-.32-1.07-1-2.48-1-2.89a6,6,0,0,0-.36-1,7.21,7.21,0,0,0-2.08-2.54c-.18-.19-.19,0-.13.17a1.83,1.83,0,0,1,.17.63,1.41,1.41,0,0,0,.14.5l.06.46c-.53-.38-1.31-.22-1.81-.62l0,0L29,5.2l0,0-.08-.11a4.68,4.68,0,0,0-2.1-1.89c-.18-.07-.24,0-.12.26a5.5,5.5,0,0,1,.38.93,1.52,1.52,0,0,1,.07.4,1,1,0,0,0,.27.69c0,.07,0,.48.1.51A8.79,8.79,0,0,0,26,7.06a.78.78,0,0,0-.31.46,1.39,1.39,0,0,1-.71,1l-.4.26c-.54.35-1.09.68-1.61,1.06l.05,0-.09.07,0,0c-.34.26-.38.46-.05.76a.44.44,0,0,0,.17.36,1.28,1.28,0,0,0,.44.68A2.17,2.17,0,0,0,24,12a5.31,5.31,0,0,0,1.18.4,1.19,1.19,0,0,0,.28,0,5.83,5.83,0,0,0,1.27,0c0,.19.43.92.16,1.2a4.21,4.21,0,0,1-.51.27c-2.91-.76-5-2.46-8-.48-2.83.58-5.56-.58-5.53-2.26a1.58,1.58,0,0,1,2.18-1.34l.34.1a.86.86,0,0,0,.86-.2.53.53,0,0,0-.06-.52l-.12-.14L16,9l-.06-.06-.07,0-.08-.06-.06,0-.1-.06,0,0-.28-.11h0a3.16,3.16,0,0,0-3.71,1.8,0,0,0,0,1,0,0,1.06,1.06,0,0,1,0,.11.45.45,0,0,1,0,.07s0,.06,0,.09,0,.09,0,.14a.06.06,0,0,0,0,0h0c-.09,2.85,2.79,4,5.18,4.19a4.15,4.15,0,0,0-1.44,2.26c-.4,1.46-.55,3.39-1.36,4.64s-.69,2.75-1.39,3.59a1.71,1.71,0,0,0-.34,1.16A5.19,5.19,0,0,1,12.05,28a.5.5,0,0,0,0,.14A5.32,5.32,0,0,0,11.83,30a1.86,1.86,0,0,0,.26.41,1.77,1.77,0,0,1,.21.83.33.33,0,0,1,0,.11,1.23,1.23,0,0,0,.05.34h0l0,.06a1.27,1.27,0,0,0,.62.34l.05,0a1.49,1.49,0,0,0,.35.06h.21a.25.25,0,0,0,.1-.05.58.58,0,0,0,.29.09.56.56,0,0,0,.46-.16h.09c.45,0,.44-.66.11-1a.48.48,0,0,0-.5-.33,1,1,0,0,1-.86-.89h0a.07.07,0,0,1,0,0,.78.78,0,0,0,0-.08c0-.09,0-.18,0-.26a1.33,1.33,0,0,1,0-.14v-.16a.69.69,0,0,1,0-.1c0-.19,0-.38,0-.57a0,0,0,0,1,0,0,7.13,7.13,0,0,1,.14-.74h0a7.53,7.53,0,0,1,2.06-3.62,15.39,15.39,0,0,0,1.83-2,4,4,0,0,1,1.8-1,2.91,2.91,0,0,1-.63,2.13,2.16,2.16,0,0,1-.3.27,1.13,1.13,0,0,0-.42.43.79.79,0,0,0,.06.54,14.63,14.63,0,0,1,.94,2.67.92.92,0,0,0,.26.72c.54.52.29,1.6.67,1.89a1.77,1.77,0,0,0,1.42.48h.05a.28.28,0,0,0,.1-.1.67.67,0,0,0,.41,0h0l0,0a.22.22,0,0,0,.1-.13c.25,0,.34-.14.34-.31a.73.73,0,0,0-.12-.4.59.59,0,0,0-.53-.46,1.43,1.43,0,0,1-.74-.34,3.22,3.22,0,0,1-.61-.79c0-.13-.09-.24-.14-.37A4.7,4.7,0,0,1,19.74,25c0-.07,0-.14,0-.2.16-1.17,2.2-1.85,3.16-3.2l.12-.19a9,9,0,0,1,2.28,1.08,10.48,10.48,0,0,0,3,1.83h0c-.07.67-.46,1.06,0,1.84a19.6,19.6,0,0,0,1.1,2.5l.17.23c.52.66.67,1.88,1.47,3s.17,1.23.62,1.61c.16.14.1.42.35.66s.64.5.84.48h0a.32.32,0,0,0,.21-.11,1.27,1.27,0,0,0,.4.1h.14l.08,0h0l.07,0,.05-.08.18,0,.06,0,0,0,0,0,0,0,0,0s0,0,0,0h0l0,0h0a.7.7,0,0,0-.16-.65c0-.3-.14-.42-.58-.58s-.61-.71-.82-.94l-.12-.15a3.58,3.58,0,0,1-.41-.74c0-.07-.06-.15-.09-.23-.13-.37-.24-.76-.42-1.18A16.38,16.38,0,0,1,31,26.45a.74.74,0,0,1,.21-.74l.37-.38a3.21,3.21,0,0,0,1.06-.07c.72-.15,1-.23,1.15-.37-.32,1.18.32,2.53.32,3.44,0,.55.14,1.28.16,1.75v.14s0,0,0,0a.77.77,0,0,1,0,.16c-.09.42.06,1,0,1.29-.12.57.29.54.2.83a.29.29,0,0,0,0,.08h0a.42.42,0,0,0,0,.06h0a.41.41,0,0,0,0,.05h0s0,0,0,0c.07.24.42.31.49.52a1,1,0,0,0,.86.6.4.4,0,0,0,.25-.09.91.91,0,0,0,.57,0l.06,0,0,0,.07,0h0a.21.21,0,0,0,0-.08l.1,0c.43-.12.33-.72-.07-1a.53.53,0,0,0-.45-.46c-.79-.21-.61-1.06-.74-1.38a1.35,1.35,0,0,1-.11-.47.59.59,0,0,1,0-.11.09.09,0,0,1,0,0c0-.07,0-.14,0-.21h0a5.07,5.07,0,0,1,.08-1.06c.13-.65.24-1.48.36-2.16a.16.16,0,0,1,0,0l0-.12,0-.12a.12.12,0,0,0,0,0,1.35,1.35,0,0,1,0-.13v0a1,1,0,0,0,0-.14v0a.85.85,0,0,0,0-.11v0a.51.51,0,0,0,0-.09l0-.11a3.55,3.55,0,0,0,.21-1.5A5.52,5.52,0,0,1,37.17,22a2.16,2.16,0,0,0,.25-1c0-.26-.07-.48-.08-.76a4.75,4.75,0,0,0-.18-1.39A4,4,0,0,1,37,18c0-.19.14-.16.35-.33l.74-.65c.16-.14.53-.64,1-.44a4,4,0,0,0,2.41.5l.14,0h.06a2.3,2.3,0,0,0,.66-.23,1.2,1.2,0,0,0,.91-.79C43.63,15.86,43.67,15.66,43.45,15.32Z"/><path d="M19.16,19.33V15.66h1l.71,2.56h0l.71-2.56h1v3.67H22V16.44h0l-.83,2.89H20.6l-.82-2.89h0v2.89Z"/><path d="M26.11,15.66v.59h-1v3.09h-.71V16.25h-1v-.59Z"/><path d="M26.88,15.66h.69l.65,2.7h0l.68-2.7h.69l-1,3.67h-.78Z"/><path d="M32.8,18a1.78,1.78,0,0,0-.9,1.4h2.52v1.2h-4v-.41a3.46,3.46,0,0,1,1.59-3c.88-.71,1.2-1.15,1.2-1.64a.66.66,0,0,0-.72-.76c-.52,0-.73.3-.73.81v.47H30.54v-.61a1.77,1.77,0,0,1,1.91-1.81,1.8,1.8,0,0,1,2,1.9C34.47,16.38,34,17.07,32.8,18Z"/></svg>