<?xml version="1.0" encoding="utf-8"?>
<!-- Generator: Adobe Illustrator 16.0.0, SVG Export Plug-In . SVG Version: 6.00 Build 0)  -->
<!DOCTYPE svg PUBLIC "-//W3C//DTD SVG 1.1//EN" "http://www.w3.org/Graphics/SVG/1.1/DTD/svg11.dtd">
<svg version="1.1" id="Layer_1" xmlns="http://www.w3.org/2000/svg" xmlns:xlink="http://www.w3.org/1999/xlink" x="0px" y="0px"
	 width="11088px" height="7776px" viewBox="0 0 11088 7776" enable-background="new 0 0 11088 7776" xml:space="preserve">
<g id="Layer_2">
	<rect x="1282.513" y="3621.844" fill="#FFFFFF" width="7529.227" height="3203.108"/>
	<g>
		<path fill="#231F20" d="M2644.794,6313.222c-141.468,148.454-330.091,228.794-604.294,228.794
			c-237.526,0-438.375-85.58-579.843-225.302l363.275-354.542c36.677,52.396,125.749,106.537,214.822,106.537
			c158.932,0,270.71-110.029,270.71-314.372V3882.073h527.447v1872.264C2838.659,5976.146,2775.784,6176.993,2644.794,6313.222"/>
		<path fill="#231F20" d="M4263.814,6512.325l-85.578-410.429h-607.79l-85.578,410.429h-550.151l679.393-2630.252h520.462
			l679.393,2630.252H4263.814z M3874.341,4654.033l-204.342,974.555h408.684L3874.341,4654.033z"/>
		<polygon fill="#231F20" points="6357.886,6512.325 6357.886,5141.311 6067.963,6042.512 5797.254,6042.512 5516.065,5146.552 
			5516.065,6512.325 4988.619,6512.325 4988.619,3882.073 5451.444,3882.073 5935.229,5171.001 6417.268,3882.073 
			6885.334,3882.073 6885.334,6512.325 		"/>
		<path fill="#231F20" d="M8462.437,6346.407c-118.764,115.269-319.612,195.609-574.604,195.609
			c-260.23,0-452.347-73.354-571.11-192.116c-129.241-129.243-174.651-314.373-174.651-583.337h527.447
			c0,106.537,6.985,185.129,55.891,239.274c29.689,33.182,82.084,62.875,164.172,62.875c82.085,0,134.48-22.706,167.664-66.369
			c36.677-43.664,52.396-115.27,52.396-221.807c0-251.5-40.17-295.162-230.541-373.755l-333.584-136.229
			c-267.217-110.03-378.995-251.499-378.995-661.929c0-244.512,78.594-447.107,237.527-583.336
			c125.748-106.537,286.429-165.919,485.53-165.919c234.033,0,405.193,59.382,520.461,165.919
			c144.962,132.735,204.342,344.063,204.342,609.533h-527.447c0-92.564,0-178.145-45.407-235.778
			c-29.69-40.171-73.354-66.368-151.948-66.368c-75.1,0-122.257,29.691-151.948,69.861c-33.183,43.662-45.409,99.551-45.409,188.621
			c0,165.921,29.692,214.822,181.638,277.696l330.093,132.737c333.585,136.227,431.39,284.681,431.39,761.479
			C8633.595,6028.541,8600.411,6213.673,8462.437,6346.407"/>
	</g>
	<g>
		<polygon fill="#FFFFFF" points="9290.285,1788.001 8277.306,1788.001 7966.426,808.207 7655.546,1788.001 6642.567,1788.001 
			7463.429,2374.831 7149.058,3330.175 7966.426,2738.107 8783.797,3330.175 8469.423,2374.831 		"/>
		<path fill="#FFFFFF" d="M4555.483,808.207c-275.95,0-443.616,38.423-579.844,120.51
			c-113.524,71.607-220.061,171.158-302.147,291.667c-57.636,80.339-103.045,164.171-139.72,253.244c0-1.746,0-1.746,0-3.493
			c0-330.092-211.33-593.815-511.731-639.224c-80.339-10.48-211.328-22.704-310.879-22.704H1282.513v2527.206h1397.213
			c363.274,0,522.208-41.915,658.436-165.918c125.748-113.524,188.624-291.668,188.624-499.503c0-5.238,0-10.48,0-17.464
			c104.791,296.908,289.922,511.728,529.193,597.307c171.159,61.128,389.472,87.328,703.845,87.328h581.59v-649.704H4922.25
			c-504.744-1.748-670.663,43.663-757.988-323.106h1177.15v-571.111H4162.515c0,0,59.384-333.583,408.686-333.583h1159.685v1877.504
			h731.789V1456.163h920.414l202.597-649.702H4555.483V808.207z M1902.526,1457.911h791.171
			c195.61,0,186.878,164.171,186.878,164.171c0,171.159-186.878,164.172-186.878,164.172h-791.171V1457.911z M2882.32,2523.285
			c0,171.158-186.877,164.172-186.877,164.172h-791.172v-330.093h792.919C2892.799,2357.365,2882.32,2523.285,2882.32,2523.285z
			 M3165.256,2072.683c117.016-48.9,216.57-146.707,282.937-270.709c-10.479,76.847-13.973,158.933-13.973,248.006
			c0,97.804,6.986,192.117,19.211,282.936C3392.304,2219.39,3297.992,2132.065,3165.256,2072.683z"/>
	</g>
</g>
</svg>
