<svg id="Layer_1" data-name="Layer 1" xmlns="http://www.w3.org/2000/svg" viewBox="0 0 55 37"><defs><style>.cls-1{fill:#fff;}</style></defs><title>Artboard 1</title><path class="cls-1" d="M24.23,21.73l.86.72v1.42h-.86Zm2.86.83.19-.16v-.61l-.92.77Zm-.72-9.09-.16-.16-2-.87,1.56,1.64Zm8.48,10.41h1V17.53a13.11,13.11,0,0,0-1,1.52Zm0-11.39v4.06a13.77,13.77,0,0,1,1-1.16V13.07Zm-3.37,4.38c-.79.47-.94.59-1.23.78v6.23h3.9V20.6c-.19.53-.38,1.18-.51,1.61-.19.65-.35.82-.82.82a.72.72,0,0,1-.76-.56l-.85-2.23a6.14,6.14,0,0,1-.48-1.76.79.79,0,0,1,.85-.85c.56,0,.66.53.73,1,0,.26.12,1,.16,1.34,0,.17,0,.37.23.37s.24-.25.38-.6a15.57,15.57,0,0,1,1.07-2.18V12.44H28.32l-2.53,2.65-2.5-2.65h-6V23.88h6.24V20.25l2.26,1.89L28,20.31v3.57h1c0-.19,0-2.56,0-4.52,0-.59-.12-.73-.31-.73s-.57.29-1,.57c-.63.45-1,.81-1.38.81a.62.62,0,0,1-.53-.3.69.69,0,0,1-.11-.33.5.5,0,0,1,.28-.45A8.17,8.17,0,0,0,27,18.47l1.44-.85c.23-.12.18-.31.18-.49,0-.38.34-.51.63-.51a1,1,0,0,1,.5.12l.89-.53c.34-.21.52-.61.92-.61a.68.68,0,0,1,.45.14c.2.16.23.25.23.39C32.23,16.46,31.74,16.72,31.49,16.87Z"/><path class="cls-1" d="M33.83,32.17l6-5.07V10h2.87V4.88H30.56V10h2.87v1.7h.74V9.31H31.29V5.62H42V9.31H39.15V26.75l-5.58,4.68h-14L14,26.75V9.31H11.09V5.62H21.81V9.31H18.94v2.44h.74V10h2.87V4.88H10.35V10h2.87V27.1l6,5.07Zm-.41-5.78H19.68V24.58h-.74v2.54H34.16V24.58h-.74Z"/></svg>