<?xml version="1.0" encoding="utf-8"?>
<!-- Generator: Adobe Illustrator 18.1.0, SVG Export Plug-In . SVG Version: 6.00 Build 0)  -->
<svg version="1.1" id="Layer_1" xmlns="http://www.w3.org/2000/svg" xmlns:xlink="http://www.w3.org/1999/xlink" x="0px" y="0px"
	 viewBox="5429 -3870 11088 7776" enable-background="new 5429 -3870 11088 7776" xml:space="preserve">
<path fill="#FFFFFF" d="M13416.1-3061.8H8109.6c-119.7,0-216.8,97.1-216.8,216.8v5306.6c0,119.7,97.1,216.8,216.8,216.8h5306.6
	c119.7,0,216.8-97.1,216.8-216.8V-2845C13632.9-2964.7,13535.9-3061.8,13416.1-3061.8z M12798.9-2471.1
	c87.9,52.7,173.4,104,260.8,156.4c0,42.6,0,86.4,0,130.1c0,133.1-1.1,266.2,0.8,399.3c0.4,32-8.3,57.3-29.4,79.4
	c-75.1,78.8-141.5,164.6-205.4,252.6c-6.4,8.8-14.8,16-26.8,28.7C12798.9-1777.1,12798.9-2122.7,12798.9-2471.1z M10199.8-2462.8
	c54.5,23.9,108.8,48,163.4,71.7c91.2,39.5,182.5,79,274,117.8c38.7,16.4,48.3,23.1,74.8,61.3c-16.8,29.5-45,49.8-68,74.6
	c-22.3,24-46.3,46.4-72.8,72.7c-125.2-131.2-250.4-262.3-375.5-393.5C10197-2459.8,10198.4-2461.3,10199.8-2462.8z M8464.8-2466
	c45.1-8.8,1202.5-12.2,1568.8-4.6c57,60.9,116.5,124.9,176.6,188.4c29.1,30.7,59.5,60.1,88.8,90.6c79.1,82.2,158,164.6,236.7,247.2
	c11.4,12,21.4,25.4,34.1,40.6c10-9.5,17.8-16.5,25.2-24.1c102.1-105.8,204.2-211.5,306-317.6c57.3-59.7,114.1-119.9,170.9-180.2
	c12.7-13.5,24.2-28.2,37.5-43.9c526,0,1053.2,0,1583.2,0c0,15.6,0,29.4,0,43.2c0,374.4-0.3,748.8,0.6,1123.2
	c0.1,29.6-7,55-22.3,78.7c-87.1,135.2-156.3,279.9-224.3,425c-31.8,67.8-55.3,139.4-83.2,209c-8,20-17.4,39.6-28.2,58.2
	c-8.7,14.8-20.2,26.7-40.9,26.5c-29.5-0.2-38.6-4.4-49.3-32.2c-4.9-12.8-9.5-26.2-11-39.7c-4.5-41.5-6.3-83.4-11.1-124.9
	c-4.4-38.1-11.8-75.8-17.1-113.7c-4-29-7.2-58.2-10-87.3c-5.6-56.7-18.8-111.2-36-165.7c-21.9-69.3-69.3-107.3-136.6-112.2
	c-86.4-6.3-189.4,36.4-214.8,150c-13.1,58.5-4.6,113.4,8,168.8c30.9,136.1,80.7,266.1,130.9,396c46.3,119.9,90.1,240.7,135.8,360.9
	c20.7,54.4,42.6,108.3,65.2,161.9c36.5,86.6,134.9,117.4,217.8,98.5c13.4-3.1,26.7-6.6,39.7-10.9c51.5-16.9,72.7-61.6,89.1-106.2
	c25.4-68.7,44.2-139.8,67-209.5c37.1-113.3,75-226.3,112.9-339.3c2.8-8.3,8.1-15.8,16.1-30.8c0,306.8,0,605.4,0,904.1
	c-39.1,7.4-848.3,10.3-979.7,3.6c-16.1-38.1-9.9-79-15.4-118.4c-16-115.2-10.7-231.1-4.9-345.9c4.7-93.6,6.2-187,4.6-280.3
	c-1.2-75.5-3.2-151.7-16.4-226.7c-0.3-1.5-0.1-3.1-0.1-4.7c-3.5-68.3-4.3-136.9-11.4-204.8c-7.2-68.4-7.5-136.6-6.8-205.1
	c0.2-15.2,4.4-30.3,5.5-45.6c1.1-15.5,2.1-31.1,0.6-46.5c-2-21.3-6.3-42.5-9.9-65.2c57.7-34,113.2-66.9,168.9-99.4
	c93.1-54.5,188.1-105.8,275.6-169.6c27.1-19.8,48.6-43.4,60.7-74.6c10.6-27.4,10.3-56.3-6.1-80.3c-64.6-94.6-183.5-108.9-262.2-38
	c-24.3,21.9-49.7,42.6-72.7,65.7c-41,41.4-93.2,66.2-141.1,97.2c-41.3,26.8-85.4,49.2-129,74c-56.3-34.2-119.9-35.2-181.2-23.3
	c-52,10.1-103.8,54.6-96.5,118.8c1.8,15.5,2.3,31.6,0,46.9c-3.9,27.4-10,52.9-39,68.6c-40.7,21.9-78.5,49.1-118.3,72.6
	c-75.6,44.7-152.7,87-227.4,133.2c-72.5,44.8-149,79.5-230.8,102.4c-38.4,10.8-71.4,28.8-97.1,59.6c-26.5,31.7-35,64.7-22.2,106.8
	c18.2,59.9,54.3,98.3,112.3,119c26,9.3,51.6,8.2,77.5,1.8c39.2-9.7,75.1-26.6,107.7-50.7c70.9-52.4,141.4-105.4,213.3-156.3
	c55.3-39.2,112.6-75.7,169-113.6c19.1-12.8,40.3-14.2,62.4-14.4c24.8-0.3,40.5,9.8,50.9,32.5c9.7,21.3,17.9,42.4,17.9,66.2
	c-0.3,153.5,2.4,307.1-2.5,460.5c-1.7,52.5-1.4,105.9-8.7,157.9c-9.7,70-1.3,140.5-9.8,209.7c-10,81.1-4.6,161.9-5.8,242.8
	c-0.5,33.8,4.8,67.7,7.2,101.6c0.5,7.6,0.1,15.2,0.1,25.1c-87.2,0-172.6,0-260.9,0c0-261.4,0-522.4,0-791.9
	c-170.5,140.2-331.6,279.6-495.8,416.2c-162.5-136.8-325.4-273.9-487.8-410.6c-1.7,1.5-3.1,2.4-3.9,3.6c-0.8,1.2-1.6,2.7-1.6,4.1
	c-0.1,258.4-0.1,516.7-0.1,773.6c-2.5,2.6-3.4,4-4.7,4.8c-1.2,0.8-2.8,1.5-4.2,1.5c-534,0.1-1068,0.1-1606.1,0.1
	C8464.8-580.5,8464.8-1523.3,8464.8-2466z M10963.5-115.5c6.7,49.5-6,89.2-56.8,114.9c-51.2,0-107.2,0-174.2,0
	c78-65.9,149.9-126.7,226.2-191.1c2.1,11.4,4.1,18,4.3,24.7C10963.5-149.8,10961.2-132.4,10963.5-115.5z M9505.7,2146.8H8460.1
	V773.6h380.6v1039.7h665V2146.8z M10109.9,2146.8h-382.5V773.6h382.5V2146.8z M10186.5-192.4c73.9,62,143.5,120.5,212.4,178.3
	c0,126.6,0,251.7,0,379.1c-70.6,0-140.4,0-212.4,0C10186.5,181.6,10186.5-2.2,10186.5-192.4z M11228,2156.6h-353.1l-557.1-1383
	h425.7l311.9,869l311.9-869h417.8L11228,2156.6z M13062.2,2146.8h-1112.3V773.6h1102.5v323.7h-727.8v207.9h659.1v300.1h-659.1v217.7
	h737.6V2146.8z M13057.9,364.9c-85.1,0-170.4,0-260.4,0c0-18.4,0-33.9,0-49.4c0-352,0.3-704-0.6-1056c-0.1-29,5.2-55.1,19.4-79.5
	c45.8-78.4,91.1-157.1,138.5-234.6c30.5-49.9,64.5-97.6,98.2-148.2C13062.4-1163.6,13066,210,13057.9,364.9z"/>
</svg>
