<svg id="nick2" xmlns="http://www.w3.org/2000/svg" viewBox="0 0 74 37"><defs><style>.cls-1{fill:#ef4e49;}.cls-2{fill:#f58a1f;}</style></defs><title>Artboard 1</title><path class="cls-1" d="M37.18,17.65H33.39a1.21,1.21,0,1,0,0,2.42h.68v3.69h2.42V20.07h.69a1.21,1.21,0,0,0,0-2.42"/><path class="cls-1" d="M61.82,20.38c-.91-.4-1.39-.55-1.4-.88s.3-.35.41-.35c.64,0,.69.65.69.8h2a2.47,2.47,0,0,0-2.72-2.26,2.28,2.28,0,0,0-2.47,2c0,.36.16,1.08,1.75,1.78.91.4,1.39.55,1.4.88s-.3.38-.41.38c-.64,0-.69-.68-.69-.83h-2a2.47,2.47,0,0,0,2.72,2.26,2.28,2.28,0,0,0,2.47-2c0-.36-.16-1.08-1.75-1.78"/><path class="cls-2" d="M23.07,21.85a.56.56,0,0,1-1.08,0,2.4,2.4,0,0,1,0-2,.56.56,0,0,1,1.08,0,2,2,0,0,1,.21.71H25.7a3.18,3.18,0,1,0-5.42,2.55h0a3.18,3.18,0,0,0,4.5,0h0a3.18,3.18,0,0,0,.92-2H23.28a2,2,0,0,1-.21.71"/><path class="cls-2" d="M13,17.65a3.18,3.18,0,0,0-3.18,3.18v2.93h2.42V20.88a1.68,1.68,0,0,1,.22-.88.59.59,0,0,1,1.08,0,1.68,1.68,0,0,1,.22.88v2.88h2.42V20.83A3.18,3.18,0,0,0,13,17.65"/><path class="cls-2" d="M31.62,19.43a1.21,1.21,0,1,0-2.08-1.23l-1.09,2v-1.3a1.21,1.21,0,0,0-2.42,0v4.9h2.42V21.83l1.28,2h2c.35,0,.52-.35.23-.79L30.71,21.1Z"/><path class="cls-2" d="M18.74,16.87a1.34,1.34,0,1,0-1.9,0l.3.3c.5.5.53.63.06,1.1l-.27.27a1.22,1.22,0,0,0-.36.86v4.36H19V19.4a1.22,1.22,0,0,0-.36-.86l-.27-.27c-.47-.47-.44-.6.06-1.1Z"/><path class="cls-1" d="M57,18.59a3.19,3.19,0,0,0-5.44,2.25v2.91h2.42V20.9a1.68,1.68,0,0,1,.22-.88.59.59,0,0,1,1.09,0,1.68,1.68,0,0,1,.22.88v2.86h2.42V20.85A3.18,3.18,0,0,0,57,18.59"/><path class="cls-1" d="M50.28,18.59a3.19,3.19,0,0,0-4.51,4.51h0l.19.17a3.19,3.19,0,0,0,4.14,0l.19-.17a3.19,3.19,0,0,0,0-4.51m-1.71,3.27a.56.56,0,0,1-1.09,0,2.4,2.4,0,0,1,0-2,.56.56,0,0,1,1.09,0,2.4,2.4,0,0,1,0,2"/><path class="cls-1" d="M43.72,18.59a3.19,3.19,0,1,0-4.51,4.51h0l.19.17a3.19,3.19,0,0,0,4.14,0l.19-.17a3.19,3.19,0,0,0,0-4.51M42,21.86a.56.56,0,0,1-1.09,0,2.4,2.4,0,0,1,0-2,.56.56,0,0,1,1.09,0,2.4,2.4,0,0,1,0,2"/><path class="cls-1" d="M64.1,18h-.25v-.13h.64V18h-.25v.69H64.1Zm.57-.14h0l.39.44.39-.44h0v.83h-.15v-.51l-.25.3h0l-.26-.3v.51h-.15Z"/></svg>