<svg id="Layer_1" data-name="Layer 1" xmlns="http://www.w3.org/2000/svg" viewBox="0 0 74 37"><defs><style>.cls-1{fill:#e8f6fd;}.cls-2{fill:#60c5f0;}.cls-3{fill:#84d4f6;}.cls-4{fill:#f58921;}.cls-5{fill:#d0edfb;}.cls-6{fill:#bae5fa;}.cls-7{fill:#5cc5f0;}</style></defs><title>Artboard 1</title><path class="cls-1" d="M35.86,15.61a3.9,3.9,0,1,0,0,7.8h1.05c.39,0,.76-.18.76-.57s-.34-.58-.77-.58h-1a2.75,2.75,0,1,1,2.75-2.75,1.19,1.19,0,0,1-.22.8c-.26.29-.48.05-.48-.22,0,0,0-.6,0-.62a2.06,2.06,0,1,0-1.06,1.84l.1.1a1.45,1.45,0,0,0,1,.36,1.71,1.71,0,0,0,1.29-.61,2.47,2.47,0,0,0,.54-1.64,3.9,3.9,0,0,0-3.9-3.9m.35,4.5a.37.37,0,0,1-.7,0,1.28,1.28,0,0,1,0-1.18.37.37,0,0,1,.7,0,1.29,1.29,0,0,1,0,1.18"/><path class="cls-2" d="M63.09,15.63a3.9,3.9,0,1,0,2.78,6.64,3.44,3.44,0,0,0,.85-1.94H64.08s-.37.92-1,.92a.81.81,0,0,1-.66-.51,2.41,2.41,0,0,1-.24-.8h4.6a3.93,3.93,0,0,0-.94-3.15,3.78,3.78,0,0,0-2.75-1.17m-.86,3.21a3,3,0,0,1,.19-.58.83.83,0,0,1,.66-.51c.27,0,.48.19.67.52a2.34,2.34,0,0,1,.19.56Z"/><path class="cls-3" d="M57.92,15.63H53.28a1.48,1.48,0,1,0,0,3h.84V23.1h3V18.59h.84a1.48,1.48,0,1,0,0-3"/><path class="cls-4" d="M8.9,15.63A3.9,3.9,0,0,0,5,19.53V23.1H8V19.59a2.07,2.07,0,0,1,.27-1.08.81.81,0,0,1,.67-.44.81.81,0,0,1,.66.44,2.07,2.07,0,0,1,.28,1.08V23.1h3V19.53a3.9,3.9,0,0,0-3.9-3.9"/><path class="cls-4" d="M16,14.67a1.65,1.65,0,1,0-2.33,0L14,15c.61.61.65.77.07,1.35l-.33.33a1.49,1.49,0,0,0-.44,1.06V23.1h3V17.77a1.5,1.5,0,0,0-.44-1.06l-.33-.33c-.58-.58-.53-.74.07-1.35Z"/><path class="cls-5" d="M44.16,15.63a3.9,3.9,0,0,0-3.9,3.9V23.1h3V19.59a2.06,2.06,0,0,1,.28-1.08.72.72,0,0,1,1.33,0,2.06,2.06,0,0,1,.28,1.08V23.1h3V19.53a3.9,3.9,0,0,0-3.9-3.9"/><path class="cls-6" d="M51.25,14.67a1.65,1.65,0,1,0-2.33,0l.36.36c.61.61.65.77.07,1.35l-.33.33a1.49,1.49,0,0,0-.44,1.06V23.1h3V17.77a1.5,1.5,0,0,0-.44-1.06l-.33-.33c-.58-.58-.53-.74.07-1.35Z"/><path class="cls-4" d="M21.31,20.78a.69.69,0,0,1-1.33,0,2.94,2.94,0,0,1,0-2.48.69.69,0,0,1,1.33,0,2.48,2.48,0,0,1,.25.87h3a3.9,3.9,0,1,0,0,.73h-3a2.47,2.47,0,0,1-.25.88"/><path class="cls-4" d="M32.37,22.58a.51.51,0,0,0-.08-.27l-1.62-2.45,1.12-2a1.48,1.48,0,1,0-2.55-1.5l-1.34,2.4v-1.6a1.48,1.48,0,0,0-3,0v6h3V20.75l1.56,2.34h2.39a.52.52,0,0,0,.52-.52"/><path class="cls-7" d="M67.28,16.2H67V16h.78v.15h-.3V17h-.18ZM68,16h0l.48.54L69,16h0v1h-.18v-.63l-.31.37h0l-.31-.37V17H68Z"/></svg>