<svg id="Layer_1" data-name="Layer 1" xmlns="http://www.w3.org/2000/svg" viewBox="0 0 55 37"><defs><style>.cls-1{fill:#e65c00;}.cls-2{fill:#70319a;}</style></defs><title>Artboard 1</title><path id="C" class="cls-1" d="M14.2,19a.61.61,0,0,1-.5.39.61.61,0,0,1-.5-.39,2.21,2.21,0,0,1,0-1.87.61.61,0,0,1,.5-.39.61.61,0,0,1,.5.39,1.86,1.86,0,0,1,.19.66h2.23a2.93,2.93,0,1,0-5,2.35h0a2.93,2.93,0,0,0,4.15,0h0a2.93,2.93,0,0,0,.85-1.8H14.39a1.87,1.87,0,0,1-.19.66"/><path id="I" class="cls-1" d="M10.21,14.41a1.24,1.24,0,1,0-1.75,0l.27.27c.46.46.49.58.05,1l-.25.25a1.12,1.12,0,0,0-.33.8v4h2.25v-4a1.12,1.12,0,0,0-.33-.8l-.25-.25c-.43-.43-.4-.56.05-1l.27-.27Z"/><path id="K" class="cls-1" d="M22.07,16.77a1.11,1.11,0,0,0-1.92-1.13l-1,1.8v-1.2a1.11,1.11,0,0,0-2.23,0v4.51h2.23V19l1.18,1.81h1.84c.33,0,.48-.33.21-.73L21.23,18.3l.84-1.53Z"/><path id="N" class="cls-1" d="M4.88,15.13a2.93,2.93,0,0,0-2.93,2.93v2.7H4.17V18.11a1.54,1.54,0,0,1,.21-.81.61.61,0,0,1,.5-.33.61.61,0,0,1,.5.33,1.55,1.55,0,0,1,.21.81v2.65H7.81v-2.7a2.93,2.93,0,0,0-2.93-2.93"/><path id="C-2" data-name="C" class="cls-2" d="M50,19a.52.52,0,0,1-1,0,2.21,2.21,0,0,1,0-1.87.52.52,0,0,1,1,0,1.85,1.85,0,0,1,.19.66h2.23a2.93,2.93,0,1,0,0,.55H50.16A1.85,1.85,0,0,1,50,19"/><path id="I-2" data-name="I" class="cls-2" d="M46,14.4a1.24,1.24,0,1,0-1.75,0l.27.27c.46.46.49.58.05,1l-.25.25a1.12,1.12,0,0,0-.33.8v4h2.25v-4a1.12,1.12,0,0,0-.33-.8l-.25-.25c-.43-.43-.4-.56.05-1L46,14.4Z"/><path id="S" class="cls-2" d="M42,17.58c-.84-.37-1.28-.51-1.3-.82s.28-.32.38-.32c.59,0,.64.6.64.74h1.81A2.28,2.28,0,0,0,41,15.1a2.1,2.1,0,0,0-2.28,1.8c0,.33.15,1,1.62,1.65.84.37,1.28.51,1.3.82s-.28.35-.38.35c-.59,0-.64-.63-.64-.76H38.79a2.26,2.26,0,0,0,2.51,2,2.08,2.08,0,0,0,2.28-1.77c0-.33-.15-1-1.62-1.65"/><path id="U" class="cls-2" d="M35.42,21a2.85,2.85,0,0,0,2.07-.75,2.7,2.7,0,0,0,.81-2V15.33H36.13V18a2,2,0,0,1-.21.91.54.54,0,0,1-1,0,2,2,0,0,1-.21-.91V15.33H32.54v2.92a2.71,2.71,0,0,0,.81,2,2.85,2.85,0,0,0,2.08.75"/><path class="cls-2" d="M31.25,16a2.93,2.93,0,0,0-2.07-.88,2.51,2.51,0,0,0-1.66.65,2.49,2.49,0,0,0-1.66-.64,3,3,0,0,0-2.12.86,3,3,0,0,0-.86,2.09v2.73h2.18V18.1a1.55,1.55,0,0,1,.2-.81.77.77,0,0,1,.6-.34.7.7,0,0,1,.56.34,1.56,1.56,0,0,1,.15.81v2.68h1.76V18.1a1.55,1.55,0,0,1,.23-.81.8.8,0,0,1,.62-.34.73.73,0,0,1,.57.34,1.55,1.55,0,0,1,.18.81v2.68H32V18.06A2.88,2.88,0,0,0,31.25,16Z"/><path class="cls-2" d="M52.84,20.31h-.23V20.2h.59v.12H53v.63h-.14Zm.52-.13h0l.36.4.36-.4h0v.76H54v-.47l-.23.28h0l-.24-.28v.47h-.14Z"/></svg>