<svg id="nick2" xmlns="http://www.w3.org/2000/svg" viewBox="0 0 74 37"><defs><style>.cls-1{fill:#fff;}.cls-2{fill:#ff5000;}</style></defs><title>Artboard 1</title><circle class="cls-1" cx="58.16" cy="19.47" r="8.03"/><path d="M53.92,17.4a3.88,3.88,0,0,1,4.2-4.14,3.81,3.81,0,0,1,4,3.67c0,2.14-1.65,3.67-3.3,5.18H62.4v2.27H53.69L58.34,19a3.55,3.55,0,0,0,1-2.09A1.24,1.24,0,0,0,58,15.64c-1,0-1.32.71-1.32,1.76Z"/><path class="cls-2" d="M13.29,14.3a5.77,5.77,0,0,0-5.76,5.77v5.27h4.38V20.16a3,3,0,0,1,.41-1.59,1.19,1.19,0,0,1,1-.66,1.19,1.19,0,0,1,1,.66,3,3,0,0,1,.41,1.59v5.18h4.38V20.07a5.77,5.77,0,0,0-5.76-5.77"/><path class="cls-2" d="M23.77,12.88a2.43,2.43,0,1,0-3.44,0l.54.54c.9.9,1,1.13.11,2l-.49.49a2.2,2.2,0,0,0-.65,1.56v7.87h4.42V17.46a2.21,2.21,0,0,0-.65-1.56l-.49-.49c-.85-.85-.79-1.09.11-2Z"/><path class="cls-2" d="M31.61,21.91a1,1,0,0,1-2,0,4.33,4.33,0,0,1,0-3.67,1,1,0,0,1,2,0A3.63,3.63,0,0,1,32,19.53h4.38a5.76,5.76,0,1,0,0,1.08H32A3.63,3.63,0,0,1,31.61,21.91Z"/><path class="cls-2" d="M47.94,24.57a.76.76,0,0,0-.12-.4l-2.4-3.62,1.66-3a2.19,2.19,0,1,0-3.77-2.22l-2,3.54V16.49a2.19,2.19,0,1,0-4.38,0v8.84h4.38V21.87l2.31,3.46h3.53A.76.76,0,0,0,47.94,24.57Z"/><path class="cls-2" d="M48.45,24.4h-.33v-.17H49v.17h-.33v.93h-.2Zm.77-.19h0l.53.6.53-.6h0v1.12h-.2v-.69L49.8,25h0l-.35-.41v.69h-.2Z"/></svg>