<?xml version="1.0" encoding="utf-8"?>
<!-- Generator: Adobe Illustrator 18.1.0, SVG Export Plug-In . SVG Version: 6.00 Build 0)  -->
<svg version="1.1" xmlns="http://www.w3.org/2000/svg" xmlns:xlink="http://www.w3.org/1999/xlink" x="0px" y="0px"
	 viewBox="0 0 600 300" enable-background="new 0 0 600 300" xml:space="preserve">
<g id="Layer_1" display="none">
	<g display="inline">
		<polygon fill="#DC4643" points="249.3,92 251.7,73.1 82.4,85.5 64.3,220.6 177.8,212.5 229,208.8 174.9,234.5 522.3,210.1 
			540,71.2 		"/>
		<polygon fill="#FFFFFF" points="177.8,212.5 174.9,234.5 229,208.8 		"/>
		<g>
			<g>
				<path fill="#FFFFFF" d="M247.7,206.5l13.6-97.2l22.5-1.6l-10.9,77.7l27.4-1.9l-2.7,19.4L247.7,206.5z"/>
				<path fill="#FFFFFF" d="M302.7,202.6l34.5-98.6l27.1-1.9l7.2,95.7l-22.7,1.6l-0.5-18.7l-17.6,1.2l-5.3,19.1L302.7,202.6z
					 M348.3,120.6l-0.3,0l-12.6,44l13-0.9L348.3,120.6z"/>
				<path fill="#FFFFFF" d="M403.3,141.6l-0.3,0.3l-5.5,54l-21.3,1.5l13.6-97.2l23.1-1.6l9.8,53.1l0.4,0l5.4-54.1l21.3-1.5
					l-13.6,97.2l-23,1.6L403.3,141.6z"/>
				<path fill="#FFFFFF" d="M443,192.7l13.6-97.2l24.4-1.7c8.2-0.6,18-1,24.6,2.8c8,4.6,8,13.9,6.7,23.3l-6,43.1
					c-1.5,9.7-5.4,17.1-12.5,21.7c-6.4,4.3-13.7,5.5-20.5,5.9L443,192.7z M467.9,173.6c14.9,0,15.9-6.3,17.3-19.2l4.4-31.7
					c1.5-11.4-2.1-11.8-13.1-11.3L467.9,173.6z"/>
			</g>
			<path fill="#FFFFFF" d="M98.2,103.3l58.2-4.1l-2.7,19.4l-18.1,1.3l-10.9,77.7l-22.5,1.6l10.9-77.7l-17.6,1.2L98.2,103.3z"/>
			<path fill="#FFFFFF" d="M168.4,194.5l-7.2-95.7l22.5-1.6l2,67.3l0.3,0l21-69l22.5-1.6l-34.5,98.6L168.4,194.5z"/>
		</g>
	</g>
</g>
<g id="Layer_2">
	<g>
		<polygon fill="#FFFFFF" points="520,102.8 522.9,102.8 522.9,111 525.1,111 525.1,102.8 528,102.8 528,100.8 520,100.9 		"/>
		<polygon fill="#FFFFFF" points="540.8,100.8 537.5,100.8 535.1,107.4 535.1,107.4 532.8,100.8 529.4,100.8 529.4,111 531.6,111 
			531.6,103.2 531.6,103.2 534.2,111 535.9,111 538.6,103.2 538.6,103.2 538.6,111 540.8,111 		"/>
		<path fill="#FFFFFF" d="M247.7,98.4c-10.8,0-18,3.6-21.5,6.4c-1.1,0.7-1.8,1.5-3.7,3.7v-7.5h-36.9v46.4
			c-3.5-20.1-20.2-26.2-27.4-28.5c-12.8-4.3-25-6-29.5-6.8c-3.5-0.6-11.2-2.1-14.5-4.1c-1.8-1.3-3.3-3.6-3.3-6
			c0-4.5,4.4-6.6,5.1-6.9c3.9-1.7,8.8-1.7,9.7-1.7c9.7,0,22.8,2.1,30.3,9.2c1.1,0.9,2,2.1,3.7,4.3l24.3-23.5
			c-2.7-2.8-4.9-5.1-8.4-7.6c-18.5-13.9-41.8-14.3-48.4-14.3c-5,0-39.3-0.4-52.5,24.4c-4.6,8.4-4.8,16.5-4.8,20.1
			c-0.2,14.4,7.2,23.3,11.2,26.8c6.2,5.6,15.8,10.1,33.6,13.7c11.6,2.4,19.8,3.6,24.4,5.2c3.8,1.3,5.3,3,6.2,4.9
			c0.2,0.6,0.9,1.7,0.9,3.2c0,6.6-8.1,10.1-19.6,10.1c-9,0-22.6-2.8-29.9-9.4c-1.8-1.5-3.5-3.6-6.2-8.1l-26.9,26
			c2.7,3.1,5.5,5.8,9.3,8.7c15.4,11.8,33.4,15,52.3,15c5.5,0,27.3,0.4,44-12.2c4.9-3.7,13.9-12.1,16.4-26.9V247l37.1-38.1v-18.9
			c1.1,2.1,3,4.1,4.3,5c2,1.4,3.8,2.6,5.9,3.4l55.7-58C286,117.4,273.7,98.4,247.7,98.4z M244.2,170.5c-3.1,1.8-5.7,2-7.3,2
			c-1.3,0-3.7,0-6.6-1.6c-7.3-4-7.9-13.5-7.9-20.7c0-7.4,0.4-16.8,8.1-20.9c2.9-1.6,5.9-1.8,7.3-1.8c1.8,0,6.8,0.7,10.1,5
			c3.7,4.9,4,12.3,4,18C251.9,157.4,251,166.4,244.2,170.5z"/>
		<polygon fill="#FFFFFF" points="326.5,100.3 288.7,139.9 288.7,198.2 326.5,198.2 		"/>
		<path fill="#FFFFFF" d="M307.6,100c10.4,0,18.9-8.6,18.9-19.3c0-10.7-8.5-19.3-18.9-19.3c-10.4,0-18.9,8.6-18.9,19.3
			C288.7,91.4,297.2,100,307.6,100z"/>
		<polygon fill="#FFFFFF" points="372.6,171 382.5,161.2 403,198.2 446.1,198.2 435,179.9 433.6,177.5 408.3,136.1 444.5,101.1 
			398.4,101.1 372.6,128.8 372.6,52.7 334.8,92 334.8,198.2 372.6,198.2 		"/>
		<path fill="#FFFFFF" d="M524.1,131.3c-1.9-6.3-5.3-12.4-9.7-17.3c-13.2-14.6-31.9-15.5-38-15.5c-5.1,0-23.2,0.9-36.3,13.7
			c-5.3,5.2-13.9,17.1-13.9,36.4c0,9.8,2.4,19.3,6.9,27.3l1.4,2.3c4.8,7.5,11.7,13.6,20.6,17.3c6.9,2.9,14.1,4,21.7,4
			c7.6,0,14.8-1.1,21.7-4C512,189.9,521,178.5,525,165h-32.7c-1.7,3.7-5.5,8.5-13.7,8.4l-0.1-0.1c-9.7,0.2-14.2-6.7-15.4-10.3
			c-0.9-2.9-0.9-7.2-0.9-7.2h64.6C526.8,147.4,526.6,139.5,524.1,131.3z M462.6,136.2c0.3-2,1.2-9.5,7.9-12.6
			c1.1-0.5,3.8-1.3,6.6-1.4c2.8,0,9.5,1.1,12,8.8c0.7,2.3,0.7,4.1,0.9,5.2H462.6z"/>
	</g>
</g>
</svg>
