<svg id="Layer_1" data-name="Layer 1" xmlns="http://www.w3.org/2000/svg" viewBox="0 0 55 37"><defs><style>.cls-1{fill:#7c98ab;}.cls-2{fill:#ff5000;}</style></defs><title>Artboard 1</title><path class="cls-1" d="M25.15,16.33a2.9,2.9,0,0,0-2.9,2.9V21.9h2.2V19.28a1.53,1.53,0,0,1,.2-.8.53.53,0,0,1,1,0,1.53,1.53,0,0,1,.2.8V21.9h2.2V19.24a2.9,2.9,0,0,0-2.9-2.9"/><path class="cls-1" d="M19.09,16.35a2.91,2.91,0,1,0,2.07,4.94,2.56,2.56,0,0,0,.64-1.44h-2s-.27.69-.74.69a.6.6,0,0,1-.49-.38,1.79,1.79,0,0,1-.18-.59h3.43a2.93,2.93,0,0,0-.7-2.34,2.82,2.82,0,0,0-2-.87m-.64,2.39a2.3,2.3,0,0,1,.15-.43.62.62,0,0,1,.49-.38c.2,0,.36.14.5.39a1.77,1.77,0,0,1,.14.42Z"/><path class="cls-1" d="M13,16.35a2.91,2.91,0,1,0,2.07,4.94,2.56,2.56,0,0,0,.64-1.44h-2s-.27.69-.74.69a.6.6,0,0,1-.49-.38,1.79,1.79,0,0,1-.18-.59h3.43a2.93,2.93,0,0,0-.7-2.34,2.82,2.82,0,0,0-2-.87m-.64,2.39a2.29,2.29,0,0,1,.15-.43.62.62,0,0,1,.49-.38c.2,0,.36.14.5.39a1.75,1.75,0,0,1,.14.42Z"/><path class="cls-1" d="M9.17,16.35H5.72a1.1,1.1,0,1,0,0,2.2h.62v3.36h2.2V18.55h.63a1.1,1.1,0,0,0,0-2.2"/><path class="cls-2" d="M31.73,16.35a2.91,2.91,0,0,0-2.91,2.91v2.65H31V19.3a1.54,1.54,0,0,1,.21-.8.54.54,0,0,1,1,0,1.53,1.53,0,0,1,.21.8v2.61h2.21V19.26a2.91,2.91,0,0,0-2.91-2.91"/><path class="cls-2" d="M37,15.63a1.23,1.23,0,1,0-1.73,0l.27.27c.45.45.48.57.05,1l-.25.25a1.11,1.11,0,0,0-.33.79v4h2.23v-4a1.11,1.11,0,0,0-.33-.79l-.25-.25c-.43-.43-.4-.55.05-1Z"/><path class="cls-2" d="M41,20.18a.51.51,0,0,1-1,0,2.19,2.19,0,0,1,0-1.85.51.51,0,0,1,1,0,1.83,1.83,0,0,1,.19.65h2.21a2.91,2.91,0,1,0,0,.55H41.16a1.83,1.83,0,0,1-.19.65"/><path class="cls-2" d="M49.2,21.52a.38.38,0,0,0-.06-.2L47.94,19.5,48.78,18a1.1,1.1,0,1,0-1.9-1.12l-1,1.79V17.45a1.1,1.1,0,0,0-2.21,0v4.46h2.21V20.16L47,21.91h1.78a.38.38,0,0,0,.38-.38"/><path class="cls-2" d="M49.72,16.74H49.5v-.12h.58v.12h-.22v.63h-.13Zm.52-.13h0l.36.4.36-.4h0v.75h-.13V16.9l-.23.28h0l-.23-.28v.47h-.13Z"/></svg>